<svg width="134" height="134" viewBox="0 0 134 134" fill="none" xmlns="http://www.w3.org/2000/svg">
<path d="M122.259 11.7366C105.889 -4.61552 79.9474 -5.21747 56.2332 18.4706C35.6596 39.0207 40.2736 34.4144 33.7909 40.8893C17.9674 56.6945 15.3686 80.3642 17.1352 96.1563L63.8361 49.5051C65.4744 47.8693 68.1283 47.8693 69.764 49.5051C71.3997 51.1408 71.3997 53.792 69.764 55.4278L1.84302 123.278C-0.611897 125.73 -0.611897 129.708 1.84302 132.161C4.29793 134.613 8.28127 134.613 10.7362 132.161L28.0357 114.88C41.7236 118.991 73.0198 119.635 92.6355 100.501H66.9374L105.559 87.64C118.642 74.5724 115.08 78.171 117.679 75.3759H92.0885L126.515 63.9126C138.407 44.4251 135.494 24.9586 122.259 11.7366Z" fill="#FF4829"/>
</svg>
