<svg width="671" height="652" viewBox="0 0 671 652" fill="none" xmlns="http://www.w3.org/2000/svg">
<g opacity="0.2">
<path d="M290.254 134.541C290.26 169.26 337.969 274.851 337.969 274.851C337.969 274.851 383.299 165.966 383.291 131.938C383.283 97.9093 337.969 9 337.969 9C337.969 9 290.248 99.8219 290.254 134.541Z" stroke="white" stroke-width="17.7039" stroke-linecap="round" stroke-linejoin="round"/>
<path d="M424.722 196.467C401.793 221.022 365.782 331.8 365.782 331.8C365.782 331.8 469.757 289.119 492.229 265.051C514.7 240.984 541.386 143.815 541.386 143.815C541.386 143.815 447.651 171.912 424.722 196.467Z" stroke="white" stroke-width="17.7039" stroke-linecap="round" stroke-linejoin="round"/>
<path d="M186.719 271.253C209.657 295.799 313.139 334.349 313.139 334.349C313.139 334.349 273.269 223.043 250.787 198.987C228.304 174.931 137.535 146.364 137.535 146.364C137.535 146.364 163.782 246.708 186.719 271.253Z" stroke="white" stroke-width="17.7039" stroke-linecap="round" stroke-linejoin="round"/>
<path d="M411.906 550.877C390.74 523.021 362.514 402.379 362.514 402.379C362.514 402.379 463.27 455.583 484.015 482.886C504.759 510.189 524.628 615.644 524.628 615.644C524.628 615.644 433.073 578.733 411.906 550.877Z" stroke="white" stroke-width="17.7039" stroke-linecap="round" stroke-linejoin="round"/>
<path d="M497.873 421.196C470.404 416.524 389.39 368.075 389.39 368.075C389.39 368.075 477.938 350.173 504.86 354.754C531.782 359.335 599.725 403.82 599.725 403.82C599.725 403.82 525.342 425.869 497.873 421.196Z" stroke="white" stroke-width="17.7039" stroke-linecap="round" stroke-linejoin="round"/>
<path d="M181.173 349.128C207.444 345.932 292.763 370.064 292.763 370.064C292.763 370.064 215.523 412.278 189.774 415.409C164.025 418.54 91.6011 394.57 91.6011 394.57C91.6011 394.57 154.901 352.324 181.173 349.128Z" stroke="white" stroke-width="17.7039" stroke-linecap="round" stroke-linejoin="round"/>
<path d="M201.359 480.676C222.535 452.829 323.087 404.06 323.087 404.06C323.087 404.06 291.049 525.551 270.293 552.843C249.537 580.134 160.973 617.325 160.973 617.325C160.973 617.325 180.183 508.523 201.359 480.676Z" stroke="white" stroke-width="17.7039" stroke-linecap="round" stroke-linejoin="round"/>
<path d="M94.0587 252.644C113.85 259.1 162.516 311.447 162.516 311.447C162.516 311.447 89.4837 322.305 70.0862 315.976C50.6887 309.647 10.9548 262.043 10.9548 262.043C10.9548 262.043 74.267 246.188 94.0587 252.644Z" stroke="white" stroke-width="17.7039" stroke-linecap="round" stroke-linejoin="round"/>
<path d="M602.869 308.515C584.026 317.662 515.188 312.769 515.188 312.769C515.188 312.769 563.323 252.977 581.792 244.013C600.261 235.05 659.466 242.697 659.466 242.697C659.466 242.697 621.713 299.368 602.869 308.515Z" stroke="white" stroke-width="17.7039" stroke-linecap="round" stroke-linejoin="round"/>
<path d="M350.84 365.071C350.84 371.243 346.171 376.208 340.457 376.208C334.744 376.208 330.075 371.243 330.075 365.071C330.075 358.898 334.744 353.933 340.457 353.933C346.171 353.933 350.84 358.898 350.84 365.071Z" fill="white" stroke="white" stroke-width="0.655699"/>
</g>
</svg>
