<svg width="52" height="49" viewBox="0 0 52 49" fill="none" xmlns="http://www.w3.org/2000/svg">
<path d="M21.6138 11.1207C21.6143 13.9133 25.7223 22.4064 25.7223 22.4064C25.7223 22.4064 29.6254 13.6483 29.6247 10.9113C29.624 8.17427 25.7223 1.02295 25.7223 1.02295C25.7223 1.02295 21.6132 8.32811 21.6138 11.1207Z" stroke="#DBFF00" stroke-width="1.55621" stroke-linecap="round" stroke-linejoin="round"/>
<path d="M11.7567 31.8403C13.6593 31.6399 19.0959 27.7028 19.0959 27.7028C19.0959 27.7028 12.7965 25.1671 10.9317 25.3636C9.06702 25.5601 4.52703 29.234 4.52703 29.234C4.52703 29.234 9.85412 32.0407 11.7567 31.8403Z" stroke="#DBFF00" stroke-width="1.55621" stroke-linecap="round" stroke-linejoin="round"/>
<path d="M4.77536 22.2694C6.09614 22.842 11.0701 22.377 11.0701 22.377C11.0701 22.377 7.83805 18.4831 6.54351 17.922C5.24897 17.3609 0.957605 17.9904 0.957605 17.9904C0.957605 17.9904 3.45459 21.6968 4.77536 22.2694Z" stroke="#DBFF00" stroke-width="1.11862" stroke-linecap="round" stroke-linejoin="round"/>
<path d="M44.8492 17.7976C43.5985 18.3405 40.7519 22.1979 40.7519 22.1979C40.7519 22.1979 45.5844 22.5935 46.8102 22.0614C48.0359 21.5292 50.3297 18.0433 50.3297 18.0433C50.3297 18.0433 46.0999 17.2547 44.8492 17.7976Z" stroke="#DBFF00" stroke-width="1.11862" stroke-linecap="round" stroke-linejoin="round"/>
<path d="M39.7172 31.6497C41.6257 31.7827 47.6634 28.8495 47.6634 28.8495C47.6634 28.8495 41.9 25.2584 40.0294 25.1281C38.1589 24.9979 33.0499 27.8276 33.0499 27.8276C33.0499 27.8276 37.8087 31.5166 39.7172 31.6497Z" stroke="#DBFF00" stroke-width="1.55621" stroke-linecap="round" stroke-linejoin="round"/>
<path d="M33.0352 14.016C31.1935 15.9201 28.5435 24.5664 28.5435 24.5664C28.5435 24.5664 37.1254 21.3102 38.9303 19.4439C40.7352 17.5776 42.6484 9.98939 42.6484 9.98939C42.6484 9.98939 34.8768 12.112 33.0352 14.016Z" stroke="#DBFF00" stroke-width="1.55621" stroke-linecap="round" stroke-linejoin="round"/>
<path d="M12.5737 20.0667C14.4521 21.9345 23.061 24.7036 23.061 24.7036C23.061 24.7036 19.9236 16.0775 18.0824 14.247C16.2412 12.4165 8.68015 10.3988 8.68015 10.3988C8.68015 10.3988 10.6952 18.1989 12.5737 20.0667Z" stroke="#DBFF00" stroke-width="1.55621" stroke-linecap="round" stroke-linejoin="round"/>
<path d="M31.3759 40.7167C29.7594 38.4319 28.1055 28.7455 28.1055 28.7455C28.1055 28.7455 36.2774 33.3081 37.8616 35.5476C39.4458 37.7871 40.4867 46.2383 40.4867 46.2383C40.4867 46.2383 32.9925 43.0015 31.3759 40.7167Z" stroke="#DBFF00" stroke-width="1.55621" stroke-linecap="round" stroke-linejoin="round"/>
<path d="M14.3188 35.3564C15.9362 33.0722 24.1175 28.863 24.1175 28.863C24.1175 28.863 22.1474 38.6295 20.5621 40.8681C18.9768 43.1066 11.7363 46.3557 11.7363 46.3557C11.7363 46.3557 12.7015 37.6405 14.3188 35.3564Z" stroke="#DBFF00" stroke-width="1.55621" stroke-linecap="round" stroke-linejoin="round"/>
<circle cx="26.0516" cy="26.3833" r="0.893379" fill="#DBFF00" stroke="#DBFF00" stroke-width="0.0576374"/>
</svg>
