<svg width="341" height="60" viewBox="0 0 341 60" fill="none" xmlns="http://www.w3.org/2000/svg">
<path d="M26.1624 13.2227C26.163 16.603 31.1355 26.8834 31.1355 26.8834C31.1355 26.8834 35.8599 16.2823 35.8591 12.9692C35.8583 9.65624 31.1355 1 31.1355 1C31.1355 1 26.1617 9.84245 26.1624 13.2227Z" stroke="#DBFF00" stroke-width="1.88369" stroke-linecap="round" stroke-linejoin="round"/>
<path d="M14.2308 38.3026C16.5338 38.06 23.1145 33.2944 23.1145 33.2944C23.1145 33.2944 15.4894 30.2251 13.2323 30.463C10.9751 30.7009 5.47975 35.1479 5.47975 35.1479C5.47975 35.1479 11.9279 38.5452 14.2308 38.3026Z" stroke="#DBFF00" stroke-width="1.88369" stroke-linecap="round" stroke-linejoin="round"/>
<path d="M5.78029 26.7177C7.379 27.4107 13.3997 26.8478 13.3997 26.8478C13.3997 26.8478 9.48748 22.1346 7.92052 21.4554C6.35356 20.7762 1.15912 21.5382 1.15912 21.5382C1.15912 21.5382 4.18157 26.0246 5.78029 26.7177Z" stroke="#DBFF00" stroke-width="1.35403" stroke-linecap="round" stroke-linejoin="round"/>
<path d="M54.2877 21.3048C52.7738 21.9619 49.3281 26.6311 49.3281 26.6311C49.3281 26.6311 55.1776 27.11 56.6613 26.4659C58.145 25.8217 60.9215 21.6022 60.9215 21.6022C60.9215 21.6022 55.8016 20.6477 54.2877 21.3048Z" stroke="#DBFF00" stroke-width="1.35403" stroke-linecap="round" stroke-linejoin="round"/>
<path d="M48.0753 38.0718C50.3854 38.2328 57.6936 34.6823 57.6936 34.6823C57.6936 34.6823 50.7174 30.3355 48.4532 30.1779C46.1891 30.0202 40.005 33.4454 40.005 33.4454C40.005 33.4454 45.7652 37.9108 48.0753 38.0718Z" stroke="#DBFF00" stroke-width="1.88369" stroke-linecap="round" stroke-linejoin="round"/>
<path d="M39.987 16.7274C37.7578 19.0322 34.5501 29.498 34.5501 29.498C34.5501 29.498 44.938 25.5565 47.1228 23.2975C49.3075 21.0385 51.6232 11.8534 51.6232 11.8534C51.6232 11.8534 42.2162 14.4227 39.987 16.7274Z" stroke="#DBFF00" stroke-width="1.88369" stroke-linecap="round" stroke-linejoin="round"/>
<path d="M15.2201 24.0513C17.4938 26.3121 27.9144 29.664 27.9144 29.664C27.9144 29.664 24.1167 19.2227 21.888 17.007C19.6594 14.7913 10.5072 12.3489 10.5072 12.3489C10.5072 12.3489 12.9463 21.7905 15.2201 24.0513Z" stroke="#DBFF00" stroke-width="1.88369" stroke-linecap="round" stroke-linejoin="round"/>
<path d="M37.9788 49.0468C36.0221 46.2812 34.0201 34.5565 34.0201 34.5565C34.0201 34.5565 43.9117 40.0792 45.8293 42.79C47.7469 45.5007 49.0069 55.7304 49.0069 55.7304C49.0069 55.7304 39.9355 51.8125 37.9788 49.0468Z" stroke="#DBFF00" stroke-width="1.88369" stroke-linecap="round" stroke-linejoin="round"/>
<path d="M17.3324 42.5586C19.2901 39.7938 29.193 34.6988 29.193 34.6988C29.193 34.6988 26.8084 46.5205 24.8894 49.2302C22.9705 51.9398 14.2064 55.8726 14.2064 55.8726C14.2064 55.8726 15.3747 45.3234 17.3324 42.5586Z" stroke="#DBFF00" stroke-width="1.88369" stroke-linecap="round" stroke-linejoin="round"/>
<circle cx="31.5344" cy="31.6972" r="1.08138" fill="#DBFF00" stroke="#DBFF00" stroke-width="0.0697665"/>
<path d="M74.8154 43.0228V15.4252H80.3428V43.0228H74.8154ZM104.112 15.4252H109.64V43.0228H104.034L91.4756 24.8978V43.0228H85.9482V15.4252H91.5537L104.112 33.5502V15.4252ZM126.046 15.4252C128.025 15.4252 129.887 15.7767 131.632 16.4799C133.377 17.183 134.868 18.1465 136.104 19.3705C137.354 20.5814 138.338 22.0398 139.054 23.7455C139.77 25.4512 140.128 27.2741 140.128 29.2142C140.128 31.1543 139.77 32.9773 139.054 34.683C138.338 36.3887 137.354 37.8536 136.104 39.0775C134.868 40.3015 133.377 41.265 131.632 41.9681C129.887 42.6713 128.025 43.0228 126.046 43.0228H115.245V15.4252H126.046ZM125.929 37.8275C128.364 37.8275 130.388 37.0072 132.003 35.3666C133.631 33.726 134.444 31.6752 134.444 29.2142C134.444 26.7533 133.631 24.709 132.003 23.0814C130.388 21.4408 128.364 20.6205 125.929 20.6205H120.772V37.8275H125.929ZM144.308 43.0228V15.4252H149.835V43.0228H144.308ZM160.968 37.8275H174.21V43.0228H155.44V15.4252H174.015V20.6205H160.968V26.5385H172.687V31.7338H160.968V37.8275ZM195.89 43.0228L186.769 32.7103L184.21 35.5033V43.0228H178.683V15.4252H184.21V28.0228L195.538 15.4252H202.569L190.362 28.7455L203.097 43.0228H195.89ZM220.499 43.0228L214.132 33.1791H210.851V43.0228H205.323V15.4252H217.081C219.737 15.4252 221.964 16.2911 223.761 18.0228C225.558 19.7416 226.456 21.89 226.456 24.4681C226.456 26.4213 225.883 28.1465 224.737 29.6439C223.604 31.1283 222.107 32.1635 220.245 32.7494L227.14 43.0228H220.499ZM210.851 20.6205V28.3744H216.964C218.045 28.3744 218.95 28.0098 219.679 27.2806C220.408 26.5385 220.772 25.614 220.772 24.5072C220.772 23.4004 220.408 22.476 219.679 21.7338C218.95 20.9916 218.045 20.6205 216.964 20.6205H210.851ZM236.163 37.8275H249.405V43.0228H230.636V15.4252H249.21V20.6205H236.163V26.5385H247.882V31.7338H236.163V37.8275ZM273.448 43.0228L271.476 37.6713H259.64L257.687 43.0228H251.729L262.354 15.4252H268.878L279.483 43.0228H273.448ZM261.476 32.5736H269.601L265.558 21.4994L261.476 32.5736ZM298.644 15.4252V20.6205H290.675V43.0228H285.167V20.6205H277.159V15.4252H298.644ZM302.472 43.0228V15.4252H307.999V43.0228H302.472ZM332.765 15.4252H338.819L327.843 43.0228H322.179L311.202 15.4252H317.374L325.089 35.6986L332.765 15.4252Z" fill="white"/>
</svg>
