<svg width="84" height="30" viewBox="0 0 84 30" fill="none" xmlns="http://www.w3.org/2000/svg">
	<path d="M2.87021 26.3545L0.17576 3.37823C0.17576 3.37823 0.15943 3.26392 0.12677 3.0353C0.0941101 2.77402 0.1431 2.46375 0.27374 2.10449C0.40438 1.74523 0.71465 1.41863 1.20455 1.12469C1.72711 0.798087 2.54361 0.585797 3.65405 0.487818C4.76449 0.389837 5.61365 0.471487 6.20153 0.732768C6.82207 0.994048 7.26298 1.32065 7.52426 1.71257C7.78554 2.10449 7.93251 2.46375 7.96517 2.79035C8.03049 3.11695 8.06315 3.28025 8.06315 3.28025L8.84699 10.7757L13.4031 2.39843C13.4031 2.39843 13.5337 2.23513 13.795 1.90853C14.0563 1.54927 14.5135 1.239 15.1667 0.977718C15.8199 0.716437 16.7017 0.700107 17.8122 0.928728C18.9553 1.15735 19.7228 1.46762 20.1147 1.85954C20.5066 2.25146 20.6699 2.67604 20.6046 3.13328C20.5719 3.59052 20.425 4.03143 20.1637 4.45601C20.0004 4.71729 19.6901 5.20719 19.2329 5.92571C18.7756 6.64423 18.2367 7.46073 17.6162 8.37521C17.0283 9.28969 16.4568 10.1715 15.9016 11.0207C15.3463 11.8698 14.8728 12.5883 14.4808 13.1762C14.1216 13.7314 13.942 14.0091 13.942 14.0091L22.3682 24.3949C22.3682 24.3949 22.4662 24.5582 22.6622 24.8848C22.8581 25.1788 22.9724 25.538 23.0051 25.9626C23.0378 26.3545 22.8091 26.7138 22.3192 27.0404C21.862 27.367 20.9639 27.563 19.6248 27.6283C18.3184 27.6609 17.2733 27.4813 16.4894 27.0894C15.7056 26.6648 15.134 26.2402 14.7748 25.8156C14.4482 25.3584 14.2849 25.1298 14.2849 25.1298L10.1697 18.957L10.9046 26.4525C10.9046 26.4525 10.9046 26.5832 10.9046 26.8444C10.9046 27.1057 10.8066 27.3997 10.6106 27.7263C10.4473 28.0529 10.0881 28.3468 9.53285 28.6081C8.97763 28.8694 8.16113 29 7.08335 29C6.00557 29 5.17274 28.8694 4.58486 28.6081C3.99698 28.3468 3.5724 28.0365 3.31112 27.6773C3.0825 27.318 2.95186 27.0077 2.9192 26.7465C2.88654 26.4852 2.87021 26.3545 2.87021 26.3545ZM29.4603 8.37521C29.4603 8.37521 29.248 8.37521 28.8234 8.37521C28.3988 8.34255 27.8926 8.24457 27.3047 8.08127C26.7495 7.88531 26.2433 7.54238 25.786 7.05248C25.3288 6.56258 25.0839 5.82773 25.0512 4.84793C25.0185 3.86813 25.1655 3.14961 25.4921 2.69237C25.8187 2.20247 26.227 1.87587 26.7169 1.71257C27.2068 1.51661 27.6803 1.41863 28.1376 1.41863C28.5948 1.38597 28.9214 1.35331 29.1174 1.32065C29.3133 1.28799 29.6399 1.32065 30.0972 1.41863C30.5544 1.48395 31.028 1.66358 31.5179 1.95752C32.0078 2.2188 32.416 2.62705 32.7426 3.18227C33.0692 3.70483 33.1999 4.40702 33.1345 5.28884C33.0692 6.138 32.8406 6.7912 32.4487 7.24844C32.0894 7.67302 31.6648 7.96696 31.1749 8.13026C30.7177 8.2609 30.3095 8.34255 29.9502 8.37521C29.6236 8.37521 29.4603 8.37521 29.4603 8.37521ZM27.7456 25.9626L26.5699 14.7929C26.5699 14.7929 26.4882 14.6296 26.3249 14.303C26.1943 13.9437 26.0963 13.6988 26.031 13.5681C25.9983 13.4702 25.933 13.2742 25.835 12.9803C25.7697 12.6537 25.8514 12.3107 26.08 11.9515C26.3413 11.5922 26.8965 11.3309 27.7456 11.1676C28.6275 11.0043 29.5419 10.9553 30.4891 11.0207C31.4362 11.086 32.2691 11.3799 32.9876 11.9025C33.7388 12.3924 34.196 13.2579 34.3593 14.499C34.4899 15.4134 34.6206 16.5075 34.7512 17.7813C34.8819 19.0224 34.9962 20.2471 35.0942 21.4555C35.2248 22.6313 35.3228 23.6274 35.3881 24.4439C35.4861 25.2278 35.5351 25.6197 35.5351 25.6197C35.5351 25.6197 35.5514 25.7993 35.5841 26.1586C35.6167 26.4852 35.5677 26.8771 35.4371 27.3343C35.3064 27.7589 34.9798 28.1508 34.4573 28.5101C33.9674 28.8367 33.1672 29 32.0568 29C30.9463 29 30.0972 28.853 29.5093 28.5591C28.9214 28.2325 28.4968 27.8732 28.2355 27.4813C28.0069 27.0894 27.86 26.7465 27.7946 26.4525C27.762 26.1259 27.7456 25.9626 27.7456 25.9626ZM41.8831 2.74136C41.8831 2.74136 42.1117 2.74136 42.569 2.74136C43.0262 2.7087 43.5651 2.79035 44.1856 2.98631C44.8062 3.14961 45.3614 3.49254 45.8513 4.0151C46.3738 4.505 46.6841 5.27251 46.7821 6.31763C46.8474 7.13413 46.9781 8.19558 47.174 9.50198C47.37 10.7757 47.5823 12.1148 47.8109 13.5192C48.0395 14.9235 48.2518 16.2463 48.4478 17.4873C48.6764 18.6958 48.856 19.6919 48.9866 20.4757C49.1499 21.2596 49.2316 21.6515 49.2316 21.6515L51.3382 13.8131C51.3382 13.8131 51.4198 13.5845 51.5831 13.1272C51.7464 12.6373 52.0404 12.1638 52.4649 11.7065C52.9222 11.2493 53.5917 11.0207 54.4735 11.0207C55.3553 11.0207 56.0249 11.2003 56.4821 11.5596C56.9394 11.8862 57.266 12.2944 57.4619 12.7843C57.6905 13.2742 57.8702 13.7478 58.0008 14.205C58.0988 14.5316 58.2458 15.0868 58.4417 15.8707C58.6703 16.6219 58.8826 17.422 59.0786 18.2712C59.3072 19.1203 59.5032 19.8389 59.6665 20.4267C59.8298 21.0146 59.9114 21.3086 59.9114 21.3086L60.3523 17.2424L62.4099 2.83934C62.4099 2.83934 62.5079 2.62705 62.7038 2.20247C62.9325 1.74523 63.357 1.30432 63.9776 0.879739C64.6308 0.455159 65.5943 0.291858 66.868 0.389837C68.7949 0.520477 69.9707 0.912398 70.3953 1.5656C70.8525 2.2188 70.9178 3.01897 70.5912 3.96611C70.4279 4.42335 70.183 5.41948 69.8564 6.9545C69.5298 8.45686 69.1542 10.2695 68.7296 12.3924C68.305 14.5153 67.8968 16.7525 67.5049 19.104C67.1129 21.4229 66.77 23.6274 66.4761 25.7177C66.3454 26.7954 66.0515 27.6283 65.5943 28.2162C65.1697 28.7714 64.7124 29.1633 64.2225 29.3919C63.7326 29.6205 63.3081 29.7512 62.9488 29.7838C62.5895 29.8165 62.4099 29.8328 62.4099 29.8328C62.4099 29.8328 62.1976 29.8328 61.773 29.8328C61.3485 29.8655 60.8259 29.8002 60.2054 29.6369C59.6175 29.4736 59.0296 29.1306 58.4417 28.6081C57.8865 28.0855 57.4456 27.269 57.119 26.1586C56.4984 23.9377 55.9596 22.0761 55.5023 20.5737C55.0451 19.0714 54.8165 18.3202 54.8165 18.3202L52.073 26.6485C52.073 26.6485 51.975 26.8444 51.7791 27.2364C51.5831 27.6283 51.1912 28.0202 50.6033 28.4121C50.0481 28.804 49.2153 29 48.1048 29C46.4392 29 45.2797 28.7387 44.6265 28.2162C44.006 27.6609 43.5161 26.7791 43.1568 25.5707C43.0589 25.1461 42.8629 24.3949 42.569 23.3172C42.275 22.2067 41.9484 20.9166 41.5892 19.4469C41.2299 17.9772 40.8543 16.4749 40.4624 14.9399C40.0705 13.3722 39.7112 11.9351 39.3846 10.6287C39.058 9.28969 38.7804 8.21191 38.5518 7.39541C38.3558 6.54625 38.2578 6.12167 38.2578 6.12167C38.2578 6.12167 38.2252 5.9747 38.1599 5.68076C38.0945 5.38682 38.1272 5.04389 38.2578 4.65197C38.3885 4.22739 38.7151 3.83547 39.2376 3.47621C39.7929 3.11695 40.6747 2.872 41.8831 2.74136ZM77.5891 8.37521C77.5891 8.37521 77.3769 8.37521 76.9523 8.37521C76.5277 8.34255 76.0215 8.24457 75.4336 8.08127C74.8784 7.88531 74.3721 7.54238 73.9149 7.05248C73.4577 6.56258 73.2127 5.82773 73.18 4.84793C73.1474 3.86813 73.2944 3.14961 73.621 2.69237C73.9476 2.20247 74.3558 1.87587 74.8457 1.71257C75.3356 1.51661 75.8092 1.41863 76.2664 1.41863C76.7237 1.38597 77.0503 1.35331 77.2462 1.32065C77.4422 1.28799 77.7688 1.32065 78.226 1.41863C78.6833 1.48395 79.1568 1.66358 79.6467 1.95752C80.1366 2.2188 80.5449 2.62705 80.8715 3.18227C81.1981 3.70483 81.3287 4.40702 81.2634 5.28884C81.1981 6.138 80.9695 6.7912 80.5775 7.24844C80.2183 7.67302 79.7937 7.96696 79.3038 8.13026C78.8466 8.2609 78.4383 8.34255 78.079 8.37521C77.7524 8.37521 77.5891 8.37521 77.5891 8.37521ZM75.8745 25.9626L74.6987 14.7929C74.6987 14.7929 74.6171 14.6296 74.4538 14.303C74.3231 13.9437 74.2252 13.6988 74.1598 13.5681C74.1272 13.4702 74.0619 13.2742 73.9639 12.9803C73.8986 12.6537 73.9802 12.3107 74.2088 11.9515C74.4701 11.5922 75.0253 11.3309 75.8745 11.1676C76.7563 11.0043 77.6708 10.9553 78.6179 11.0207C79.5651 11.086 80.3979 11.3799 81.1164 11.9025C81.8676 12.3924 82.3248 13.2579 82.4881 14.499C82.6188 15.4134 82.7494 16.5075 82.8801 17.7813C83.0107 19.0224 83.125 20.2471 83.223 21.4555C83.3536 22.6313 83.4516 23.6274 83.5169 24.4439C83.6149 25.2278 83.6639 25.6197 83.6639 25.6197C83.6639 25.6197 83.6802 25.7993 83.7129 26.1586C83.7456 26.4852 83.6966 26.8771 83.5659 27.3343C83.4353 27.7589 83.1087 28.1508 82.5861 28.5101C82.0962 28.8367 81.2961 29 80.1856 29C79.0752 29 78.226 28.853 77.6381 28.5591C77.0503 28.2325 76.6257 27.8732 76.3644 27.4813C76.1358 27.0894 75.9888 26.7465 75.9235 26.4525C75.8908 26.1259 75.8745 25.9626 75.8745 25.9626Z" fill="white"/>
</svg>
