<svg width="671" height="353" viewBox="0 0 671 353" fill="none" xmlns="http://www.w3.org/2000/svg">
<path d="M290.254 134.541C290.26 169.26 337.969 274.851 337.969 274.851C337.969 274.851 383.299 165.966 383.291 131.938C383.283 97.9093 337.969 9 337.969 9C337.969 9 290.248 99.8219 290.254 134.541Z" stroke="white" stroke-width="17.7039" stroke-linecap="round" stroke-linejoin="round"/>
<path d="M424.722 196.467C401.793 221.022 365.782 331.8 365.782 331.8C365.782 331.8 469.757 289.119 492.229 265.052C514.7 240.984 541.386 143.815 541.386 143.815C541.386 143.815 447.651 171.912 424.722 196.467Z" stroke="white" stroke-width="17.7039" stroke-linecap="round" stroke-linejoin="round"/>
<path d="M186.719 271.253C209.657 295.799 313.139 334.349 313.139 334.349C313.139 334.349 273.269 223.043 250.787 198.987C228.304 174.932 137.535 146.364 137.535 146.364C137.535 146.364 163.782 246.708 186.719 271.253Z" stroke="white" stroke-width="17.7039" stroke-linecap="round" stroke-linejoin="round"/>
<path d="M497.873 421.197C470.404 416.524 389.389 368.076 389.389 368.076C389.389 368.076 477.938 350.173 504.86 354.754C531.782 359.335 599.725 403.821 599.725 403.821C599.725 403.821 525.341 425.869 497.873 421.197Z" stroke="white" stroke-width="17.7039" stroke-linecap="round" stroke-linejoin="round"/>
<path d="M181.173 349.128C207.444 345.932 292.763 370.064 292.763 370.064C292.763 370.064 215.523 412.278 189.774 415.409C164.025 418.54 91.601 394.57 91.601 394.57C91.601 394.57 154.901 352.324 181.173 349.128Z" stroke="white" stroke-width="17.7039" stroke-linecap="round" stroke-linejoin="round"/>
<path d="M94.0588 252.644C113.851 259.1 162.516 311.447 162.516 311.447C162.516 311.447 89.4838 322.305 70.0863 315.976C50.6888 309.647 10.9549 262.043 10.9549 262.043C10.9549 262.043 74.2671 246.188 94.0588 252.644Z" stroke="white" stroke-width="17.7039" stroke-linecap="round" stroke-linejoin="round"/>
<path d="M602.869 308.515C584.026 317.662 515.188 312.769 515.188 312.769C515.188 312.769 563.323 252.977 581.792 244.013C600.261 235.05 659.466 242.697 659.466 242.697C659.466 242.697 621.713 299.368 602.869 308.515Z" stroke="white" stroke-width="17.7039" stroke-linecap="round" stroke-linejoin="round"/>
</svg>
