<svg width="407" height="421" viewBox="0 0 407 421" fill="none" xmlns="http://www.w3.org/2000/svg">
<rect x="1" y="1.21057" width="405" height="419" rx="29.5" fill="url(#paint0_linear_1043_1569)"/>
<rect x="1" y="1.21057" width="405" height="419" rx="29.5" stroke="#292929"/>
<path d="M36.584 338.212C46.8522 325.371 76.3732 300.974 91.7755 297.122C107.178 293.27 121.297 297.122 132.848 288.134C144.4 279.145 144.4 268.873 157.235 266.305C170.07 263.737 184.189 281.713 199.592 276.577C214.994 271.441 223.978 250.897 229.113 225.216C234.247 199.535 233.084 126.211 283.084 126.211C333.084 126.211 343.584 45.2106 343.584 27.7106" stroke="#DBFF00" stroke-width="4.66666"/>
<rect x="222.75" y="192.711" width="16" height="16" rx="8" fill="#93F24D"/>
<rect x="206.75" y="175.711" width="49" height="49" rx="24.5" fill="#6CE57D" fill-opacity="0.15"/>
<rect x="156.5" y="120.711" width="149" height="154" rx="74.5" fill="url(#paint1_radial_1043_1569)" fill-opacity="0.15"/>
<path d="M52.6944 278.292V277.117L57.8772 268.917H58.7295V270.737H58.1536L54.2377 276.933V277.025H61.2172V278.292H52.6944ZM58.2458 280.711V277.935V277.388V268.917H59.6048V280.711H58.2458ZM66.5009 280.872C65.8252 280.872 65.2167 280.737 64.6754 280.469C64.134 280.2 63.7002 279.831 63.3739 279.363C63.0476 278.895 62.8691 278.361 62.8383 277.762H64.2204C64.2742 278.296 64.516 278.737 64.946 279.087C65.3798 279.432 65.8981 279.605 66.5009 279.605C66.9846 279.605 67.4146 279.492 67.7908 279.265C68.1709 279.039 68.4684 278.728 68.6834 278.332C68.9022 277.933 69.0116 277.482 69.0116 276.979C69.0116 276.465 68.8984 276.006 68.6719 275.603C68.4492 275.196 68.1421 274.875 67.7505 274.641C67.3589 274.407 66.9116 274.288 66.4087 274.284C66.0478 274.28 65.6774 274.336 65.2973 274.451C64.9172 274.562 64.6043 274.706 64.3586 274.883L63.0226 274.722L63.7367 268.917H69.8639V270.184H64.9345L64.5199 273.662H64.589C64.8308 273.47 65.1341 273.311 65.4988 273.184C65.8636 273.057 66.2436 272.994 66.6391 272.994C67.3608 272.994 68.0039 273.167 68.5682 273.512C69.1364 273.854 69.5817 274.322 69.9042 274.917C70.2306 275.512 70.3937 276.192 70.3937 276.956C70.3937 277.708 70.2248 278.38 69.887 278.971C69.5529 279.559 69.0923 280.023 68.5049 280.365C67.9175 280.703 67.2495 280.872 66.5009 280.872Z" fill="white" fill-opacity="0.08"/>
<path d="M107.003 280.403C106.236 280.403 105.552 280.272 104.952 280.008C104.355 279.745 103.881 279.379 103.528 278.91C103.179 278.437 102.99 277.889 102.959 277.266H104.423C104.454 277.649 104.586 277.98 104.818 278.259C105.05 278.534 105.354 278.747 105.73 278.898C106.106 279.049 106.522 279.125 106.979 279.125C107.491 279.125 107.944 279.036 108.339 278.858C108.734 278.68 109.044 278.432 109.269 278.114C109.494 277.796 109.606 277.428 109.606 277.01C109.606 276.572 109.497 276.187 109.28 275.854C109.064 275.517 108.746 275.253 108.328 275.063C107.909 274.874 107.398 274.779 106.794 274.779H105.841V273.5H106.794C107.266 273.5 107.681 273.415 108.037 273.245C108.397 273.074 108.678 272.834 108.88 272.524C109.085 272.214 109.188 271.85 109.188 271.432C109.188 271.029 109.098 270.678 108.92 270.38C108.742 270.082 108.49 269.849 108.165 269.683C107.843 269.516 107.464 269.433 107.026 269.433C106.615 269.433 106.228 269.509 105.864 269.66C105.504 269.807 105.209 270.022 104.981 270.305C104.752 270.583 104.628 270.92 104.609 271.316H103.214C103.238 270.692 103.425 270.146 103.778 269.677C104.13 269.204 104.591 268.836 105.161 268.573C105.734 268.31 106.364 268.178 107.049 268.178C107.785 268.178 108.417 268.327 108.943 268.625C109.47 268.92 109.875 269.309 110.158 269.793C110.441 270.277 110.582 270.8 110.582 271.362C110.582 272.032 110.406 272.604 110.053 273.076C109.705 273.549 109.23 273.876 108.63 274.058V274.151C109.381 274.275 109.968 274.595 110.39 275.11C110.813 275.621 111.024 276.255 111.024 277.01C111.024 277.657 110.847 278.238 110.495 278.753C110.146 279.264 109.67 279.667 109.065 279.962C108.461 280.256 107.774 280.403 107.003 280.403ZM116.559 280.403C115.877 280.403 115.263 280.268 114.717 279.997C114.171 279.725 113.733 279.354 113.404 278.881C113.075 278.408 112.894 277.87 112.863 277.266H114.258C114.312 277.804 114.556 278.25 114.99 278.602C115.428 278.951 115.951 279.125 116.559 279.125C117.047 279.125 117.481 279.011 117.86 278.782C118.244 278.554 118.544 278.24 118.761 277.841C118.982 277.438 119.092 276.983 119.092 276.475C119.092 275.956 118.978 275.493 118.749 275.087C118.525 274.676 118.215 274.353 117.82 274.116C117.425 273.88 116.973 273.76 116.466 273.756C116.102 273.752 115.728 273.808 115.344 273.925C114.961 274.037 114.645 274.182 114.397 274.36L113.049 274.198L113.77 268.341H119.952V269.619H114.978L114.56 273.128H114.63C114.874 272.935 115.18 272.774 115.548 272.646C115.916 272.518 116.299 272.454 116.698 272.454C117.427 272.454 118.075 272.629 118.645 272.977C119.218 273.322 119.668 273.795 119.993 274.395C120.322 274.996 120.487 275.681 120.487 276.452C120.487 277.211 120.316 277.889 119.975 278.486C119.638 279.078 119.174 279.547 118.581 279.892C117.988 280.233 117.314 280.403 116.559 280.403Z" fill="white" fill-opacity="0.08"/>
<path d="M153.015 281.241V280.167L157.048 275.752C157.521 275.235 157.911 274.785 158.217 274.403C158.524 274.018 158.75 273.656 158.897 273.318C159.049 272.975 159.124 272.617 159.124 272.244C159.124 271.814 159.021 271.442 158.814 271.128C158.611 270.814 158.333 270.571 157.979 270.4C157.625 270.229 157.227 270.143 156.785 270.143C156.316 270.143 155.906 270.241 155.556 270.436C155.21 270.627 154.942 270.895 154.751 271.241C154.564 271.587 154.471 271.993 154.471 272.458H153.063C153.063 271.742 153.228 271.114 153.558 270.573C153.888 270.032 154.337 269.611 154.906 269.308C155.479 269.006 156.121 268.855 156.833 268.855C157.549 268.855 158.184 269.006 158.736 269.308C159.289 269.611 159.723 270.018 160.037 270.531C160.351 271.044 160.508 271.615 160.508 272.244C160.508 272.693 160.427 273.133 160.264 273.562C160.105 273.988 159.826 274.463 159.428 274.988C159.035 275.509 158.488 276.145 157.788 276.897L155.043 279.833V279.928H160.723V281.241H153.015ZM166.446 281.408C165.746 281.408 165.115 281.268 164.554 280.99C163.993 280.712 163.544 280.33 163.206 279.845C162.868 279.359 162.683 278.806 162.651 278.186H164.083C164.139 278.739 164.389 279.196 164.835 279.558C165.284 279.916 165.821 280.095 166.446 280.095C166.947 280.095 167.392 279.978 167.782 279.743C168.176 279.508 168.484 279.186 168.707 278.777C168.933 278.363 169.047 277.896 169.047 277.375C169.047 276.842 168.929 276.366 168.695 275.949C168.464 275.527 168.146 275.195 167.74 274.952C167.335 274.71 166.871 274.586 166.35 274.582C165.976 274.578 165.592 274.636 165.199 274.755C164.805 274.871 164.481 275.02 164.226 275.203L162.842 275.036L163.582 269.022H169.93V270.334H164.823L164.393 273.938H164.465C164.715 273.739 165.03 273.574 165.407 273.443C165.785 273.312 166.179 273.246 166.589 273.246C167.336 273.246 168.003 273.425 168.587 273.783C169.176 274.137 169.637 274.622 169.972 275.239C170.31 275.855 170.479 276.559 170.479 277.351C170.479 278.13 170.304 278.826 169.954 279.439C169.608 280.047 169.13 280.529 168.522 280.883C167.913 281.233 167.221 281.408 166.446 281.408Z" fill="white" fill-opacity="0.08"/>
<path d="M210.199 267.641V281.241H208.552V269.367H208.472L205.152 271.572V269.898L208.552 267.641H210.199ZM217.8 281.427C217.021 281.427 216.319 281.272 215.695 280.962C215.071 280.652 214.571 280.227 214.194 279.687C213.818 279.147 213.612 278.531 213.577 277.841H215.17C215.232 278.456 215.511 278.965 216.007 279.368C216.507 279.766 217.105 279.966 217.8 279.966C218.358 279.966 218.854 279.835 219.288 279.574C219.726 279.313 220.069 278.954 220.317 278.498C220.569 278.038 220.695 277.517 220.695 276.937C220.695 276.344 220.565 275.815 220.304 275.35C220.047 274.881 219.693 274.511 219.241 274.241C218.79 273.971 218.274 273.834 217.694 273.83C217.278 273.825 216.851 273.889 216.412 274.022C215.974 274.151 215.613 274.317 215.33 274.52L213.789 274.334L214.613 267.641H221.678V269.102H215.994L215.516 273.112H215.595C215.874 272.891 216.224 272.707 216.645 272.561C217.065 272.415 217.504 272.342 217.96 272.342C218.792 272.342 219.533 272.541 220.184 272.94C220.839 273.334 221.353 273.874 221.725 274.56C222.101 275.246 222.289 276.03 222.289 276.911C222.289 277.779 222.094 278.553 221.705 279.235C221.32 279.912 220.788 280.448 220.111 280.842C219.434 281.232 218.663 281.427 217.8 281.427Z" fill="white" fill-opacity="0.08"/>
<path d="M265.408 281.427C264.629 281.427 263.927 281.272 263.303 280.962C262.679 280.652 262.178 280.227 261.802 279.687C261.426 279.147 261.22 278.531 261.184 277.841H262.778C262.84 278.456 263.119 278.965 263.615 279.368C264.115 279.766 264.713 279.966 265.408 279.966C265.966 279.966 266.461 279.835 266.895 279.574C267.334 279.313 267.677 278.954 267.925 278.498C268.177 278.038 268.303 277.517 268.303 276.937C268.303 276.344 268.173 275.815 267.911 275.35C267.655 274.881 267.3 274.511 266.849 274.241C266.397 273.971 265.882 273.834 265.302 273.83C264.885 273.825 264.458 273.889 264.02 274.022C263.582 274.151 263.221 274.317 262.938 274.52L261.397 274.334L262.22 267.641H269.286V269.102H263.602L263.123 273.112H263.203C263.482 272.891 263.832 272.707 264.252 272.561C264.673 272.415 265.111 272.342 265.567 272.342C266.399 272.342 267.141 272.541 267.792 272.94C268.447 273.334 268.961 273.874 269.332 274.56C269.709 275.246 269.897 276.03 269.897 276.911C269.897 277.779 269.702 278.553 269.313 279.235C268.927 279.912 268.396 280.448 267.719 280.842C267.041 281.232 266.271 281.427 265.408 281.427Z" fill="white" fill-opacity="0.08"/>
<path d="M317.594 281.427C316.593 281.427 315.741 281.154 315.037 280.61C314.333 280.061 313.795 279.266 313.423 278.226C313.052 277.181 312.866 275.919 312.866 274.441C312.866 272.971 313.052 271.716 313.423 270.675C313.8 269.631 314.34 268.834 315.044 268.285C315.752 267.731 316.602 267.455 317.594 267.455C318.585 267.455 319.433 267.731 320.137 268.285C320.845 268.834 321.386 269.631 321.757 270.675C322.134 271.716 322.322 272.971 322.322 274.441C322.322 275.919 322.136 277.181 321.764 278.226C321.392 279.266 320.854 280.061 320.15 280.61C319.446 281.154 318.594 281.427 317.594 281.427ZM317.594 279.966C318.585 279.966 319.356 279.487 319.905 278.531C320.454 277.575 320.728 276.211 320.728 274.441C320.728 273.263 320.602 272.26 320.35 271.432C320.102 270.605 319.743 269.974 319.274 269.54C318.809 269.106 318.249 268.889 317.594 268.889C316.611 268.889 315.843 269.374 315.289 270.343C314.736 271.308 314.459 272.674 314.459 274.441C314.459 275.618 314.583 276.619 314.831 277.442C315.079 278.266 315.436 278.892 315.9 279.321C316.37 279.751 316.934 279.966 317.594 279.966Z" fill="white" fill-opacity="0.08"/>
<path d="M369.137 274.181V275.357H364.349V274.181H369.137ZM374.194 280.39C373.567 280.39 373.003 280.266 372.5 280.016C371.998 279.767 371.596 279.425 371.293 278.99C370.99 278.556 370.824 278.06 370.796 277.505H372.078C372.128 278 372.353 278.41 372.752 278.734C373.154 279.054 373.635 279.215 374.194 279.215C374.643 279.215 375.042 279.11 375.391 278.899C375.744 278.689 376.02 278.401 376.22 278.034C376.423 277.663 376.524 277.245 376.524 276.778C376.524 276.301 376.419 275.875 376.209 275.501C376.002 275.123 375.717 274.826 375.354 274.608C374.991 274.391 374.576 274.281 374.109 274.277C373.774 274.274 373.43 274.325 373.078 274.432C372.725 274.535 372.435 274.669 372.207 274.833L370.967 274.683L371.629 269.297H377.315V270.472H372.741L372.356 273.7H372.42C372.645 273.522 372.926 273.374 373.265 273.256C373.603 273.139 373.956 273.08 374.323 273.08C374.992 273.08 375.589 273.24 376.113 273.561C376.64 273.878 377.053 274.313 377.352 274.865C377.655 275.417 377.807 276.048 377.807 276.757C377.807 277.455 377.65 278.078 377.336 278.627C377.027 279.172 376.599 279.603 376.054 279.92C375.509 280.233 374.889 280.39 374.194 280.39Z" fill="white" fill-opacity="0.08"/>
<defs>
<linearGradient id="paint0_linear_1043_1569" x1="203.5" y1="0.710571" x2="203.5" y2="420.711" gradientUnits="userSpaceOnUse">
<stop stop-color="#191612"/>
<stop offset="1" stop-color="#0C0B0A"/>
</linearGradient>
<radialGradient id="paint1_radial_1043_1569" cx="0" cy="0" r="1" gradientUnits="userSpaceOnUse" gradientTransform="translate(231 197.711) rotate(90.372) scale(77.0016 74.5016)">
<stop stop-color="#DBFF00"/>
<stop offset="1" stop-color="#3C7F45" stop-opacity="0"/>
</radialGradient>
</defs>
</svg>
