<svg width="403" height="405" viewBox="0 0 403 405" fill="none" xmlns="http://www.w3.org/2000/svg">
<rect x="0.456055" y="0.00488281" width="402.089" height="124.33" rx="39.6798" fill="#0F0D0B"/>
<rect x="1.11738" y="0.666091" width="400.766" height="123.007" rx="39.0185" stroke="#292929" stroke-width="1.32266"/>
<path d="M54.5328 24.3127H115.138C130.848 24.3127 143.584 37.0484 143.584 52.7586V77.1817C143.584 92.8919 130.848 105.628 115.138 105.628H54.5328C38.8226 105.628 26.0869 92.8919 26.0869 77.1817V52.7586C26.0869 37.0484 38.8226 24.3127 54.5328 24.3127Z" fill="black" fill-opacity="0.89" stroke="url(#paint0_linear_1033_1735)"/>
<rect x="160.084" y="25.1355" width="10.5813" height="10.5813" rx="5.29064" fill="#DDFF00"/>
<path d="M176.722 34.8127V25.1934H180.245C180.927 25.1934 181.492 25.3061 181.94 25.5316C182.388 25.7539 182.723 26.0561 182.945 26.4381C183.168 26.817 183.279 27.2444 183.279 27.7204C183.279 28.1212 183.205 28.4593 183.058 28.7349C182.911 29.0073 182.714 29.2265 182.466 29.3925C182.222 29.5553 181.953 29.6743 181.658 29.7494V29.8434C181.978 29.859 182.289 29.9624 182.593 30.1534C182.9 30.3413 183.154 30.609 183.354 30.9566C183.554 31.3041 183.655 31.7269 183.655 32.2247C183.655 32.7163 183.539 33.1579 183.307 33.5493C183.078 33.9375 182.725 34.246 182.245 34.4746C181.766 34.7 181.154 34.8127 180.409 34.8127H176.722ZM178.173 33.5681H180.268C180.963 33.5681 181.461 33.4334 181.762 33.1641C182.062 32.8948 182.213 32.5582 182.213 32.1543C182.213 31.8505 182.136 31.5719 181.982 31.3182C181.829 31.0646 181.61 30.8626 181.325 30.7123C181.043 30.562 180.708 30.4869 180.32 30.4869H178.173V33.5681ZM178.173 29.3549H180.118C180.443 29.3549 180.736 29.2923 180.996 29.167C181.259 29.0418 181.467 28.8664 181.621 28.641C181.777 28.4124 181.856 28.1431 181.856 27.8331C181.856 27.4354 181.716 27.1019 181.438 26.8326C181.159 26.5633 180.731 26.4287 180.155 26.4287H178.173V29.3549ZM186.057 34.8127V27.5982H187.414V28.7443H187.489C187.621 28.356 187.853 28.0507 188.185 27.8284C188.52 27.6029 188.898 27.4902 189.321 27.4902C189.409 27.4902 189.512 27.4933 189.631 27.4996C189.753 27.5059 189.849 27.5137 189.918 27.5231V28.8664C189.861 28.8508 189.761 28.8335 189.617 28.8147C189.473 28.7928 189.329 28.7819 189.185 28.7819C188.853 28.7819 188.557 28.8523 188.297 28.9932C188.041 29.131 187.837 29.3236 187.687 29.571C187.536 29.8152 187.461 30.0939 187.461 30.407V34.8127H186.057ZM193.962 34.9724C193.504 34.9724 193.091 34.8879 192.722 34.7188C192.352 34.5466 192.059 34.2976 191.843 33.972C191.63 33.6463 191.524 33.2471 191.524 32.7743C191.524 32.3672 191.602 32.0322 191.759 31.7691C191.915 31.5061 192.127 31.2979 192.393 31.1444C192.659 30.991 192.956 30.8751 193.285 30.7969C193.614 30.7186 193.949 30.6591 194.29 30.6184C194.723 30.5683 195.073 30.5276 195.343 30.4963C195.612 30.4618 195.808 30.407 195.93 30.3319C196.052 30.2567 196.113 30.1346 196.113 29.9655V29.9326C196.113 29.5224 195.997 29.2046 195.765 28.9791C195.537 28.7537 195.195 28.641 194.741 28.641C194.268 28.641 193.896 28.7459 193.623 28.9557C193.354 29.1623 193.168 29.3925 193.065 29.6461L191.745 29.3455C191.901 28.9071 192.13 28.5533 192.43 28.284C192.734 28.0116 193.083 27.8143 193.478 27.6922C193.872 27.5669 194.287 27.5043 194.723 27.5043C195.011 27.5043 195.316 27.5387 195.638 27.6076C195.964 27.6734 196.268 27.7955 196.55 27.974C196.835 28.1525 197.068 28.4077 197.249 28.7396C197.431 29.0684 197.522 29.4958 197.522 30.0219V34.8127H196.15V33.8264H196.094C196.003 34.008 195.867 34.1865 195.685 34.3618C195.504 34.5372 195.27 34.6828 194.986 34.7987C194.701 34.9145 194.359 34.9724 193.962 34.9724ZM194.267 33.8452C194.655 33.8452 194.987 33.7685 195.263 33.615C195.541 33.4616 195.753 33.2612 195.897 33.0138C196.044 32.7633 196.118 32.4956 196.118 32.2106V31.2806C196.067 31.3307 195.97 31.3777 195.826 31.4215C195.685 31.4623 195.524 31.4983 195.343 31.5296C195.161 31.5578 194.984 31.5844 194.812 31.6094C194.64 31.6313 194.496 31.6501 194.38 31.6658C194.107 31.7002 193.858 31.7582 193.633 31.8396C193.411 31.921 193.232 32.0384 193.097 32.1918C192.966 32.3422 192.9 32.5426 192.9 32.7931C192.9 33.1406 193.028 33.4037 193.285 33.5821C193.542 33.7575 193.869 33.8452 194.267 33.8452ZM201.59 30.5291V34.8127H200.186V27.5982H201.534V28.7725H201.623C201.789 28.3905 202.049 28.0836 202.403 27.8519C202.76 27.6202 203.209 27.5043 203.751 27.5043C204.243 27.5043 204.673 27.6076 205.043 27.8143C205.412 28.0178 205.699 28.3216 205.902 28.7255C206.106 29.1294 206.208 29.6289 206.208 30.2238V34.8127H204.803V30.3929C204.803 29.87 204.667 29.4614 204.395 29.167C204.122 28.8695 203.748 28.7208 203.272 28.7208C202.946 28.7208 202.657 28.7913 202.403 28.9322C202.153 29.0731 201.954 29.2797 201.807 29.5522C201.662 29.8215 201.59 30.1471 201.59 30.5291ZM211.585 34.9537C211.003 34.9537 210.483 34.8049 210.026 34.5074C209.572 34.2068 209.215 33.7794 208.955 33.2252C208.698 32.6678 208.57 31.9993 208.57 31.2196C208.57 30.4399 208.7 29.7729 208.96 29.2187C209.223 28.6644 209.583 28.2402 210.04 27.9458C210.497 27.6515 211.015 27.5043 211.595 27.5043C212.043 27.5043 212.403 27.5794 212.675 27.7297C212.951 27.8769 213.164 28.0491 213.314 28.2464C213.467 28.4437 213.586 28.6175 213.671 28.7678H213.755V25.1934H215.16V34.8127H213.788V33.6902H213.671C213.586 33.8436 213.464 34.019 213.304 34.2162C213.148 34.4135 212.932 34.5857 212.656 34.7329C212.381 34.8801 212.024 34.9537 211.585 34.9537ZM211.895 33.7559C212.299 33.7559 212.641 33.6495 212.919 33.4365C213.201 33.2205 213.414 32.9214 213.558 32.5394C213.705 32.1574 213.779 31.7128 213.779 31.2055C213.779 30.7045 213.707 30.2661 213.563 29.8903C213.419 29.5146 213.207 29.2218 212.929 29.012C212.65 28.8022 212.306 28.6973 211.895 28.6973C211.473 28.6973 211.12 28.8069 210.839 29.0261C210.557 29.2453 210.344 29.5443 210.2 29.9232C210.059 30.3021 209.988 30.7295 209.988 31.2055C209.988 31.6877 210.06 32.1214 210.204 32.5065C210.348 32.8917 210.561 33.197 210.843 33.4224C211.128 33.6448 211.479 33.7559 211.895 33.7559Z" fill="#DDFF00"/>
<path d="M174.836 54.4353C174.639 53.8325 174.38 53.2924 174.058 52.815C173.741 52.3316 173.362 51.9199 172.921 51.5797C172.485 51.2395 171.99 50.9799 171.435 50.8009C170.88 50.6219 170.271 50.5323 169.609 50.5323C168.522 50.5323 167.535 50.8128 166.646 51.3738C165.756 51.9348 165.049 52.7613 164.524 53.8534C163.999 54.9455 163.736 56.2853 163.736 57.8727C163.736 59.4602 164.002 60.8 164.533 61.8921C165.064 62.9842 165.783 63.8107 166.69 64.3717C167.597 64.9327 168.618 65.2132 169.752 65.2132C170.802 65.2132 171.727 64.9894 172.527 64.5418C173.333 64.0882 173.959 63.4497 174.407 62.6261C174.86 61.7966 175.087 60.8208 175.087 59.6989L175.767 59.8421H170.253V57.8727H177.235V59.8421C177.235 61.352 176.913 62.6649 176.269 63.7809C175.63 64.8969 174.747 65.7622 173.619 66.3769C172.497 66.9856 171.208 67.29 169.752 67.29C168.129 67.29 166.702 66.908 165.473 66.1441C164.25 65.3803 163.295 64.2941 162.608 62.8857C161.928 61.4773 161.588 59.8063 161.588 57.8727C161.588 56.4226 161.782 55.1186 162.17 53.9608C162.564 52.7971 163.119 51.8065 163.835 50.9889C164.551 50.1713 165.398 49.5447 166.377 49.109C167.356 48.6734 168.433 48.4555 169.609 48.4555C170.575 48.4555 171.477 48.6017 172.312 48.8942C173.153 49.1806 173.902 49.5894 174.559 50.1206C175.221 50.6457 175.773 51.2753 176.215 52.0094C176.657 52.7374 176.961 53.5461 177.128 54.4353H174.836ZM189.145 61.4176V53.2895H191.258V67.0393H189.145V64.7119H189.002C188.68 65.4101 188.179 66.0039 187.498 66.4933C186.818 66.9766 185.959 67.2183 184.92 67.2183C184.061 67.2183 183.297 67.0304 182.629 66.6544C181.96 66.2724 181.435 65.6995 181.053 64.9357C180.671 64.1658 180.48 63.196 180.48 62.0263V53.2895H182.593V61.8831C182.593 62.8857 182.873 63.6854 183.434 64.2822C184.001 64.879 184.723 65.1773 185.601 65.1773C186.126 65.1773 186.66 65.0431 187.203 64.7745C187.752 64.506 188.211 64.0942 188.581 63.5392C188.957 62.9842 189.145 62.277 189.145 61.4176ZM194.856 67.0393V53.2895H196.969V67.0393H194.856ZM195.93 50.9978C195.519 50.9978 195.164 50.8576 194.865 50.5771C194.573 50.2966 194.427 49.9594 194.427 49.5656C194.427 49.1717 194.573 48.8345 194.865 48.554C195.164 48.2735 195.519 48.1333 195.93 48.1333C196.342 48.1333 196.694 48.2735 196.987 48.554C197.285 48.8345 197.434 49.1717 197.434 49.5656C197.434 49.9594 197.285 50.2966 196.987 50.5771C196.694 50.8576 196.342 50.9978 195.93 50.9978ZM205.759 67.3258C204.613 67.3258 203.602 67.0363 202.724 66.4574C201.847 65.8726 201.161 65.049 200.666 63.9868C200.17 62.9185 199.923 61.6563 199.923 60.2002C199.923 58.756 200.17 57.5027 200.666 56.4405C201.161 55.3782 201.85 54.5576 202.733 53.9787C203.617 53.3999 204.637 53.1104 205.795 53.1104C206.69 53.1104 207.397 53.2596 207.916 53.558C208.442 53.8504 208.841 54.1846 209.116 54.5606C209.396 54.9306 209.614 55.235 209.769 55.4737H209.948V48.7062H212.061V67.0393H210.02V64.9267H209.769C209.614 65.1773 209.393 65.4936 209.107 65.8756C208.821 66.2516 208.412 66.5887 207.881 66.8871C207.349 67.1796 206.642 67.3258 205.759 67.3258ZM206.046 65.428C206.893 65.428 207.609 65.2072 208.194 64.7656C208.779 64.318 209.223 63.7003 209.528 62.9126C209.832 62.1188 209.984 61.2028 209.984 60.1644C209.984 59.1379 209.835 58.2398 209.537 57.4699C209.238 56.6941 208.797 56.0914 208.212 55.6617C207.627 55.226 206.905 55.0082 206.046 55.0082C205.15 55.0082 204.404 55.238 203.808 55.6975C203.217 56.151 202.772 56.7687 202.474 57.5505C202.181 58.3263 202.035 59.1976 202.035 60.1644C202.035 61.1431 202.184 62.0323 202.483 62.832C202.787 63.6257 203.235 64.2583 203.825 64.7298C204.422 65.1953 205.162 65.428 206.046 65.428ZM221.717 67.3258C220.393 67.3258 219.25 67.0333 218.289 66.4485C217.334 65.8577 216.597 65.0341 216.078 63.9778C215.565 62.9155 215.308 61.6802 215.308 60.2718C215.308 58.8634 215.565 57.6221 216.078 56.5479C216.597 55.4677 217.319 54.6263 218.244 54.0235C219.175 53.4148 220.261 53.1104 221.503 53.1104C222.219 53.1104 222.926 53.2298 223.624 53.4685C224.322 53.7072 224.958 54.0951 225.531 54.6322C226.104 55.1634 226.56 55.8676 226.9 56.7448C227.241 57.6221 227.411 58.7023 227.411 59.9854V60.8805H216.812V59.0544H225.262C225.262 58.2786 225.107 57.5863 224.797 56.9776C224.492 56.3689 224.057 55.8884 223.49 55.5363C222.929 55.1842 222.266 55.0082 221.503 55.0082C220.661 55.0082 219.933 55.2171 219.318 55.6348C218.71 56.0466 218.241 56.5837 217.913 57.2461C217.585 57.9086 217.421 58.6187 217.421 59.3766V60.5941C217.421 61.6325 217.6 62.5127 217.958 63.2348C218.322 63.951 218.826 64.497 219.471 64.873C220.115 65.243 220.864 65.428 221.717 65.428C222.272 65.428 222.774 65.3504 223.221 65.1953C223.675 65.0341 224.066 64.7954 224.394 64.4791C224.722 64.1569 224.976 63.757 225.155 63.2796L227.196 63.8525C226.981 64.5448 226.62 65.1535 226.113 65.6786C225.605 66.1978 224.979 66.6037 224.233 66.8961C223.487 67.1825 222.648 67.3258 221.717 67.3258ZM232.466 48.7062V67.0393H230.353V48.7062H232.466ZM236.064 67.0393V53.2895H238.177V67.0393H236.064ZM237.138 50.9978C236.726 50.9978 236.371 50.8576 236.073 50.5771C235.781 50.2966 235.634 49.9594 235.634 49.5656C235.634 49.1717 235.781 48.8345 236.073 48.554C236.371 48.2735 236.726 48.1333 237.138 48.1333C237.55 48.1333 237.902 48.2735 238.195 48.554C238.493 48.8345 238.642 49.1717 238.642 49.5656C238.642 49.9594 238.493 50.2966 238.195 50.5771C237.902 50.8576 237.55 50.9978 237.138 50.9978ZM243.887 58.7679V67.0393H241.775V53.2895H243.816V55.4379H243.995C244.317 54.7396 244.807 54.1787 245.463 53.755C246.119 53.3253 246.967 53.1104 248.005 53.1104C248.936 53.1104 249.751 53.3014 250.449 53.6833C251.147 54.0593 251.69 54.6322 252.078 55.4021C252.466 56.166 252.66 57.1327 252.66 58.3024V67.0393H250.548V58.4457C250.548 57.3655 250.267 56.524 249.706 55.9213C249.145 55.3126 248.375 55.0082 247.397 55.0082C246.722 55.0082 246.119 55.1544 245.588 55.4468C245.063 55.7393 244.648 56.166 244.344 56.7269C244.04 57.2879 243.887 57.9682 243.887 58.7679ZM262.014 67.3258C260.69 67.3258 259.547 67.0333 258.586 66.4485C257.631 65.8577 256.894 65.0341 256.375 63.9778C255.862 62.9155 255.605 61.6802 255.605 60.2718C255.605 58.8634 255.862 57.6221 256.375 56.5479C256.894 55.4677 257.616 54.6263 258.541 54.0235C259.472 53.4148 260.558 53.1104 261.8 53.1104C262.516 53.1104 263.223 53.2298 263.921 53.4685C264.619 53.7072 265.255 54.0951 265.828 54.6322C266.401 55.1634 266.857 55.8676 267.197 56.7448C267.538 57.6221 267.708 58.7023 267.708 59.9854V60.8805H257.109V59.0544H265.559C265.559 58.2786 265.404 57.5863 265.094 56.9776C264.789 56.3689 264.354 55.8884 263.787 55.5363C263.226 55.1842 262.563 55.0082 261.8 55.0082C260.958 55.0082 260.23 55.2171 259.615 55.6348C259.007 56.0466 258.538 56.5837 258.21 57.2461C257.882 57.9086 257.718 58.6187 257.718 59.3766V60.5941C257.718 61.6325 257.897 62.5127 258.255 63.2348C258.619 63.951 259.123 64.497 259.767 64.873C260.412 65.243 261.161 65.428 262.014 65.428C262.569 65.428 263.071 65.3504 263.518 65.1953C263.972 65.0341 264.363 64.7954 264.691 64.4791C265.019 64.1569 265.273 63.757 265.452 63.2796L267.493 63.8525C267.278 64.5448 266.917 65.1535 266.41 65.6786C265.902 66.1978 265.276 66.6037 264.53 66.8961C263.784 67.1825 262.945 67.3258 262.014 67.3258ZM280.39 56.3689L278.492 56.906C278.373 56.5897 278.196 56.2823 277.964 55.9839C277.737 55.6796 277.427 55.4289 277.033 55.232C276.639 55.0351 276.135 54.9366 275.52 54.9366C274.678 54.9366 273.977 55.1305 273.416 55.5184C272.861 55.9004 272.584 56.3868 272.584 56.9776C272.584 57.5027 272.775 57.9175 273.157 58.2219C273.539 58.5262 274.135 58.7799 274.947 58.9828L276.988 59.4841C278.217 59.7824 279.133 60.239 279.736 60.8537C280.339 61.4624 280.64 62.2472 280.64 63.208C280.64 63.9957 280.414 64.6999 279.96 65.3206C279.512 65.9412 278.886 66.4306 278.08 66.7887C277.274 67.1467 276.338 67.3258 275.269 67.3258C273.867 67.3258 272.706 67.0214 271.787 66.4127C270.868 65.804 270.286 64.9148 270.041 63.7451L272.047 63.2438C272.238 63.9838 272.599 64.5388 273.13 64.9088C273.667 65.2788 274.368 65.4638 275.233 65.4638C276.218 65.4638 277 65.2549 277.579 64.8372C278.164 64.4135 278.456 63.9062 278.456 63.3154C278.456 62.838 278.289 62.4381 277.955 62.1159C277.621 61.7876 277.107 61.543 276.415 61.3818L274.123 60.8447C272.864 60.5463 271.939 60.0838 271.348 59.4572C270.764 58.8246 270.471 58.0339 270.471 57.085C270.471 56.3092 270.689 55.6229 271.125 55.0261C271.566 54.4293 272.166 53.9608 272.924 53.6207C273.688 53.2805 274.553 53.1104 275.52 53.1104C276.881 53.1104 277.949 53.4088 278.725 54.0056C279.506 54.6024 280.061 55.3901 280.39 56.3689Z" fill="white"/>
<path d="M162.595 83.73L166.138 94.0984H166.281L169.825 83.73H171.901L167.32 96.4606H165.1L160.519 83.73H162.595ZM176.099 96.6533C175.204 96.6533 174.423 96.4481 173.756 96.0379C173.088 95.6276 172.57 95.0537 172.202 94.316C171.833 93.5784 171.648 92.7164 171.648 91.7301C171.648 90.7397 171.833 89.8736 172.202 89.1318C172.57 88.39 173.088 87.814 173.756 87.4037C174.423 86.9934 175.204 86.7883 176.099 86.7883C176.994 86.7883 177.775 86.9934 178.443 87.4037C179.11 87.814 179.628 88.39 179.997 89.1318C180.365 89.8736 180.55 90.7397 180.55 91.7301C180.55 92.7164 180.365 93.5784 179.997 94.316C179.628 95.0537 179.11 95.6276 178.443 96.0379C177.775 96.4481 176.994 96.6533 176.099 96.6533ZM176.105 95.093C176.685 95.093 177.166 94.9397 177.547 94.633C177.929 94.3264 178.21 93.9182 178.393 93.4085C178.579 92.8987 178.673 92.3372 178.673 91.7239C178.673 91.1147 178.579 90.5553 178.393 90.0455C178.21 89.5317 177.929 89.1193 177.547 88.8085C177.166 88.4977 176.685 88.3423 176.105 88.3423C175.521 88.3423 175.036 88.4977 174.651 88.8085C174.269 89.1193 173.986 89.5317 173.799 90.0455C173.617 90.5553 173.526 91.1147 173.526 91.7239C173.526 92.3372 173.617 92.8987 173.799 93.4085C173.986 93.9182 174.269 94.3264 174.651 94.633C175.036 94.9397 175.521 95.093 176.105 95.093ZM182.069 96.4606V86.9126H183.928V96.4606H182.069ZM183.008 85.4394C182.684 85.4394 182.407 85.3317 182.175 85.1162C181.947 84.8965 181.833 84.6354 181.833 84.3329C181.833 84.0263 181.947 83.7652 182.175 83.5497C182.407 83.3301 182.684 83.2202 183.008 83.2202C183.331 83.2202 183.606 83.3301 183.834 83.5497C184.066 83.7652 184.182 84.0263 184.182 84.3329C184.182 84.6354 184.066 84.8965 183.834 85.1162C183.606 85.3317 183.331 85.4394 183.008 85.4394ZM189.894 96.6533C188.97 96.6533 188.174 96.444 187.507 96.0254C186.844 95.6027 186.335 95.0205 185.978 94.2787C185.622 93.5369 185.444 92.6874 185.444 91.7301C185.444 90.7604 185.626 89.9046 185.991 89.1629C186.355 88.4169 186.869 87.8347 187.532 87.4161C188.195 86.9976 188.976 86.7883 189.876 86.7883C190.601 86.7883 191.247 86.923 191.815 87.1923C192.383 87.4576 192.841 87.8305 193.189 88.3112C193.541 88.792 193.75 89.3535 193.817 89.9958H192.008C191.908 89.5483 191.68 89.1629 191.324 88.8396C190.972 88.5164 190.499 88.3548 189.907 88.3548C189.389 88.3548 188.935 88.4915 188.545 88.765C188.16 89.0344 187.86 89.4198 187.644 89.9212C187.429 90.4185 187.321 91.007 187.321 91.6866C187.321 92.3828 187.426 92.9837 187.638 93.4893C187.849 93.9948 188.148 94.3865 188.533 94.6641C188.922 94.9418 189.38 95.0806 189.907 95.0806C190.259 95.0806 190.578 95.0164 190.864 94.8879C191.154 94.7553 191.397 94.5667 191.591 94.3222C191.79 94.0777 191.929 93.7835 192.008 93.4395H193.817C193.75 94.057 193.549 94.6082 193.214 95.093C192.878 95.5779 192.428 95.9591 191.865 96.2368C191.305 96.5144 190.649 96.6533 189.894 96.6533ZM199.364 96.6533C198.423 96.6533 197.613 96.4523 196.933 96.0503C196.258 95.6442 195.736 95.0744 195.367 94.3409C195.002 93.6032 194.82 92.7392 194.82 91.7488C194.82 90.7708 195.002 89.9088 195.367 89.1629C195.736 88.4169 196.25 87.8347 196.908 87.4161C197.571 86.9976 198.346 86.7883 199.233 86.7883C199.772 86.7883 200.294 86.8774 200.8 87.0556C201.305 87.2338 201.759 87.5135 202.161 87.8948C202.563 88.276 202.88 88.7712 203.112 89.3804C203.344 89.9855 203.46 90.721 203.46 91.5871V92.246H195.87V90.8536H201.639C201.639 90.3646 201.539 89.9316 201.341 89.5545C201.142 89.1732 200.862 88.8728 200.501 88.6531C200.145 88.4335 199.726 88.3237 199.246 88.3237C198.724 88.3237 198.268 88.4521 197.878 88.7091C197.493 88.9619 197.194 89.2934 196.983 89.7037C196.776 90.1098 196.672 90.5511 196.672 91.0277V92.1155C196.672 92.7537 196.784 93.2966 197.008 93.7441C197.236 94.1917 197.553 94.5336 197.959 94.7698C198.365 95.0019 198.84 95.1179 199.382 95.1179C199.735 95.1179 200.056 95.0682 200.346 94.9687C200.636 94.8651 200.887 94.7118 201.098 94.5087C201.309 94.3057 201.471 94.0549 201.583 93.7566L203.342 94.0736C203.201 94.5916 202.948 95.0454 202.584 95.4349C202.223 95.8203 201.769 96.1208 201.222 96.3362C200.68 96.5476 200.06 96.6533 199.364 96.6533ZM211.823 96.6719C211.218 96.6719 210.67 96.56 210.181 96.3362C209.692 96.1083 209.305 95.7789 209.019 95.3479C208.737 94.9169 208.596 94.3885 208.596 93.7628C208.596 93.224 208.7 92.7806 208.907 92.4325C209.114 92.0844 209.394 91.8088 209.746 91.6058C210.099 91.4027 210.492 91.2494 210.927 91.1458C211.363 91.0422 211.806 90.9635 212.258 90.9096C212.83 90.8433 213.294 90.7894 213.65 90.748C214.006 90.7024 214.265 90.6299 214.427 90.5304C214.589 90.4309 214.67 90.2693 214.67 90.0455V90.002C214.67 89.4592 214.516 89.0385 214.21 88.7402C213.907 88.4418 213.455 88.2926 212.854 88.2926C212.229 88.2926 211.736 88.4314 211.375 88.7091C211.019 88.9826 210.772 89.2872 210.635 89.6228L208.889 89.225C209.096 88.6448 209.398 88.1766 209.796 87.8202C210.198 87.4596 210.66 87.1986 211.182 87.0369C211.704 86.8712 212.254 86.7883 212.83 86.7883C213.211 86.7883 213.615 86.8339 214.042 86.9251C214.473 87.0121 214.875 87.1737 215.248 87.4099C215.625 87.6461 215.933 87.9839 216.174 88.4231C216.414 88.8583 216.534 89.4239 216.534 90.1201V96.4606H214.719V95.1552H214.645C214.524 95.3955 214.344 95.6318 214.104 95.8638C213.864 96.0959 213.555 96.2886 213.178 96.4419C212.801 96.5953 212.349 96.6719 211.823 96.6719ZM212.227 95.1801C212.74 95.1801 213.18 95.0785 213.544 94.8755C213.913 94.6724 214.193 94.4072 214.384 94.0798C214.578 93.7483 214.676 93.394 214.676 93.0168V91.7861C214.609 91.8524 214.481 91.9145 214.29 91.9725C214.104 92.0264 213.89 92.0741 213.65 92.1155C213.41 92.1528 213.176 92.188 212.948 92.2212C212.72 92.2502 212.529 92.2751 212.376 92.2958C212.015 92.3414 211.686 92.418 211.387 92.5258C211.093 92.6335 210.857 92.7889 210.679 92.992C210.505 93.1909 210.418 93.4561 210.418 93.7876C210.418 94.2476 210.588 94.5957 210.927 94.8319C211.267 95.064 211.7 95.1801 212.227 95.1801ZM220.313 90.7915V96.4606H218.454V86.9126H220.238V88.4666H220.357C220.576 87.9611 220.92 87.555 221.388 87.2483C221.861 86.9416 222.456 86.7883 223.172 86.7883C223.823 86.7883 224.393 86.9251 224.882 87.1986C225.371 87.4679 225.75 87.8699 226.019 88.4045C226.289 88.9391 226.423 89.6001 226.423 90.3874V96.4606H224.565V90.6112C224.565 89.9191 224.385 89.3783 224.024 88.9888C223.664 88.5951 223.168 88.3983 222.538 88.3983C222.107 88.3983 221.724 88.4915 221.388 88.678C221.057 88.8645 220.794 89.138 220.599 89.4985C220.408 89.8549 220.313 90.2859 220.313 90.7915ZM231.935 96.6471C231.164 96.6471 230.476 96.4502 229.871 96.0565C229.27 95.6587 228.798 95.093 228.454 94.3595C228.114 93.6219 227.944 92.7371 227.944 91.7052C227.944 90.6734 228.116 89.7907 228.46 89.0572C228.808 88.3237 229.285 87.7622 229.89 87.3726C230.495 86.9831 231.181 86.7883 231.947 86.7883C232.54 86.7883 233.016 86.8878 233.377 87.0867C233.742 87.2814 234.024 87.5094 234.222 87.7704C234.425 88.0315 234.583 88.2615 234.695 88.4604H234.807V83.73H236.665V96.4606H234.85V94.9749H234.695C234.583 95.178 234.421 95.41 234.21 95.6711C234.003 95.9322 233.717 96.1601 233.352 96.3549C232.987 96.5497 232.515 96.6471 231.935 96.6471ZM232.345 95.0619C232.88 95.0619 233.331 94.921 233.7 94.6392C234.073 94.3533 234.355 93.9575 234.546 93.452C234.74 92.9464 234.838 92.3579 234.838 91.6866C234.838 91.0235 234.743 90.4434 234.552 89.9461C234.361 89.4488 234.082 89.0613 233.713 88.7837C233.344 88.506 232.888 88.3672 232.345 88.3672C231.786 88.3672 231.319 88.5122 230.947 88.8023C230.574 89.0924 230.292 89.4882 230.101 89.9896C229.915 90.491 229.821 91.0567 229.821 91.6866C229.821 92.3248 229.917 92.8987 230.107 93.4085C230.298 93.9182 230.58 94.3222 230.953 94.6206C231.33 94.9148 231.794 95.0619 232.345 95.0619ZM242.361 85.3835V83.73H252.214V85.3835H248.241V96.4606H246.327V85.3835H242.361ZM256.323 96.6533C255.428 96.6533 254.647 96.4481 253.98 96.0379C253.313 95.6276 252.795 95.0537 252.426 94.316C252.057 93.5784 251.872 92.7164 251.872 91.7301C251.872 90.7397 252.057 89.8736 252.426 89.1318C252.795 88.39 253.313 87.814 253.98 87.4037C254.647 86.9934 255.428 86.7883 256.323 86.7883C257.218 86.7883 257.999 86.9934 258.667 87.4037C259.334 87.814 259.852 88.39 260.221 89.1318C260.59 89.8736 260.774 90.7397 260.774 91.7301C260.774 92.7164 260.59 93.5784 260.221 94.316C259.852 95.0537 259.334 95.6276 258.667 96.0379C257.999 96.4481 257.218 96.6533 256.323 96.6533ZM256.329 95.093C256.91 95.093 257.39 94.9397 257.772 94.633C258.153 94.3264 258.435 93.9182 258.617 93.4085C258.803 92.8987 258.897 92.3372 258.897 91.7239C258.897 91.1147 258.803 90.5553 258.617 90.0455C258.435 89.5317 258.153 89.1193 257.772 88.8085C257.39 88.4977 256.91 88.3423 256.329 88.3423C255.745 88.3423 255.26 88.4977 254.875 88.8085C254.494 89.1193 254.21 89.5317 254.023 90.0455C253.841 90.5553 253.75 91.1147 253.75 91.7239C253.75 92.3372 253.841 92.8987 254.023 93.4085C254.21 93.9182 254.494 94.3264 254.875 94.633C255.26 94.9397 255.745 95.093 256.329 95.093ZM264.152 90.7915V96.4606H262.293V86.9126H264.077V88.4666H264.195C264.415 87.9611 264.759 87.555 265.227 87.2483C265.699 86.9416 266.294 86.7883 267.011 86.7883C267.662 86.7883 268.231 86.9251 268.72 87.1986C269.209 87.4679 269.589 87.8699 269.858 88.4045C270.127 88.9391 270.262 89.6001 270.262 90.3874V96.4606H268.403V90.6112C268.403 89.9191 268.223 89.3783 267.863 88.9888C267.502 88.5951 267.007 88.3983 266.377 88.3983C265.946 88.3983 265.563 88.4915 265.227 88.678C264.896 88.8645 264.632 89.138 264.438 89.4985C264.247 89.8549 264.152 90.2859 264.152 90.7915ZM276.314 96.6533C275.374 96.6533 274.563 96.4523 273.884 96.0503C273.208 95.6442 272.686 95.0744 272.317 94.3409C271.953 93.6032 271.77 92.7392 271.77 91.7488C271.77 90.7708 271.953 89.9088 272.317 89.1629C272.686 88.4169 273.2 87.8347 273.859 87.4161C274.522 86.9976 275.297 86.7883 276.184 86.7883C276.722 86.7883 277.245 86.8774 277.75 87.0556C278.256 87.2338 278.71 87.5135 279.112 87.8948C279.514 88.276 279.831 88.7712 280.063 89.3804C280.295 89.9855 280.411 90.721 280.411 91.5871V92.246H272.821V90.8536H278.589C278.589 90.3646 278.49 89.9316 278.291 89.5545C278.092 89.1732 277.812 88.8728 277.452 88.6531C277.095 88.4335 276.677 88.3237 276.196 88.3237C275.674 88.3237 275.218 88.4521 274.829 88.7091C274.443 88.9619 274.145 89.2934 273.934 89.7037C273.726 90.1098 273.623 90.5511 273.623 91.0277V92.1155C273.623 92.7537 273.735 93.2966 273.958 93.7441C274.186 94.1917 274.503 94.5336 274.909 94.7698C275.316 95.0019 275.79 95.1179 276.333 95.1179C276.685 95.1179 277.006 95.0682 277.296 94.9687C277.587 94.8651 277.837 94.7118 278.049 94.5087C278.26 94.3057 278.422 94.0549 278.533 93.7566L280.293 94.0736C280.152 94.5916 279.899 95.0454 279.534 95.4349C279.174 95.8203 278.72 96.1208 278.173 96.3362C277.63 96.5476 277.011 96.6533 276.314 96.6533Z" fill="white" fill-opacity="0.25"/>
<path d="M68.4629 50.817L91.637 56.4108L94.0343 68.3974L86.0432 76.3884L74.0566 73.9911L68.4629 50.817ZM68.4629 50.817L80.5869 62.9411M84.445 77.9867L95.6325 66.7992L100.427 71.5938L89.2397 82.7813L84.445 77.9867ZM86.0432 65.2009C86.0432 66.9663 84.6122 68.3974 82.8468 68.3974C81.0815 68.3974 79.6504 66.9663 79.6504 65.2009C79.6504 63.4356 81.0815 62.0045 82.8468 62.0045C84.6122 62.0045 86.0432 63.4356 86.0432 65.2009Z" stroke="#DBFF00" stroke-width="3.19643" stroke-linecap="round" stroke-linejoin="round"/>
<rect x="0.456055" y="140.335" width="402.089" height="124.33" rx="39.6798" fill="#0F0D0B"/>
<rect x="1.11738" y="140.996" width="400.766" height="123.007" rx="39.0185" stroke="#292929" stroke-width="1.32266"/>
<rect x="160.498" y="165.466" width="10.5813" height="10.5813" rx="5.29064" fill="#DDFF00"/>
<path d="M176.662 166.773V165.523H184.106V166.773H181.105V175.143H179.658V166.773H176.662ZM187.55 175.303C187.093 175.303 186.68 175.218 186.31 175.049C185.941 174.877 185.648 174.628 185.432 174.302C185.219 173.976 185.112 173.577 185.112 173.104C185.112 172.697 185.191 172.362 185.347 172.099C185.504 171.836 185.715 171.628 185.981 171.475C186.247 171.321 186.545 171.205 186.874 171.127C187.202 171.049 187.538 170.989 187.879 170.948C188.311 170.898 188.662 170.858 188.931 170.826C189.2 170.792 189.396 170.737 189.518 170.662C189.64 170.587 189.701 170.465 189.701 170.296V170.263C189.701 169.852 189.585 169.535 189.354 169.309C189.125 169.084 188.784 168.971 188.33 168.971C187.857 168.971 187.484 169.076 187.212 169.286C186.943 169.492 186.756 169.723 186.653 169.976L185.333 169.676C185.49 169.237 185.718 168.883 186.019 168.614C186.323 168.342 186.672 168.144 187.066 168.022C187.461 167.897 187.876 167.834 188.311 167.834C188.599 167.834 188.904 167.869 189.227 167.938C189.552 168.003 189.856 168.126 190.138 168.304C190.423 168.483 190.656 168.738 190.838 169.07C191.02 169.398 191.11 169.826 191.11 170.352V175.143H189.739V174.156H189.682C189.592 174.338 189.455 174.517 189.274 174.692C189.092 174.867 188.859 175.013 188.574 175.129C188.289 175.245 187.948 175.303 187.55 175.303ZM187.855 174.175C188.244 174.175 188.576 174.099 188.851 173.945C189.13 173.792 189.341 173.591 189.485 173.344C189.632 173.093 189.706 172.826 189.706 172.541V171.611C189.656 171.661 189.559 171.708 189.415 171.752C189.274 171.792 189.113 171.828 188.931 171.86C188.749 171.888 188.572 171.914 188.4 171.94C188.228 171.961 188.084 171.98 187.968 171.996C187.696 172.03 187.447 172.088 187.221 172.17C186.999 172.251 186.82 172.368 186.686 172.522C186.554 172.672 186.489 172.873 186.489 173.123C186.489 173.471 186.617 173.734 186.874 173.912C187.13 174.088 187.458 174.175 187.855 174.175ZM193.774 175.143V167.928H195.179V175.143H193.774ZM194.484 166.815C194.239 166.815 194.03 166.734 193.854 166.571C193.682 166.405 193.596 166.208 193.596 165.979C193.596 165.747 193.682 165.55 193.854 165.387C194.03 165.221 194.239 165.138 194.484 165.138C194.728 165.138 194.936 165.221 195.108 165.387C195.284 165.55 195.371 165.747 195.371 165.979C195.371 166.208 195.284 166.405 195.108 166.571C194.936 166.734 194.728 166.815 194.484 166.815ZM199.266 165.523V175.143H197.862V165.523H199.266ZM204.988 175.288C204.312 175.288 203.721 175.133 203.217 174.823C202.713 174.513 202.322 174.08 202.043 173.522C201.764 172.965 201.625 172.314 201.625 171.568C201.625 170.82 201.764 170.166 202.043 169.605C202.322 169.045 202.713 168.609 203.217 168.299C203.721 167.989 204.312 167.834 204.988 167.834C205.664 167.834 206.255 167.989 206.759 168.299C207.263 168.609 207.654 169.045 207.933 169.605C208.212 170.166 208.351 170.82 208.351 171.568C208.351 172.314 208.212 172.965 207.933 173.522C207.654 174.08 207.263 174.513 206.759 174.823C206.255 175.133 205.664 175.288 204.988 175.288ZM204.993 174.109C205.431 174.109 205.794 173.994 206.082 173.762C206.371 173.53 206.583 173.222 206.721 172.837C206.862 172.451 206.933 172.027 206.933 171.564C206.933 171.103 206.862 170.681 206.721 170.296C206.583 169.907 206.371 169.596 206.082 169.361C205.794 169.126 205.431 169.009 204.993 169.009C204.551 169.009 204.185 169.126 203.894 169.361C203.606 169.596 203.391 169.907 203.25 170.296C203.112 170.681 203.044 171.103 203.044 171.564C203.044 172.027 203.112 172.451 203.25 172.837C203.391 173.222 203.606 173.53 203.894 173.762C204.185 173.994 204.551 174.109 204.993 174.109ZM210.712 175.143V167.928H212.07V169.074H212.145C212.276 168.686 212.508 168.381 212.84 168.158C213.175 167.933 213.554 167.82 213.977 167.82C214.064 167.82 214.168 167.823 214.287 167.83C214.409 167.836 214.504 167.844 214.573 167.853V169.196C214.517 169.181 214.417 169.164 214.273 169.145C214.129 169.123 213.984 169.112 213.84 169.112C213.509 169.112 213.213 169.182 212.953 169.323C212.696 169.461 212.492 169.654 212.342 169.901C212.192 170.145 212.117 170.424 212.117 170.737V175.143H210.712ZM219.433 175.288C218.722 175.288 218.11 175.137 217.597 174.833C217.086 174.526 216.692 174.095 216.413 173.541C216.137 172.984 216 172.331 216 171.583C216 170.844 216.137 170.192 216.413 169.629C216.692 169.065 217.08 168.625 217.578 168.309C218.079 167.993 218.664 167.834 219.335 167.834C219.742 167.834 220.136 167.902 220.518 168.036C220.9 168.171 221.243 168.382 221.547 168.67C221.85 168.959 222.09 169.333 222.265 169.793C222.441 170.25 222.528 170.806 222.528 171.46V171.958H216.793V170.906H221.152C221.152 170.537 221.077 170.209 220.927 169.925C220.776 169.636 220.565 169.409 220.293 169.243C220.023 169.077 219.707 168.995 219.344 168.995C218.949 168.995 218.605 169.092 218.311 169.286C218.019 169.477 217.794 169.727 217.634 170.037C217.478 170.344 217.399 170.678 217.399 171.038V171.86C217.399 172.342 217.484 172.752 217.653 173.09C217.825 173.428 218.065 173.687 218.372 173.865C218.678 174.041 219.037 174.128 219.447 174.128C219.713 174.128 219.956 174.091 220.175 174.016C220.394 173.937 220.584 173.821 220.744 173.668C220.903 173.515 221.025 173.325 221.11 173.1L222.439 173.339C222.333 173.731 222.142 174.073 221.866 174.368C221.594 174.659 221.251 174.886 220.838 175.049C220.427 175.209 219.959 175.288 219.433 175.288ZM227.581 175.284C226.999 175.284 226.479 175.135 226.022 174.838C225.568 174.537 225.211 174.109 224.951 173.555C224.694 172.998 224.566 172.329 224.566 171.55C224.566 170.77 224.695 170.103 224.955 169.549C225.218 168.995 225.579 168.57 226.036 168.276C226.493 167.982 227.011 167.834 227.59 167.834C228.038 167.834 228.398 167.91 228.671 168.06C228.946 168.207 229.159 168.379 229.309 168.576C229.463 168.774 229.582 168.948 229.666 169.098H229.751V165.523H231.155V175.143H229.784V174.02H229.666C229.582 174.174 229.46 174.349 229.3 174.546C229.143 174.744 228.927 174.916 228.652 175.063C228.376 175.21 228.019 175.284 227.581 175.284ZM227.891 174.086C228.295 174.086 228.636 173.98 228.915 173.767C229.197 173.551 229.41 173.252 229.554 172.87C229.701 172.487 229.774 172.043 229.774 171.536C229.774 171.035 229.702 170.596 229.558 170.22C229.414 169.845 229.203 169.552 228.924 169.342C228.646 169.132 228.301 169.027 227.891 169.027C227.468 169.027 227.116 169.137 226.834 169.356C226.552 169.575 226.339 169.874 226.195 170.253C226.054 170.632 225.984 171.06 225.984 171.536C225.984 172.018 226.056 172.451 226.2 172.837C226.344 173.222 226.557 173.527 226.839 173.753C227.124 173.975 227.475 174.086 227.891 174.086Z" fill="#DDFF00"/>
<path d="M168.376 207.369H162.718V189.036H168.626C170.405 189.036 171.926 189.403 173.192 190.137C174.457 190.865 175.427 191.913 176.101 193.279C176.775 194.64 177.112 196.269 177.112 198.167C177.112 200.077 176.772 201.721 176.092 203.099C175.412 204.472 174.421 205.528 173.12 206.268C171.819 207.002 170.238 207.369 168.376 207.369ZM164.938 205.4H168.232C169.748 205.4 171.004 205.108 172.001 204.523C172.998 203.938 173.741 203.105 174.23 202.025C174.719 200.945 174.964 199.659 174.964 198.167C174.964 196.687 174.722 195.413 174.239 194.345C173.756 193.27 173.033 192.447 172.073 191.874C171.112 191.295 169.915 191.006 168.483 191.006H164.938V205.4ZM186.044 207.656C184.719 207.656 183.576 207.363 182.615 206.779C181.66 206.188 180.923 205.364 180.404 204.308C179.891 203.246 179.634 202.01 179.634 200.602C179.634 199.193 179.891 197.952 180.404 196.878C180.923 195.798 181.645 194.956 182.57 194.354C183.501 193.745 184.588 193.441 185.829 193.441C186.545 193.441 187.252 193.56 187.95 193.799C188.649 194.037 189.284 194.425 189.857 194.962C190.43 195.493 190.887 196.198 191.227 197.075C191.567 197.952 191.737 199.032 191.737 200.315V201.211H181.138V199.384H189.589C189.589 198.609 189.433 197.916 189.123 197.308C188.819 196.699 188.383 196.219 187.816 195.866C187.255 195.514 186.593 195.338 185.829 195.338C184.987 195.338 184.259 195.547 183.645 195.965C183.036 196.377 182.567 196.914 182.239 197.576C181.911 198.239 181.747 198.949 181.747 199.707V200.924C181.747 201.963 181.926 202.843 182.284 203.565C182.648 204.281 183.152 204.827 183.797 205.203C184.441 205.573 185.19 205.758 186.044 205.758C186.599 205.758 187.1 205.68 187.548 205.525C188.001 205.364 188.392 205.125 188.72 204.809C189.048 204.487 189.302 204.087 189.481 203.61L191.522 204.183C191.307 204.875 190.946 205.484 190.439 206.009C189.932 206.528 189.305 206.934 188.559 207.226C187.813 207.513 186.975 207.656 186.044 207.656ZM204.419 196.699L202.521 197.236C202.402 196.92 202.226 196.612 201.993 196.314C201.766 196.01 201.456 195.759 201.062 195.562C200.668 195.365 200.164 195.267 199.549 195.267C198.708 195.267 198.007 195.461 197.446 195.849C196.891 196.23 196.613 196.717 196.613 197.308C196.613 197.833 196.804 198.248 197.186 198.552C197.568 198.856 198.165 199.11 198.976 199.313L201.017 199.814C202.247 200.113 203.163 200.569 203.765 201.184C204.368 201.792 204.67 202.577 204.67 203.538C204.67 204.326 204.443 205.03 203.989 205.651C203.542 206.271 202.915 206.761 202.109 207.119C201.304 207.477 200.367 207.656 199.299 207.656C197.896 207.656 196.735 207.351 195.816 206.743C194.897 206.134 194.315 205.245 194.071 204.075L196.076 203.574C196.267 204.314 196.628 204.869 197.159 205.239C197.696 205.609 198.397 205.794 199.263 205.794C200.247 205.794 201.029 205.585 201.608 205.167C202.193 204.744 202.485 204.236 202.485 203.645C202.485 203.168 202.318 202.768 201.984 202.446C201.65 202.118 201.137 201.873 200.444 201.712L198.153 201.175C196.894 200.876 195.969 200.414 195.378 199.787C194.793 199.155 194.5 198.364 194.5 197.415C194.5 196.639 194.718 195.953 195.154 195.356C195.596 194.759 196.195 194.291 196.953 193.951C197.717 193.611 198.582 193.441 199.549 193.441C200.91 193.441 201.978 193.739 202.754 194.336C203.536 194.932 204.091 195.72 204.419 196.699ZM207.579 207.369V193.62H209.691V207.369H207.579ZM208.653 191.328C208.241 191.328 207.886 191.188 207.588 190.907C207.295 190.627 207.149 190.29 207.149 189.896C207.149 189.502 207.295 189.165 207.588 188.884C207.886 188.604 208.241 188.463 208.653 188.463C209.065 188.463 209.417 188.604 209.709 188.884C210.007 189.165 210.157 189.502 210.157 189.896C210.157 190.29 210.007 190.627 209.709 190.907C209.417 191.188 209.065 191.328 208.653 191.328ZM218.839 212.812C217.819 212.812 216.942 212.681 216.208 212.418C215.474 212.162 214.862 211.821 214.373 211.398C213.889 210.98 213.504 210.532 213.218 210.055L214.901 208.873C215.092 209.124 215.333 209.41 215.626 209.733C215.918 210.061 216.318 210.344 216.825 210.583C217.339 210.828 218.01 210.95 218.839 210.95C219.949 210.95 220.866 210.682 221.588 210.144C222.31 209.607 222.671 208.766 222.671 207.62V204.827H222.492C222.337 205.078 222.116 205.388 221.829 205.758C221.549 206.122 221.143 206.447 220.612 206.734C220.087 207.014 219.377 207.155 218.481 207.155C217.371 207.155 216.375 206.892 215.492 206.367C214.614 205.842 213.919 205.078 213.406 204.075C212.898 203.073 212.645 201.855 212.645 200.423C212.645 199.014 212.893 197.788 213.388 196.744C213.883 195.693 214.572 194.882 215.456 194.309C216.339 193.73 217.359 193.441 218.517 193.441C219.412 193.441 220.123 193.59 220.648 193.888C221.179 194.181 221.585 194.515 221.865 194.891C222.152 195.261 222.372 195.565 222.528 195.804H222.742V193.62H224.783V207.763C224.783 208.945 224.515 209.906 223.978 210.646C223.447 211.392 222.73 211.938 221.829 212.284C220.934 212.636 219.938 212.812 218.839 212.812ZM218.768 205.257C219.615 205.257 220.331 205.063 220.916 204.675C221.501 204.287 221.946 203.729 222.25 203.001C222.554 202.273 222.707 201.402 222.707 200.387C222.707 199.396 222.557 198.522 222.259 197.764C221.961 197.006 221.519 196.412 220.934 195.983C220.349 195.553 219.627 195.338 218.768 195.338C217.873 195.338 217.127 195.565 216.53 196.019C215.939 196.472 215.494 197.081 215.196 197.845C214.904 198.609 214.757 199.456 214.757 200.387C214.757 201.342 214.907 202.186 215.205 202.92C215.509 203.648 215.957 204.221 216.548 204.639C217.145 205.051 217.885 205.257 218.768 205.257ZM230.492 199.098V207.369H228.379V193.62H230.42V195.768H230.599C230.922 195.07 231.411 194.509 232.068 194.085C232.724 193.655 233.571 193.441 234.61 193.441C235.541 193.441 236.355 193.631 237.054 194.013C237.752 194.389 238.295 194.962 238.683 195.732C239.071 196.496 239.265 197.463 239.265 198.633V207.369H237.152V198.776C237.152 197.696 236.872 196.854 236.311 196.251C235.75 195.643 234.98 195.338 234.001 195.338C233.327 195.338 232.724 195.484 232.193 195.777C231.668 196.069 231.253 196.496 230.949 197.057C230.644 197.618 230.492 198.298 230.492 199.098ZM259.985 193.62C259.878 192.712 259.442 192.008 258.678 191.507C257.914 191.006 256.977 190.755 255.867 190.755C255.056 190.755 254.345 190.886 253.737 191.149C253.134 191.411 252.662 191.773 252.322 192.232C251.988 192.692 251.821 193.214 251.821 193.799C251.821 194.288 251.937 194.709 252.17 195.061C252.409 195.407 252.713 195.696 253.083 195.929C253.453 196.156 253.841 196.344 254.247 196.493C254.653 196.636 255.026 196.753 255.366 196.842L257.228 197.343C257.705 197.469 258.236 197.642 258.821 197.863C259.412 198.083 259.976 198.385 260.513 198.767C261.056 199.143 261.504 199.626 261.856 200.217C262.208 200.808 262.384 201.533 262.384 202.392C262.384 203.383 262.124 204.278 261.605 205.078C261.092 205.877 260.34 206.513 259.349 206.984C258.365 207.456 257.168 207.692 255.76 207.692C254.447 207.692 253.31 207.48 252.349 207.056C251.394 206.632 250.642 206.042 250.093 205.284C249.55 204.526 249.243 203.645 249.171 202.643H251.463C251.523 203.335 251.755 203.908 252.161 204.362C252.573 204.809 253.092 205.143 253.719 205.364C254.351 205.579 255.032 205.686 255.76 205.686C256.607 205.686 257.368 205.549 258.042 205.275C258.717 204.994 259.251 204.606 259.645 204.111C260.039 203.61 260.236 203.025 260.236 202.356C260.236 201.748 260.066 201.252 259.725 200.87C259.385 200.488 258.938 200.178 258.383 199.939C257.828 199.701 257.228 199.492 256.583 199.313L254.327 198.668C252.895 198.257 251.761 197.669 250.926 196.905C250.09 196.141 249.673 195.141 249.673 193.906C249.673 192.88 249.95 191.984 250.505 191.22C251.066 190.451 251.818 189.854 252.761 189.43C253.71 189 254.769 188.786 255.939 188.786C257.12 188.786 258.171 188.997 259.09 189.421C260.009 189.839 260.737 190.412 261.274 191.14C261.817 191.868 262.104 192.695 262.133 193.62H259.985ZM266.837 212.526C266.479 212.526 266.16 212.496 265.879 212.436C265.599 212.382 265.405 212.329 265.297 212.275L265.835 210.413C266.348 210.544 266.801 210.592 267.195 210.556C267.589 210.52 267.938 210.344 268.243 210.028C268.553 209.718 268.836 209.213 269.093 208.515L269.487 207.441L264.402 193.62H266.694L270.489 204.576H270.633L274.428 193.62H276.72L270.883 209.375C270.621 210.085 270.296 210.673 269.908 211.138C269.52 211.61 269.069 211.959 268.556 212.185C268.049 212.412 267.476 212.526 266.837 212.526ZM288.977 196.699L287.079 197.236C286.96 196.92 286.783 196.612 286.551 196.314C286.324 196.01 286.014 195.759 285.62 195.562C285.226 195.365 284.722 195.267 284.107 195.267C283.265 195.267 282.564 195.461 282.003 195.849C281.448 196.23 281.171 196.717 281.171 197.308C281.171 197.833 281.362 198.248 281.744 198.552C282.126 198.856 282.722 199.11 283.534 199.313L285.575 199.814C286.804 200.113 287.72 200.569 288.323 201.184C288.926 201.792 289.227 202.577 289.227 203.538C289.227 204.326 289.001 205.03 288.547 205.651C288.099 206.271 287.473 206.761 286.667 207.119C285.861 207.477 284.924 207.656 283.856 207.656C282.454 207.656 281.293 207.351 280.374 206.743C279.455 206.134 278.873 205.245 278.628 204.075L280.634 203.574C280.825 204.314 281.186 204.869 281.717 205.239C282.254 205.609 282.955 205.794 283.82 205.794C284.805 205.794 285.587 205.585 286.166 205.167C286.751 204.744 287.043 204.236 287.043 203.645C287.043 203.168 286.876 202.768 286.542 202.446C286.208 202.118 285.694 201.873 285.002 201.712L282.71 201.175C281.451 200.876 280.526 200.414 279.935 199.787C279.351 199.155 279.058 198.364 279.058 197.415C279.058 196.639 279.276 195.953 279.712 195.356C280.153 194.759 280.753 194.291 281.511 193.951C282.275 193.611 283.14 193.441 284.107 193.441C285.468 193.441 286.536 193.739 287.312 194.336C288.093 194.932 288.648 195.72 288.977 196.699ZM298.116 193.62V195.41H290.99V193.62H298.116ZM293.067 190.325H295.18V203.431C295.18 204.027 295.266 204.475 295.439 204.773C295.618 205.066 295.845 205.263 296.12 205.364C296.4 205.46 296.696 205.507 297.006 205.507C297.239 205.507 297.43 205.495 297.579 205.472C297.728 205.442 297.847 205.418 297.937 205.4L298.367 207.298C298.223 207.351 298.023 207.405 297.767 207.459C297.51 207.519 297.185 207.548 296.791 207.548C296.194 207.548 295.61 207.42 295.037 207.163C294.47 206.907 293.998 206.516 293.622 205.991C293.252 205.466 293.067 204.803 293.067 204.004V190.325ZM306.64 207.656C305.315 207.656 304.172 207.363 303.211 206.779C302.257 206.188 301.52 205.364 301 204.308C300.487 203.246 300.23 202.01 300.23 200.602C300.23 199.193 300.487 197.952 301 196.878C301.52 195.798 302.242 194.956 303.167 194.354C304.098 193.745 305.184 193.441 306.425 193.441C307.141 193.441 307.848 193.56 308.547 193.799C309.245 194.037 309.88 194.425 310.453 194.962C311.026 195.493 311.483 196.198 311.823 197.075C312.163 197.952 312.333 199.032 312.333 200.315V201.211H301.734V199.384H310.185C310.185 198.609 310.03 197.916 309.719 197.308C309.415 196.699 308.979 196.219 308.412 195.866C307.851 195.514 307.189 195.338 306.425 195.338C305.584 195.338 304.856 195.547 304.241 195.965C303.632 196.377 303.164 196.914 302.835 197.576C302.507 198.239 302.343 198.949 302.343 199.707V200.924C302.343 201.963 302.522 202.843 302.88 203.565C303.244 204.281 303.748 204.827 304.393 205.203C305.038 205.573 305.787 205.758 306.64 205.758C307.195 205.758 307.696 205.68 308.144 205.525C308.597 205.364 308.988 205.125 309.316 204.809C309.645 204.487 309.898 204.087 310.077 203.61L312.118 204.183C311.904 204.875 311.542 205.484 311.035 206.009C310.528 206.528 309.901 206.934 309.155 207.226C308.409 207.513 307.571 207.656 306.64 207.656ZM315.276 207.369V193.62H317.317V195.768H317.496C317.782 195.034 318.245 194.464 318.883 194.058C319.522 193.646 320.289 193.441 321.184 193.441C322.091 193.441 322.846 193.646 323.449 194.058C324.057 194.464 324.532 195.034 324.872 195.768H325.015C325.367 195.058 325.895 194.494 326.6 194.076C327.304 193.652 328.148 193.441 329.133 193.441C330.362 193.441 331.368 193.825 332.15 194.595C332.931 195.359 333.322 196.55 333.322 198.167V207.369H331.21V198.167C331.21 197.152 330.932 196.427 330.377 195.992C329.822 195.556 329.169 195.338 328.417 195.338C327.45 195.338 326.701 195.631 326.17 196.216C325.639 196.794 325.373 197.528 325.373 198.418V207.369H323.225V197.952C323.225 197.17 322.971 196.541 322.464 196.063C321.957 195.58 321.303 195.338 320.504 195.338C319.954 195.338 319.441 195.484 318.964 195.777C318.492 196.069 318.11 196.475 317.818 196.994C317.532 197.508 317.388 198.101 317.388 198.776V207.369H315.276Z" fill="white"/>
<path d="M172.47 228.2H170.531C170.456 227.786 170.317 227.421 170.114 227.106C169.911 226.791 169.663 226.524 169.368 226.304C169.074 226.084 168.745 225.919 168.38 225.807C168.02 225.695 167.636 225.639 167.23 225.639C166.497 225.639 165.84 225.823 165.26 226.192C164.684 226.561 164.228 227.102 163.892 227.815C163.561 228.527 163.395 229.398 163.395 230.425C163.395 231.461 163.561 232.336 163.892 233.049C164.228 233.761 164.686 234.3 165.266 234.665C165.846 235.029 166.499 235.212 167.224 235.212C167.626 235.212 168.007 235.158 168.368 235.05C168.732 234.938 169.062 234.775 169.356 234.559C169.65 234.344 169.899 234.08 170.102 233.77C170.309 233.455 170.452 233.094 170.531 232.688L172.47 232.694C172.367 233.32 172.166 233.896 171.867 234.422C171.573 234.944 171.194 235.396 170.73 235.777C170.27 236.155 169.743 236.447 169.151 236.654C168.558 236.861 167.912 236.965 167.211 236.965C166.109 236.965 165.127 236.704 164.265 236.181C163.403 235.655 162.723 234.903 162.226 233.925C161.733 232.947 161.486 231.78 161.486 230.425C161.486 229.066 161.735 227.9 162.232 226.926C162.73 225.948 163.409 225.198 164.271 224.675C165.133 224.149 166.113 223.886 167.211 223.886C167.887 223.886 168.517 223.983 169.101 224.178C169.69 224.369 170.218 224.651 170.686 225.024C171.155 225.392 171.542 225.844 171.849 226.379C172.155 226.909 172.363 227.516 172.47 228.2ZM178.086 236.983C177.191 236.983 176.41 236.778 175.742 236.368C175.075 235.958 174.557 235.384 174.188 234.646C173.819 233.908 173.635 233.046 173.635 232.06C173.635 231.07 173.819 230.204 174.188 229.462C174.557 228.72 175.075 228.144 175.742 227.734C176.41 227.324 177.191 227.118 178.086 227.118C178.981 227.118 179.762 227.324 180.429 227.734C181.096 228.144 181.614 228.72 181.983 229.462C182.352 230.204 182.537 231.07 182.537 232.06C182.537 233.046 182.352 233.908 181.983 234.646C181.614 235.384 181.096 235.958 180.429 236.368C179.762 236.778 178.981 236.983 178.086 236.983ZM178.092 235.423C178.672 235.423 179.153 235.27 179.534 234.963C179.915 234.656 180.197 234.248 180.38 233.739C180.566 233.229 180.659 232.667 180.659 232.054C180.659 231.445 180.566 230.885 180.38 230.376C180.197 229.862 179.915 229.449 179.534 229.139C179.153 228.828 178.672 228.672 178.092 228.672C177.508 228.672 177.023 228.828 176.637 229.139C176.256 229.449 175.972 229.862 175.786 230.376C175.604 230.885 175.512 231.445 175.512 232.054C175.512 232.667 175.604 233.229 175.786 233.739C175.972 234.248 176.256 234.656 176.637 234.963C177.023 235.27 177.508 235.423 178.092 235.423ZM184.056 236.791V227.243H185.84V228.797H185.958C186.157 228.27 186.482 227.86 186.934 227.566C187.385 227.268 187.926 227.118 188.556 227.118C189.194 227.118 189.729 227.268 190.16 227.566C190.595 227.864 190.916 228.275 191.123 228.797H191.223C191.451 228.287 191.813 227.881 192.311 227.578C192.808 227.272 193.401 227.118 194.088 227.118C194.955 227.118 195.661 227.39 196.208 227.933C196.759 228.476 197.035 229.294 197.035 230.388V236.791H195.176V230.562C195.176 229.916 195 229.447 194.648 229.157C194.296 228.867 193.875 228.722 193.386 228.722C192.781 228.722 192.311 228.909 191.975 229.282C191.639 229.65 191.471 230.125 191.471 230.705V236.791H189.619V230.444C189.619 229.926 189.457 229.51 189.134 229.195C188.811 228.88 188.39 228.722 187.872 228.722C187.52 228.722 187.195 228.815 186.896 229.002C186.602 229.184 186.364 229.439 186.182 229.766C186.003 230.094 185.914 230.473 185.914 230.904V236.791H184.056ZM198.971 240.371V227.243H200.786V228.791H200.941C201.049 228.592 201.204 228.362 201.407 228.101C201.61 227.839 201.892 227.612 202.253 227.417C202.613 227.218 203.09 227.118 203.682 227.118C204.453 227.118 205.141 227.313 205.746 227.703C206.351 228.092 206.826 228.654 207.17 229.387C207.518 230.121 207.692 231.003 207.692 232.035C207.692 233.067 207.52 233.952 207.176 234.69C206.832 235.423 206.359 235.989 205.758 236.387C205.158 236.78 204.472 236.977 203.701 236.977C203.121 236.977 202.646 236.88 202.277 236.685C201.913 236.49 201.627 236.262 201.42 236.001C201.212 235.74 201.053 235.508 200.941 235.305H200.829V240.371H198.971ZM200.792 232.017C200.792 232.688 200.889 233.276 201.084 233.782C201.279 234.288 201.561 234.683 201.929 234.969C202.298 235.251 202.75 235.392 203.284 235.392C203.84 235.392 204.304 235.245 204.677 234.951C205.05 234.652 205.332 234.248 205.522 233.739C205.717 233.229 205.814 232.655 205.814 232.017C205.814 231.387 205.719 230.821 205.529 230.32C205.342 229.818 205.06 229.422 204.683 229.132C204.31 228.842 203.844 228.697 203.284 228.697C202.746 228.697 202.29 228.836 201.917 229.114C201.548 229.391 201.268 229.779 201.078 230.276C200.887 230.773 200.792 231.354 200.792 232.017ZM213.24 236.983C212.345 236.983 211.564 236.778 210.897 236.368C210.23 235.958 209.712 235.384 209.343 234.646C208.974 233.908 208.79 233.046 208.79 232.06C208.79 231.07 208.974 230.204 209.343 229.462C209.712 228.72 210.23 228.144 210.897 227.734C211.564 227.324 212.345 227.118 213.24 227.118C214.136 227.118 214.917 227.324 215.584 227.734C216.251 228.144 216.769 228.72 217.138 229.462C217.507 230.204 217.691 231.07 217.691 232.06C217.691 233.046 217.507 233.908 217.138 234.646C216.769 235.384 216.251 235.958 215.584 236.368C214.917 236.778 214.136 236.983 213.24 236.983ZM213.247 235.423C213.827 235.423 214.308 235.27 214.689 234.963C215.07 234.656 215.352 234.248 215.534 233.739C215.721 233.229 215.814 232.667 215.814 232.054C215.814 231.445 215.721 230.885 215.534 230.376C215.352 229.862 215.07 229.449 214.689 229.139C214.308 228.828 213.827 228.672 213.247 228.672C212.662 228.672 212.177 228.828 211.792 229.139C211.411 229.449 211.127 229.862 210.94 230.376C210.758 230.885 210.667 231.445 210.667 232.054C210.667 232.667 210.758 233.229 210.94 233.739C211.127 234.248 211.411 234.656 211.792 234.963C212.177 235.27 212.662 235.423 213.247 235.423ZM221.069 231.122V236.791H219.21V227.243H220.994V228.797H221.112C221.332 228.291 221.676 227.885 222.144 227.578C222.617 227.272 223.211 227.118 223.928 227.118C224.579 227.118 225.149 227.255 225.638 227.529C226.127 227.798 226.506 228.2 226.775 228.735C227.045 229.269 227.179 229.93 227.179 230.718V236.791H225.321V230.941C225.321 230.249 225.14 229.708 224.78 229.319C224.419 228.925 223.924 228.728 223.294 228.728C222.863 228.728 222.48 228.822 222.144 229.008C221.813 229.195 221.55 229.468 221.355 229.829C221.164 230.185 221.069 230.616 221.069 231.122ZM233.232 236.983C232.291 236.983 231.481 236.782 230.801 236.38C230.126 235.974 229.603 235.404 229.235 234.671C228.87 233.933 228.688 233.069 228.688 232.079C228.688 231.101 228.87 230.239 229.235 229.493C229.603 228.747 230.117 228.165 230.776 227.746C231.439 227.328 232.214 227.118 233.101 227.118C233.64 227.118 234.162 227.207 234.667 227.386C235.173 227.564 235.627 227.844 236.029 228.225C236.431 228.606 236.748 229.101 236.98 229.71C237.212 230.316 237.328 231.051 237.328 231.917V232.576H229.738V231.184H235.507C235.507 230.695 235.407 230.262 235.208 229.885C235.009 229.503 234.73 229.203 234.369 228.983C234.013 228.764 233.594 228.654 233.113 228.654C232.591 228.654 232.135 228.782 231.746 229.039C231.36 229.292 231.062 229.623 230.851 230.034C230.644 230.44 230.54 230.881 230.54 231.358V232.446C230.54 233.084 230.652 233.627 230.876 234.074C231.104 234.522 231.421 234.864 231.827 235.1C232.233 235.332 232.707 235.448 233.25 235.448C233.602 235.448 233.924 235.398 234.214 235.299C234.504 235.195 234.754 235.042 234.966 234.839C235.177 234.636 235.339 234.385 235.451 234.087L237.21 234.404C237.069 234.922 236.816 235.375 236.451 235.765C236.091 236.15 235.637 236.451 235.09 236.666C234.547 236.878 233.928 236.983 233.232 236.983ZM240.693 231.122V236.791H238.835V227.243H240.619V228.797H240.737C240.956 228.291 241.3 227.885 241.769 227.578C242.241 227.272 242.836 227.118 243.553 227.118C244.203 227.118 244.773 227.255 245.262 227.529C245.751 227.798 246.13 228.2 246.4 228.735C246.669 229.269 246.804 229.93 246.804 230.718V236.791H244.945V230.941C244.945 230.249 244.765 229.708 244.404 229.319C244.044 228.925 243.549 228.728 242.919 228.728C242.488 228.728 242.104 228.822 241.769 229.008C241.437 229.195 241.174 229.468 240.979 229.829C240.789 230.185 240.693 230.616 240.693 231.122ZM253.198 227.243V228.735H247.982V227.243H253.198ZM249.381 224.955H251.24V233.987C251.24 234.348 251.294 234.619 251.401 234.801C251.509 234.98 251.648 235.102 251.818 235.168C251.992 235.23 252.18 235.261 252.383 235.261C252.533 235.261 252.663 235.251 252.775 235.23C252.887 235.21 252.974 235.193 253.036 235.181L253.372 236.716C253.264 236.757 253.111 236.799 252.912 236.84C252.713 236.886 252.464 236.911 252.166 236.915C251.677 236.923 251.221 236.836 250.798 236.654C250.376 236.472 250.034 236.19 249.773 235.809C249.512 235.427 249.381 234.949 249.381 234.373V224.955ZM261.699 229.574L260.015 229.872C259.944 229.657 259.832 229.451 259.679 229.257C259.53 229.062 259.327 228.902 259.07 228.778C258.813 228.654 258.492 228.592 258.106 228.592C257.58 228.592 257.141 228.71 256.788 228.946C256.436 229.178 256.26 229.478 256.26 229.847C256.26 230.166 256.378 230.423 256.614 230.618C256.851 230.813 257.232 230.972 257.758 231.097L259.275 231.445C260.153 231.648 260.808 231.961 261.239 232.383C261.67 232.806 261.886 233.355 261.886 234.031C261.886 234.603 261.72 235.112 261.388 235.56C261.061 236.003 260.603 236.351 260.015 236.604C259.43 236.857 258.753 236.983 257.982 236.983C256.913 236.983 256.04 236.755 255.365 236.3C254.689 235.84 254.275 235.187 254.122 234.342L255.918 234.068C256.03 234.536 256.26 234.891 256.608 235.131C256.956 235.367 257.41 235.485 257.969 235.485C258.579 235.485 259.066 235.359 259.43 235.106C259.795 234.849 259.977 234.536 259.977 234.167C259.977 233.869 259.865 233.618 259.642 233.415C259.422 233.212 259.084 233.059 258.628 232.955L257.012 232.601C256.121 232.398 255.462 232.075 255.035 231.631C254.613 231.188 254.401 230.626 254.401 229.947C254.401 229.383 254.559 228.89 254.874 228.467C255.189 228.045 255.624 227.715 256.179 227.479C256.735 227.239 257.371 227.118 258.088 227.118C259.119 227.118 259.932 227.342 260.524 227.79C261.117 228.233 261.509 228.828 261.699 229.574Z" fill="white" fill-opacity="0.25"/>
<path d="M54.5328 161.997H115.138C130.848 161.997 143.584 174.733 143.584 190.443V214.866C143.584 230.577 130.848 243.312 115.138 243.312H54.5328C38.8226 243.312 26.0869 230.577 26.0869 214.866V190.443C26.0869 174.733 38.8226 161.997 54.5328 161.997Z" fill="black" fill-opacity="0.89" stroke="url(#paint1_linear_1033_1735)"/>
<path d="M85.1061 221.238L68.2422 211.869V193.131L85.1061 183.762L101.97 193.131V211.869L85.1061 221.238ZM79.6722 197.347C80.3905 196.598 81.218 196.02 82.1549 195.614C83.0918 195.208 84.0755 195.005 85.1061 195.005C86.1367 195.005 87.1204 195.208 88.0573 195.614C88.9942 196.02 89.8218 196.598 90.54 197.347L96.1613 194.209L85.1061 188.072L74.0509 194.209L79.6722 197.347ZM83.2323 215.898V209.761C81.5459 209.324 80.1875 208.434 79.1569 207.091C78.1263 205.748 77.611 204.218 77.611 202.5C77.611 202.157 77.6266 201.837 77.6579 201.54C77.6891 201.243 77.7516 200.939 77.8453 200.626L71.9897 197.347V209.667L83.2323 215.898ZM85.1061 206.248C86.1367 206.248 87.0189 205.881 87.7528 205.147C88.4867 204.413 88.8536 203.531 88.8536 202.5C88.8536 201.47 88.4867 200.587 87.7528 199.853C87.0189 199.12 86.1367 198.753 85.1061 198.753C84.0755 198.753 83.1933 199.12 82.4594 199.853C81.7255 200.587 81.3586 201.47 81.3586 202.5C81.3586 203.531 81.7255 204.413 82.4594 205.147C83.1933 205.881 84.0755 206.248 85.1061 206.248ZM86.9799 215.898L98.2225 209.667V197.347L92.367 200.626C92.4606 200.939 92.5231 201.243 92.5543 201.54C92.5856 201.837 92.6012 202.157 92.6012 202.5C92.6012 204.218 92.0859 205.748 91.0553 207.091C90.0247 208.434 88.6663 209.324 86.9799 209.761V215.898Z" fill="#DBFF00"/>
<rect x="0.456055" y="280.665" width="402.089" height="124.33" rx="39.6798" fill="#0F0D0B"/>
<rect x="1.11738" y="281.326" width="400.766" height="123.007" rx="39.0185" stroke="#292929" stroke-width="1.32266"/>
<rect x="160.498" y="305.796" width="10.5813" height="10.5813" rx="5.29064" fill="#DDFF00"/>
<path d="M180.25 315.473H177.136V305.853H180.349C181.291 305.853 182.101 306.046 182.777 306.431C183.453 306.813 183.972 307.363 184.332 308.08C184.695 308.794 184.876 309.65 184.876 310.649C184.876 311.651 184.693 312.512 184.327 313.232C183.964 313.953 183.438 314.507 182.749 314.895C182.06 315.28 181.227 315.473 180.25 315.473ZM178.587 314.205H180.17C180.903 314.205 181.512 314.067 181.997 313.791C182.483 313.513 182.846 313.11 183.087 312.584C183.328 312.055 183.449 311.41 183.449 310.649C183.449 309.894 183.328 309.254 183.087 308.728C182.849 308.202 182.494 307.803 182.021 307.53C181.548 307.258 180.961 307.122 180.259 307.122H178.587V314.205ZM190.472 315.618C189.761 315.618 189.149 315.467 188.635 315.163C188.125 314.856 187.73 314.425 187.451 313.871C187.176 313.314 187.038 312.661 187.038 311.913C187.038 311.174 187.176 310.522 187.451 309.959C187.73 309.395 188.118 308.955 188.616 308.639C189.117 308.323 189.703 308.164 190.373 308.164C190.78 308.164 191.175 308.232 191.557 308.366C191.939 308.501 192.281 308.712 192.585 309C192.889 309.289 193.128 309.663 193.304 310.123C193.479 310.58 193.567 311.136 193.567 311.79V312.288H187.832V311.236H192.191C192.191 310.867 192.115 310.539 191.965 310.255C191.815 309.966 191.603 309.739 191.331 309.573C191.062 309.408 190.746 309.325 190.382 309.325C189.988 309.325 189.643 309.422 189.349 309.616C189.058 309.807 188.832 310.057 188.673 310.367C188.516 310.674 188.438 311.008 188.438 311.368V312.19C188.438 312.672 188.522 313.082 188.691 313.42C188.864 313.758 189.103 314.017 189.41 314.195C189.717 314.371 190.075 314.458 190.486 314.458C190.752 314.458 190.994 314.421 191.214 314.346C191.433 314.267 191.622 314.151 191.782 313.998C191.942 313.845 192.064 313.655 192.148 313.43L193.478 313.669C193.371 314.061 193.18 314.404 192.905 314.698C192.632 314.989 192.289 315.216 191.876 315.379C191.466 315.539 190.998 315.618 190.472 315.618ZM201.325 310.02L200.052 310.245C199.999 310.082 199.914 309.927 199.798 309.78C199.686 309.633 199.532 309.512 199.338 309.418C199.144 309.325 198.901 309.278 198.61 309.278C198.212 309.278 197.88 309.367 197.614 309.545C197.348 309.721 197.215 309.948 197.215 310.226C197.215 310.467 197.304 310.662 197.483 310.809C197.661 310.956 197.949 311.076 198.347 311.17L199.493 311.433C200.157 311.587 200.652 311.823 200.977 312.143C201.303 312.462 201.466 312.877 201.466 313.387C201.466 313.82 201.34 314.205 201.09 314.543C200.843 314.878 200.497 315.141 200.052 315.332C199.61 315.523 199.098 315.618 198.516 315.618C197.708 315.618 197.049 315.446 196.539 315.102C196.028 314.754 195.715 314.261 195.599 313.622L196.957 313.416C197.041 313.769 197.215 314.037 197.478 314.219C197.741 314.397 198.084 314.486 198.507 314.486C198.967 314.486 199.335 314.391 199.61 314.2C199.886 314.006 200.024 313.769 200.024 313.491C200.024 313.265 199.939 313.076 199.77 312.922C199.604 312.769 199.349 312.653 199.005 312.575L197.783 312.307C197.11 312.154 196.612 311.909 196.29 311.574C195.97 311.239 195.811 310.815 195.811 310.302C195.811 309.876 195.93 309.503 196.168 309.184C196.406 308.864 196.734 308.615 197.154 308.437C197.574 308.255 198.054 308.164 198.596 308.164C199.376 308.164 199.989 308.333 200.437 308.672C200.885 309.007 201.181 309.456 201.325 310.02ZM203.803 315.473V308.258H205.208V315.473H203.803ZM204.513 307.145C204.268 307.145 204.059 307.064 203.883 306.901C203.711 306.735 203.625 306.538 203.625 306.309C203.625 306.077 203.711 305.88 203.883 305.717C204.059 305.551 204.268 305.468 204.513 305.468C204.757 305.468 204.965 305.551 205.137 305.717C205.313 305.88 205.4 306.077 205.4 306.309C205.4 306.538 205.313 306.735 205.137 306.901C204.965 307.064 204.757 307.145 204.513 307.145ZM210.916 318.329C210.343 318.329 209.849 318.253 209.436 318.103C209.026 317.953 208.691 317.754 208.431 317.507C208.171 317.259 207.977 316.988 207.848 316.694L209.056 316.196C209.14 316.334 209.253 316.48 209.394 316.633C209.538 316.79 209.732 316.923 209.976 317.032C210.224 317.142 210.541 317.197 210.93 317.197C211.462 317.197 211.902 317.067 212.25 316.807C212.597 316.55 212.771 316.14 212.771 315.576V314.158H212.682C212.597 314.311 212.475 314.482 212.315 314.67C212.159 314.858 211.943 315.02 211.667 315.158C211.392 315.296 211.033 315.365 210.592 315.365C210.022 315.365 209.508 315.232 209.051 314.966C208.597 314.696 208.237 314.3 207.971 313.777C207.708 313.251 207.576 312.605 207.576 311.837C207.576 311.07 207.706 310.413 207.966 309.865C208.229 309.317 208.589 308.897 209.046 308.606C209.503 308.312 210.022 308.164 210.601 308.164C211.049 308.164 211.41 308.24 211.686 308.39C211.961 308.537 212.176 308.709 212.329 308.907C212.486 309.104 212.607 309.278 212.691 309.428H212.794V308.258H214.171V315.633C214.171 316.253 214.027 316.761 213.738 317.159C213.45 317.557 213.061 317.851 212.569 318.042C212.08 318.233 211.529 318.329 210.916 318.329ZM210.902 314.2C211.305 314.2 211.647 314.106 211.925 313.918C212.207 313.727 212.42 313.455 212.564 313.101C212.711 312.744 212.785 312.316 212.785 311.819C212.785 311.333 212.713 310.906 212.569 310.536C212.425 310.167 212.214 309.879 211.935 309.672C211.656 309.462 211.312 309.357 210.902 309.357C210.479 309.357 210.127 309.467 209.845 309.686C209.563 309.902 209.35 310.197 209.206 310.569C209.065 310.942 208.995 311.358 208.995 311.819C208.995 312.291 209.067 312.706 209.211 313.063C209.355 313.42 209.568 313.699 209.849 313.899C210.134 314.1 210.485 314.2 210.902 314.2ZM218.252 311.189V315.473H216.848V308.258H218.196V309.433H218.285C218.451 309.051 218.711 308.744 219.065 308.512C219.422 308.28 219.871 308.164 220.413 308.164C220.904 308.164 221.335 308.268 221.704 308.474C222.074 308.678 222.36 308.982 222.564 309.386C222.767 309.79 222.869 310.289 222.869 310.884V315.473H221.465V311.053C221.465 310.53 221.329 310.121 221.056 309.827C220.784 309.53 220.41 309.381 219.934 309.381C219.608 309.381 219.318 309.451 219.065 309.592C218.814 309.733 218.615 309.94 218.468 310.212C218.324 310.482 218.252 310.807 218.252 311.189Z" fill="#DDFF00"/>
<path d="M168.376 347.699H162.718V329.366H168.626C170.405 329.366 171.926 329.733 173.192 330.467C174.457 331.195 175.427 332.243 176.101 333.609C176.775 334.97 177.112 336.599 177.112 338.497C177.112 340.407 176.772 342.051 176.092 343.429C175.412 344.802 174.421 345.858 173.12 346.598C171.819 347.332 170.238 347.699 168.376 347.699ZM164.938 345.73H168.232C169.748 345.73 171.004 345.438 172.001 344.853C172.998 344.268 173.741 343.435 174.23 342.355C174.719 341.275 174.964 339.989 174.964 338.497C174.964 337.017 174.722 335.743 174.239 334.675C173.756 333.601 173.033 332.777 172.073 332.204C171.112 331.625 169.915 331.336 168.483 331.336H164.938V345.73ZM185.865 347.986C184.623 347.986 183.534 347.691 182.597 347.1C181.666 346.509 180.938 345.682 180.413 344.62C179.894 343.558 179.634 342.316 179.634 340.896C179.634 339.464 179.894 338.214 180.413 337.145C180.938 336.077 181.666 335.248 182.597 334.657C183.534 334.066 184.623 333.771 185.865 333.771C187.106 333.771 188.192 334.066 189.123 334.657C190.06 335.248 190.788 336.077 191.307 337.145C191.832 338.214 192.095 339.464 192.095 340.896C192.095 342.316 191.832 343.558 191.307 344.62C190.788 345.682 190.06 346.509 189.123 347.1C188.192 347.691 187.106 347.986 185.865 347.986ZM185.865 346.088C186.808 346.088 187.583 345.846 188.192 345.363C188.801 344.88 189.251 344.244 189.544 343.456C189.836 342.669 189.982 341.815 189.982 340.896C189.982 339.977 189.836 339.121 189.544 338.327C189.251 337.533 188.801 336.892 188.192 336.402C187.583 335.913 186.808 335.668 185.865 335.668C184.922 335.668 184.146 335.913 183.537 336.402C182.928 336.892 182.478 337.533 182.185 338.327C181.893 339.121 181.747 339.977 181.747 340.896C181.747 341.815 181.893 342.669 182.185 343.456C182.478 344.244 182.928 344.88 183.537 345.363C184.146 345.846 184.922 346.088 185.865 346.088ZM200.635 347.986C199.346 347.986 198.236 347.682 197.305 347.073C196.374 346.464 195.657 345.626 195.156 344.557C194.655 343.489 194.404 342.269 194.404 340.896C194.404 339.5 194.661 338.267 195.174 337.199C195.693 336.125 196.415 335.286 197.34 334.684C198.271 334.075 199.357 333.771 200.599 333.771C201.566 333.771 202.437 333.95 203.213 334.308C203.989 334.666 204.624 335.167 205.119 335.812C205.615 336.456 205.922 337.208 206.041 338.067H203.929C203.768 337.441 203.41 336.886 202.855 336.402C202.306 335.913 201.566 335.668 200.635 335.668C199.811 335.668 199.089 335.883 198.468 336.313C197.854 336.737 197.373 337.336 197.027 338.112C196.687 338.882 196.517 339.786 196.517 340.825C196.517 341.887 196.684 342.812 197.018 343.6C197.358 344.387 197.836 344.999 198.45 345.435C199.071 345.87 199.799 346.088 200.635 346.088C201.184 346.088 201.682 345.993 202.13 345.802C202.577 345.611 202.956 345.336 203.266 344.978C203.577 344.62 203.798 344.19 203.929 343.689H206.041C205.922 344.501 205.627 345.232 205.155 345.882C204.69 346.527 204.072 347.04 203.302 347.422C202.538 347.798 201.649 347.986 200.635 347.986ZM217.524 342.078V333.95H219.637V347.699H217.524V345.372H217.381C217.058 346.07 216.557 346.664 215.877 347.153C215.196 347.637 214.337 347.878 213.299 347.878C212.439 347.878 211.675 347.691 211.007 347.315C210.339 346.933 209.813 346.36 209.432 345.596C209.05 344.826 208.859 343.856 208.859 342.686V333.95H210.971V342.543C210.971 343.546 211.252 344.346 211.813 344.942C212.38 345.539 213.102 345.838 213.979 345.838C214.504 345.838 215.038 345.703 215.581 345.435C216.13 345.166 216.59 344.754 216.96 344.199C217.336 343.644 217.524 342.937 217.524 342.078ZM223.235 347.699V333.95H225.276V336.098H225.455C225.741 335.364 226.204 334.794 226.842 334.388C227.481 333.976 228.248 333.771 229.143 333.771C230.05 333.771 230.805 333.976 231.408 334.388C232.016 334.794 232.491 335.364 232.831 336.098H232.974C233.326 335.388 233.854 334.824 234.559 334.406C235.263 333.982 236.107 333.771 237.092 333.771C238.321 333.771 239.327 334.156 240.109 334.925C240.891 335.689 241.281 336.88 241.281 338.497V347.699H239.169V338.497C239.169 337.483 238.891 336.757 238.336 336.322C237.781 335.886 237.128 335.668 236.376 335.668C235.409 335.668 234.66 335.961 234.129 336.546C233.598 337.124 233.332 337.859 233.332 338.748V347.699H231.184V338.282C231.184 337.5 230.93 336.871 230.423 336.393C229.916 335.91 229.262 335.668 228.463 335.668C227.914 335.668 227.4 335.815 226.923 336.107C226.451 336.399 226.069 336.805 225.777 337.324C225.491 337.838 225.347 338.431 225.347 339.106V347.699H223.235ZM250.638 347.986C249.313 347.986 248.17 347.693 247.209 347.109C246.254 346.518 245.517 345.694 244.998 344.638C244.485 343.576 244.228 342.34 244.228 340.932C244.228 339.524 244.485 338.282 244.998 337.208C245.517 336.128 246.24 335.286 247.165 334.684C248.096 334.075 249.182 333.771 250.423 333.771C251.139 333.771 251.846 333.89 252.545 334.129C253.243 334.367 253.878 334.755 254.451 335.292C255.024 335.824 255.481 336.528 255.821 337.405C256.161 338.282 256.331 339.362 256.331 340.646V341.541H245.732V339.715H254.183C254.183 338.939 254.028 338.246 253.717 337.638C253.413 337.029 252.977 336.549 252.41 336.197C251.849 335.844 251.187 335.668 250.423 335.668C249.582 335.668 248.853 335.877 248.239 336.295C247.63 336.707 247.162 337.244 246.833 337.906C246.505 338.569 246.341 339.279 246.341 340.037V341.254C246.341 342.293 246.52 343.173 246.878 343.895C247.242 344.611 247.746 345.157 248.391 345.533C249.035 345.903 249.784 346.088 250.638 346.088C251.193 346.088 251.694 346.011 252.142 345.855C252.595 345.694 252.986 345.456 253.314 345.139C253.643 344.817 253.896 344.417 254.075 343.94L256.116 344.513C255.901 345.205 255.54 345.814 255.033 346.339C254.526 346.858 253.899 347.264 253.153 347.556C252.407 347.843 251.569 347.986 250.638 347.986ZM261.386 339.428V347.699H259.274V333.95H261.315V336.098H261.494C261.816 335.4 262.305 334.839 262.962 334.415C263.618 333.985 264.466 333.771 265.504 333.771C266.435 333.771 267.25 333.962 267.948 334.343C268.646 334.719 269.189 335.292 269.577 336.062C269.965 336.826 270.159 337.793 270.159 338.963V347.699H268.046V339.106C268.046 338.026 267.766 337.184 267.205 336.581C266.644 335.973 265.874 335.668 264.895 335.668C264.221 335.668 263.618 335.815 263.087 336.107C262.562 336.399 262.147 336.826 261.843 337.387C261.538 337.948 261.386 338.628 261.386 339.428ZM279.728 333.95V335.74H272.602V333.95H279.728ZM274.679 330.655H276.792V343.761C276.792 344.357 276.878 344.805 277.051 345.103C277.23 345.396 277.457 345.593 277.732 345.694C278.012 345.79 278.308 345.838 278.618 345.838C278.851 345.838 279.042 345.826 279.191 345.802C279.34 345.772 279.459 345.748 279.549 345.73L279.979 347.628C279.835 347.682 279.635 347.735 279.379 347.789C279.122 347.849 278.797 347.878 278.403 347.878C277.806 347.878 277.222 347.75 276.649 347.494C276.082 347.237 275.61 346.846 275.234 346.321C274.864 345.796 274.679 345.133 274.679 344.334V330.655ZM286.681 348.022C285.81 348.022 285.019 347.858 284.309 347.529C283.598 347.195 283.035 346.715 282.617 346.088C282.199 345.456 281.99 344.692 281.99 343.797C281.99 343.009 282.145 342.37 282.456 341.881C282.766 341.386 283.181 340.998 283.7 340.717C284.219 340.437 284.792 340.228 285.419 340.091C286.051 339.947 286.687 339.834 287.325 339.75C288.161 339.643 288.838 339.562 289.357 339.509C289.883 339.449 290.265 339.35 290.503 339.213C290.748 339.076 290.87 338.837 290.87 338.497V338.425C290.87 337.542 290.629 336.856 290.145 336.367C289.668 335.877 288.943 335.633 287.97 335.633C286.961 335.633 286.171 335.853 285.598 336.295C285.025 336.737 284.622 337.208 284.389 337.709L282.384 336.993C282.742 336.158 283.22 335.507 283.816 335.042C284.419 334.57 285.076 334.242 285.786 334.057C286.502 333.866 287.206 333.771 287.898 333.771C288.34 333.771 288.847 333.824 289.42 333.932C289.999 334.033 290.557 334.245 291.094 334.567C291.637 334.89 292.088 335.376 292.446 336.026C292.804 336.677 292.983 337.548 292.983 338.64V347.699H290.87V345.838H290.763C290.62 346.136 290.381 346.455 290.047 346.795C289.713 347.136 289.268 347.425 288.713 347.664C288.158 347.902 287.481 348.022 286.681 348.022ZM287.003 346.124C287.839 346.124 288.543 345.96 289.116 345.632C289.695 345.303 290.13 344.88 290.423 344.36C290.721 343.841 290.87 343.295 290.87 342.722V340.789C290.781 340.896 290.584 340.995 290.279 341.084C289.981 341.168 289.635 341.242 289.241 341.308C288.853 341.368 288.474 341.421 288.104 341.469C287.74 341.511 287.445 341.547 287.218 341.576C286.669 341.648 286.156 341.764 285.678 341.926C285.207 342.081 284.825 342.316 284.532 342.633C284.246 342.943 284.103 343.367 284.103 343.904C284.103 344.638 284.374 345.193 284.917 345.569C285.466 345.939 286.162 346.124 287.003 346.124ZM302.547 333.95V335.74H295.422V333.95H302.547ZM297.499 330.655H299.611V343.761C299.611 344.357 299.698 344.805 299.871 345.103C300.05 345.396 300.277 345.593 300.551 345.694C300.832 345.79 301.127 345.838 301.437 345.838C301.67 345.838 301.861 345.826 302.01 345.802C302.16 345.772 302.279 345.748 302.368 345.73L302.798 347.628C302.655 347.682 302.455 347.735 302.198 347.789C301.942 347.849 301.616 347.878 301.223 347.878C300.626 347.878 300.041 347.75 299.468 347.494C298.901 347.237 298.43 346.846 298.054 346.321C297.684 345.796 297.499 345.133 297.499 344.334V330.655ZM305.454 347.699V333.95H307.567V347.699H305.454ZM306.528 331.658C306.117 331.658 305.761 331.518 305.463 331.237C305.171 330.957 305.024 330.62 305.024 330.226C305.024 329.832 305.171 329.495 305.463 329.214C305.761 328.934 306.117 328.793 306.528 328.793C306.94 328.793 307.292 328.934 307.585 329.214C307.883 329.495 308.032 329.832 308.032 330.226C308.032 330.62 307.883 330.957 307.585 331.237C307.292 331.518 306.94 331.658 306.528 331.658ZM316.751 347.986C315.51 347.986 314.42 347.691 313.483 347.1C312.553 346.509 311.824 345.682 311.299 344.62C310.78 343.558 310.52 342.316 310.52 340.896C310.52 339.464 310.78 338.214 311.299 337.145C311.824 336.077 312.553 335.248 313.483 334.657C314.42 334.066 315.51 333.771 316.751 333.771C317.992 333.771 319.078 334.066 320.009 334.657C320.946 335.248 321.674 336.077 322.194 337.145C322.719 338.214 322.981 339.464 322.981 340.896C322.981 342.316 322.719 343.558 322.194 344.62C321.674 345.682 320.946 346.509 320.009 347.1C319.078 347.691 317.992 347.986 316.751 347.986ZM316.751 346.088C317.694 346.088 318.47 345.846 319.078 345.363C319.687 344.88 320.138 344.244 320.43 343.456C320.722 342.669 320.869 341.815 320.869 340.896C320.869 339.977 320.722 339.121 320.43 338.327C320.138 337.533 319.687 336.892 319.078 336.402C318.47 335.913 317.694 335.668 316.751 335.668C315.808 335.668 315.032 335.913 314.423 336.402C313.815 336.892 313.364 337.533 313.072 338.327C312.779 339.121 312.633 339.977 312.633 340.896C312.633 341.815 312.779 342.669 313.072 343.456C313.364 344.244 313.815 344.88 314.423 345.363C315.032 345.846 315.808 346.088 316.751 346.088ZM328.048 339.428V347.699H325.935V333.95H327.976V336.098H328.155C328.477 335.4 328.967 334.839 329.623 334.415C330.28 333.985 331.127 333.771 332.165 333.771C333.096 333.771 333.911 333.962 334.609 334.343C335.307 334.719 335.85 335.292 336.238 336.062C336.626 336.826 336.82 337.793 336.82 338.963V347.699H334.708V339.106C334.708 338.026 334.427 337.184 333.866 336.581C333.305 335.973 332.535 335.668 331.557 335.668C330.882 335.668 330.28 335.815 329.748 336.107C329.223 336.399 328.808 336.826 328.504 337.387C328.2 337.948 328.048 338.628 328.048 339.428Z" fill="white"/>
<path d="M168.84 364.734C168.774 364.146 168.5 363.69 168.02 363.367C167.539 363.039 166.934 362.876 166.204 362.876C165.682 362.876 165.231 362.959 164.849 363.124C164.468 363.286 164.172 363.51 163.96 363.796C163.753 364.077 163.65 364.399 163.65 364.759C163.65 365.062 163.72 365.323 163.861 365.542C164.006 365.762 164.195 365.946 164.427 366.096C164.663 366.241 164.916 366.363 165.185 366.462C165.454 366.558 165.713 366.636 165.962 366.699L167.205 367.022C167.611 367.121 168.028 367.256 168.455 367.426C168.882 367.596 169.277 367.82 169.642 368.097C170.007 368.375 170.301 368.719 170.525 369.129C170.753 369.539 170.867 370.03 170.867 370.602C170.867 371.323 170.68 371.964 170.307 372.523C169.938 373.083 169.402 373.524 168.697 373.847C167.997 374.17 167.149 374.332 166.155 374.332C165.202 374.332 164.377 374.181 163.681 373.878C162.984 373.576 162.44 373.147 162.046 372.591C161.652 372.032 161.435 371.369 161.393 370.602H163.32C163.357 371.062 163.507 371.446 163.768 371.752C164.033 372.055 164.371 372.281 164.781 372.43C165.195 372.575 165.649 372.647 166.142 372.647C166.685 372.647 167.168 372.562 167.591 372.393C168.017 372.218 168.353 371.978 168.598 371.671C168.842 371.361 168.964 370.998 168.964 370.584C168.964 370.207 168.857 369.898 168.641 369.657C168.43 369.417 168.142 369.218 167.777 369.061C167.417 368.903 167.008 368.764 166.553 368.644L165.048 368.234C164.029 367.956 163.221 367.548 162.624 367.009C162.031 366.471 161.735 365.758 161.735 364.871C161.735 364.138 161.934 363.497 162.332 362.95C162.73 362.403 163.268 361.978 163.948 361.676C164.628 361.369 165.394 361.216 166.248 361.216C167.11 361.216 167.87 361.367 168.529 361.67C169.192 361.972 169.714 362.389 170.096 362.919C170.477 363.445 170.676 364.05 170.692 364.734H168.84ZM172.457 377.701V364.573H174.272V366.12H174.428C174.535 365.922 174.691 365.692 174.894 365.43C175.097 365.169 175.379 364.941 175.739 364.747C176.1 364.548 176.576 364.448 177.169 364.448C177.94 364.448 178.628 364.643 179.233 365.033C179.838 365.422 180.312 365.984 180.656 366.717C181.004 367.451 181.178 368.333 181.178 369.365C181.178 370.397 181.006 371.282 180.662 372.02C180.318 372.753 179.846 373.319 179.245 373.717C178.644 374.11 177.958 374.307 177.188 374.307C176.607 374.307 176.133 374.21 175.764 374.015C175.399 373.82 175.113 373.592 174.906 373.331C174.699 373.07 174.54 372.838 174.428 372.635H174.316V377.701H172.457ZM174.278 369.347C174.278 370.018 174.376 370.606 174.571 371.112C174.765 371.618 175.047 372.013 175.416 372.299C175.785 372.581 176.237 372.722 176.771 372.722C177.326 372.722 177.791 372.575 178.164 372.281C178.536 371.982 178.818 371.578 179.009 371.068C179.204 370.559 179.301 369.985 179.301 369.347C179.301 368.717 179.206 368.151 179.015 367.65C178.829 367.148 178.547 366.752 178.17 366.462C177.797 366.172 177.331 366.027 176.771 366.027C176.232 366.027 175.777 366.166 175.404 366.444C175.035 366.721 174.755 367.109 174.564 367.606C174.374 368.103 174.278 368.684 174.278 369.347ZM186.82 374.313C185.88 374.313 185.069 374.112 184.39 373.71C183.714 373.304 183.192 372.734 182.823 372.001C182.459 371.263 182.276 370.399 182.276 369.409C182.276 368.431 182.459 367.569 182.823 366.823C183.192 366.077 183.706 365.495 184.365 365.076C185.028 364.658 185.803 364.448 186.69 364.448C187.228 364.448 187.751 364.537 188.256 364.716C188.762 364.894 189.216 365.174 189.618 365.555C190.02 365.936 190.337 366.431 190.569 367.04C190.801 367.645 190.917 368.381 190.917 369.247V369.906H183.327V368.514H189.095C189.095 368.025 188.996 367.592 188.797 367.215C188.598 366.833 188.318 366.533 187.958 366.313C187.601 366.094 187.183 365.984 186.702 365.984C186.18 365.984 185.724 366.112 185.335 366.369C184.949 366.622 184.651 366.953 184.44 367.364C184.232 367.77 184.129 368.211 184.129 368.688V369.776C184.129 370.414 184.241 370.957 184.464 371.404C184.692 371.852 185.009 372.194 185.415 372.43C185.822 372.662 186.296 372.778 186.839 372.778C187.191 372.778 187.512 372.728 187.802 372.629C188.093 372.525 188.343 372.372 188.555 372.169C188.766 371.966 188.928 371.715 189.039 371.417L190.799 371.734C190.658 372.252 190.405 372.705 190.04 373.095C189.68 373.48 189.226 373.781 188.679 373.996C188.136 374.208 187.516 374.313 186.82 374.313ZM196.445 374.313C195.521 374.313 194.725 374.104 194.058 373.685C193.395 373.263 192.885 372.681 192.529 371.939C192.173 371.197 191.994 370.347 191.994 369.39C191.994 368.42 192.177 367.565 192.541 366.823C192.906 366.077 193.42 365.495 194.083 365.076C194.746 364.658 195.527 364.448 196.427 364.448C197.152 364.448 197.798 364.583 198.366 364.852C198.934 365.118 199.392 365.491 199.74 365.971C200.092 366.452 200.301 367.014 200.368 367.656H198.559C198.459 367.208 198.231 366.823 197.875 366.5C197.523 366.176 197.05 366.015 196.458 366.015C195.94 366.015 195.486 366.152 195.096 366.425C194.711 366.694 194.41 367.08 194.195 367.581C193.979 368.079 193.872 368.667 193.872 369.347C193.872 370.043 193.977 370.644 194.189 371.149C194.4 371.655 194.698 372.046 195.084 372.324C195.473 372.602 195.931 372.741 196.458 372.741C196.81 372.741 197.129 372.676 197.415 372.548C197.705 372.415 197.947 372.227 198.142 371.982C198.341 371.738 198.48 371.444 198.559 371.1H200.368C200.301 371.717 200.1 372.268 199.765 372.753C199.429 373.238 198.979 373.619 198.416 373.897C197.856 374.174 197.199 374.313 196.445 374.313ZM201.8 374.121V364.573H203.658V374.121H201.8ZM202.738 363.099C202.415 363.099 202.137 362.992 201.905 362.776C201.677 362.557 201.563 362.295 201.563 361.993C201.563 361.686 201.677 361.425 201.905 361.21C202.137 360.99 202.415 360.88 202.738 360.88C203.062 360.88 203.337 360.99 203.565 361.21C203.797 361.425 203.913 361.686 203.913 361.993C203.913 362.295 203.797 362.557 203.565 362.776C203.337 362.992 203.062 363.099 202.738 363.099ZM210.147 364.573V366.065H204.752V364.573H210.147ZM206.231 374.121V363.466C206.231 362.869 206.362 362.374 206.623 361.981C206.884 361.583 207.23 361.286 207.661 361.092C208.092 360.893 208.56 360.793 209.066 360.793C209.439 360.793 209.758 360.824 210.023 360.886C210.288 360.945 210.485 360.998 210.613 361.048L210.178 362.552C210.091 362.528 209.979 362.499 209.843 362.465C209.706 362.428 209.54 362.409 209.345 362.409C208.894 362.409 208.57 362.521 208.376 362.745C208.185 362.969 208.09 363.292 208.09 363.715V374.121H206.231ZM211.509 374.121V364.573H213.368V374.121H211.509ZM212.448 363.099C212.125 363.099 211.847 362.992 211.615 362.776C211.387 362.557 211.273 362.295 211.273 361.993C211.273 361.686 211.387 361.425 211.615 361.21C211.847 360.99 212.125 360.88 212.448 360.88C212.771 360.88 213.047 360.99 213.275 361.21C213.507 361.425 213.623 361.686 213.623 361.993C213.623 362.295 213.507 362.557 213.275 362.776C213.047 362.992 212.771 363.099 212.448 363.099ZM219.335 374.313C218.411 374.313 217.615 374.104 216.948 373.685C216.285 373.263 215.775 372.681 215.419 371.939C215.062 371.197 214.884 370.347 214.884 369.39C214.884 368.42 215.066 367.565 215.431 366.823C215.796 366.077 216.31 365.495 216.973 365.076C217.636 364.658 218.417 364.448 219.316 364.448C220.041 364.448 220.688 364.583 221.255 364.852C221.823 365.118 222.281 365.491 222.629 365.971C222.981 366.452 223.191 367.014 223.257 367.656H221.448C221.349 367.208 221.121 366.823 220.764 366.5C220.412 366.176 219.94 366.015 219.347 366.015C218.829 366.015 218.375 366.152 217.986 366.425C217.6 366.694 217.3 367.08 217.084 367.581C216.869 368.079 216.761 368.667 216.761 369.347C216.761 370.043 216.867 370.644 217.078 371.149C217.29 371.655 217.588 372.046 217.973 372.324C218.363 372.602 218.821 372.741 219.347 372.741C219.699 372.741 220.018 372.676 220.304 372.548C220.594 372.415 220.837 372.227 221.032 371.982C221.231 371.738 221.369 371.444 221.448 371.1H223.257C223.191 371.717 222.99 372.268 222.654 372.753C222.318 373.238 221.869 373.619 221.305 373.897C220.746 374.174 220.089 374.313 219.335 374.313ZM227.468 374.332C226.863 374.332 226.316 374.22 225.827 373.996C225.338 373.768 224.95 373.439 224.664 373.008C224.382 372.577 224.242 372.049 224.242 371.423C224.242 370.884 224.345 370.441 224.552 370.093C224.76 369.744 225.039 369.469 225.392 369.266C225.744 369.063 226.137 368.909 226.573 368.806C227.008 368.702 227.451 368.623 227.903 368.57C228.475 368.503 228.939 368.449 229.295 368.408C229.652 368.362 229.911 368.29 230.072 368.19C230.234 368.091 230.315 367.929 230.315 367.706V367.662C230.315 367.119 230.161 366.699 229.855 366.4C229.552 366.102 229.101 365.953 228.5 365.953C227.874 365.953 227.381 366.091 227.02 366.369C226.664 366.643 226.417 366.947 226.28 367.283L224.534 366.885C224.741 366.305 225.043 365.837 225.441 365.48C225.843 365.12 226.305 364.859 226.827 364.697C227.35 364.531 227.899 364.448 228.475 364.448C228.856 364.448 229.26 364.494 229.687 364.585C230.118 364.672 230.52 364.834 230.893 365.07C231.27 365.306 231.579 365.644 231.819 366.083C232.059 366.518 232.18 367.084 232.18 367.78V374.121H230.364V372.815H230.29C230.17 373.056 229.989 373.292 229.749 373.524C229.509 373.756 229.2 373.949 228.823 374.102C228.446 374.255 227.994 374.332 227.468 374.332ZM227.872 372.84C228.386 372.84 228.825 372.739 229.19 372.535C229.558 372.332 229.838 372.067 230.029 371.74C230.224 371.408 230.321 371.054 230.321 370.677V369.446C230.255 369.512 230.126 369.575 229.936 369.633C229.749 369.686 229.536 369.734 229.295 369.776C229.055 369.813 228.821 369.848 228.593 369.881C228.365 369.91 228.174 369.935 228.021 369.956C227.66 370.001 227.331 370.078 227.033 370.186C226.738 370.294 226.502 370.449 226.324 370.652C226.15 370.851 226.063 371.116 226.063 371.448C226.063 371.908 226.233 372.256 226.573 372.492C226.912 372.724 227.345 372.84 227.872 372.84ZM238.557 364.573V366.065H233.341V364.573H238.557ZM234.74 362.285H236.598V371.317C236.598 371.678 236.652 371.949 236.76 372.131C236.868 372.31 237.007 372.432 237.177 372.498C237.351 372.56 237.539 372.591 237.742 372.591C237.891 372.591 238.022 372.581 238.134 372.56C238.246 372.54 238.333 372.523 238.395 372.511L238.731 374.046C238.623 374.087 238.47 374.129 238.271 374.17C238.072 374.216 237.823 374.241 237.525 374.245C237.036 374.253 236.58 374.166 236.157 373.984C235.734 373.802 235.393 373.52 235.131 373.138C234.87 372.757 234.74 372.279 234.74 371.703V362.285ZM240.057 374.121V364.573H241.916V374.121H240.057ZM240.996 363.099C240.672 363.099 240.395 362.992 240.163 362.776C239.935 362.557 239.821 362.295 239.821 361.993C239.821 361.686 239.935 361.425 240.163 361.21C240.395 360.99 240.672 360.88 240.996 360.88C241.319 360.88 241.594 360.99 241.822 361.21C242.054 361.425 242.171 361.686 242.171 361.993C242.171 362.295 242.054 362.557 241.822 362.776C241.594 362.992 241.319 363.099 240.996 363.099ZM247.882 374.313C246.987 374.313 246.206 374.108 245.539 373.698C244.872 373.288 244.354 372.714 243.985 371.976C243.616 371.238 243.432 370.376 243.432 369.39C243.432 368.4 243.616 367.534 243.985 366.792C244.354 366.05 244.872 365.474 245.539 365.064C246.206 364.653 246.987 364.448 247.882 364.448C248.778 364.448 249.559 364.653 250.226 365.064C250.893 365.474 251.411 366.05 251.78 366.792C252.149 367.534 252.333 368.4 252.333 369.39C252.333 370.376 252.149 371.238 251.78 371.976C251.411 372.714 250.893 373.288 250.226 373.698C249.559 374.108 248.778 374.313 247.882 374.313ZM247.889 372.753C248.469 372.753 248.949 372.6 249.331 372.293C249.712 371.986 249.994 371.578 250.176 371.068C250.363 370.559 250.456 369.997 250.456 369.384C250.456 368.775 250.363 368.215 250.176 367.706C249.994 367.192 249.712 366.779 249.331 366.469C248.949 366.158 248.469 366.002 247.889 366.002C247.304 366.002 246.819 366.158 246.434 366.469C246.053 366.779 245.769 367.192 245.582 367.706C245.4 368.215 245.309 368.775 245.309 369.384C245.309 369.997 245.4 370.559 245.582 371.068C245.769 371.578 246.053 371.986 246.434 372.293C246.819 372.6 247.304 372.753 247.889 372.753ZM255.711 368.452V374.121H253.852V364.573H255.636V366.127H255.754C255.974 365.621 256.318 365.215 256.786 364.908C257.259 364.602 257.853 364.448 258.57 364.448C259.221 364.448 259.791 364.585 260.28 364.859C260.769 365.128 261.148 365.53 261.417 366.065C261.687 366.599 261.821 367.26 261.821 368.047V374.121H259.963V368.271C259.963 367.579 259.782 367.038 259.422 366.649C259.061 366.255 258.566 366.058 257.936 366.058C257.505 366.058 257.122 366.152 256.786 366.338C256.455 366.525 256.192 366.798 255.997 367.159C255.806 367.515 255.711 367.946 255.711 368.452ZM270.913 366.904L269.229 367.202C269.158 366.987 269.046 366.781 268.893 366.587C268.744 366.392 268.541 366.232 268.284 366.108C268.027 365.984 267.706 365.922 267.32 365.922C266.794 365.922 266.355 366.04 266.002 366.276C265.65 366.508 265.474 366.808 265.474 367.177C265.474 367.496 265.592 367.753 265.828 367.948C266.065 368.143 266.446 368.302 266.972 368.427L268.489 368.775C269.367 368.978 270.022 369.291 270.453 369.713C270.884 370.136 271.1 370.685 271.1 371.361C271.1 371.933 270.934 372.442 270.602 372.89C270.275 373.333 269.817 373.681 269.229 373.934C268.644 374.187 267.967 374.313 267.196 374.313C266.127 374.313 265.254 374.085 264.579 373.63C263.903 373.17 263.489 372.517 263.336 371.671L265.132 371.398C265.244 371.866 265.474 372.221 265.822 372.461C266.17 372.697 266.624 372.815 267.184 372.815C267.793 372.815 268.28 372.689 268.644 372.436C269.009 372.179 269.191 371.866 269.191 371.497C269.191 371.199 269.079 370.948 268.856 370.745C268.636 370.542 268.298 370.389 267.842 370.285L266.226 369.931C265.335 369.728 264.676 369.405 264.25 368.961C263.827 368.518 263.615 367.956 263.615 367.277C263.615 366.713 263.773 366.22 264.088 365.797C264.403 365.375 264.838 365.045 265.393 364.809C265.949 364.569 266.585 364.448 267.302 364.448C268.334 364.448 269.146 364.672 269.738 365.12C270.331 365.563 270.723 366.158 270.913 366.904Z" fill="white" fill-opacity="0.25"/>
<path d="M54.5328 304.973H115.138C130.848 304.973 143.584 317.708 143.584 333.419V357.842C143.584 373.552 130.848 386.288 115.138 386.288H54.5328C38.8226 386.288 26.0869 373.552 26.0869 357.842V333.419C26.0869 317.708 38.8226 304.973 54.5328 304.973Z" fill="black" fill-opacity="0.89" stroke="url(#paint2_linear_1033_1735)"/>
<g clip-path="url(#clip0_1033_1735)">
<path d="M82.9267 331.049L97.6143 345.737C99.4136 347.536 100.424 349.977 100.424 352.521C100.424 355.066 99.4136 357.506 97.6143 359.306C95.8149 361.105 93.3745 362.116 90.8298 362.116C88.2852 362.116 85.8448 361.105 84.0454 359.306L69.3578 344.618C68.1583 343.419 67.4844 341.792 67.4844 340.095C67.4844 338.399 68.1583 336.772 69.3578 335.572C70.5574 334.373 72.1844 333.699 73.8808 333.699C75.5772 333.699 77.2042 334.373 78.4037 335.572L93.0913 350.276C93.6911 350.876 94.0281 351.689 94.0281 352.537C94.0281 353.386 93.6911 354.199 93.0913 354.799C92.4915 355.399 91.6781 355.736 90.8298 355.736C89.9816 355.736 89.1682 355.399 88.5684 354.799L75.0155 341.23" stroke="#DBFF00" stroke-width="3.19643" stroke-linecap="round" stroke-linejoin="round"/>
</g>
<defs>
<linearGradient id="paint0_linear_1033_1735" x1="84.8355" y1="23.8127" x2="84.8355" y2="106.128" gradientUnits="userSpaceOnUse">
<stop stop-color="#666666"/>
<stop offset="1"/>
</linearGradient>
<linearGradient id="paint1_linear_1033_1735" x1="84.8355" y1="161.497" x2="84.8355" y2="243.812" gradientUnits="userSpaceOnUse">
<stop stop-color="#666666"/>
<stop offset="1"/>
</linearGradient>
<linearGradient id="paint2_linear_1033_1735" x1="84.8355" y1="304.473" x2="84.8355" y2="386.788" gradientUnits="userSpaceOnUse">
<stop stop-color="#666666"/>
<stop offset="1"/>
</linearGradient>
<clipPath id="clip0_1033_1735">
<rect width="38.3571" height="38.3571" fill="white" transform="matrix(0 -1 1 0 65.2666 365.315)"/>
</clipPath>
</defs>
</svg>
