<svg width="403" height="423" viewBox="0 0 403 423" fill="none" xmlns="http://www.w3.org/2000/svg">
<rect x="0.456055" y="0.746338" width="402.089" height="421.929" rx="39.6798" fill="#0F0D0B"/>
<rect x="1.11738" y="1.40755" width="400.766" height="420.606" rx="39.0185" stroke="#292929" stroke-width="1.32266"/>
<path d="M34.0639 58.3298V42.9389H43.2925V44.5922H35.9277V49.7927H42.6011V51.446H35.9277V58.3298H34.0639ZM50.8978 58.5703C49.7856 58.5703 48.8261 58.3248 48.0195 57.8338C47.2179 57.3378 46.5992 56.6464 46.1633 55.7597C45.7324 54.8679 45.517 53.8308 45.517 52.6484C45.517 51.466 45.7324 50.4239 46.1633 49.5221C46.5992 48.6153 47.2054 47.9089 47.9819 47.4029C48.7635 46.8918 49.6753 46.6363 50.7174 46.6363C51.3186 46.6363 51.9123 46.7365 52.4985 46.9369C53.0847 47.1373 53.6183 47.463 54.0992 47.9139C54.5802 48.3598 54.9635 48.951 55.2491 49.6875C55.5346 50.4239 55.6774 51.3308 55.6774 52.4079V53.1594H46.7795V51.6264H53.8738C53.8738 50.975 53.7435 50.3939 53.483 49.8828C53.2275 49.3718 52.8617 48.9685 52.3858 48.6729C51.9148 48.3773 51.3587 48.2295 50.7174 48.2295C50.011 48.2295 49.3998 48.4049 48.8837 48.7556C48.3727 49.1013 47.9794 49.5522 47.7039 50.1083C47.4283 50.6644 47.2905 51.2606 47.2905 51.8969V52.919C47.2905 53.7907 47.4408 54.5297 47.7415 55.1359C48.0471 55.7371 48.4704 56.1955 49.0115 56.5112C49.5526 56.8218 50.1814 56.9771 50.8978 56.9771C51.3637 56.9771 51.7846 56.912 52.1603 56.7817C52.5411 56.6464 52.8693 56.446 53.1448 56.1805C53.4204 55.91 53.6333 55.5743 53.7836 55.1735L55.497 55.6545C55.3167 56.2356 55.0136 56.7466 54.5877 57.1875C54.1619 57.6234 53.6358 57.9641 53.0095 58.2096C52.3833 58.4501 51.6794 58.5703 50.8978 58.5703ZM62.4335 58.6004C61.702 58.6004 61.0382 58.4626 60.442 58.187C59.8458 57.9065 59.3723 57.5032 59.0216 56.9771C58.6709 56.446 58.4956 55.8048 58.4956 55.0532C58.4956 54.3919 58.6258 53.8558 58.8864 53.445C59.1469 53.0292 59.4951 52.7035 59.931 52.468C60.3668 52.2326 60.8478 52.0572 61.3739 51.942C61.9049 51.8217 62.4385 51.7266 62.9746 51.6564C63.676 51.5662 64.2446 51.4986 64.6805 51.4535C65.1214 51.4034 65.442 51.3207 65.6425 51.2055C65.8479 51.0903 65.9506 50.8899 65.9506 50.6043V50.5442C65.9506 49.8027 65.7477 49.2265 65.3418 48.8157C64.941 48.4049 64.3323 48.1995 63.5157 48.1995C62.669 48.1995 62.0051 48.3848 61.5242 48.7556C61.0432 49.1263 60.705 49.5221 60.5096 49.943L58.8262 49.3418C59.1268 48.6403 59.5277 48.0942 60.0287 47.7035C60.5347 47.3077 61.0858 47.0321 61.682 46.8768C62.2832 46.7165 62.8744 46.6363 63.4556 46.6363C63.8263 46.6363 64.2522 46.6814 64.7331 46.7716C65.2191 46.8568 65.6875 47.0346 66.1385 47.3052C66.5944 47.5757 66.9726 47.984 67.2732 48.5301C67.5738 49.0762 67.7241 49.8077 67.7241 50.7245V58.3298H65.9506V56.7667H65.8604C65.7401 57.0172 65.5397 57.2852 65.2592 57.5708C64.9786 57.8564 64.6054 58.0994 64.1394 58.2998C63.6735 58.5002 63.1048 58.6004 62.4335 58.6004ZM62.704 57.0072C63.4055 57.0072 63.9966 56.8694 64.4776 56.5938C64.9636 56.3183 65.3293 55.9626 65.5748 55.5267C65.8253 55.0908 65.9506 54.6324 65.9506 54.1514V52.5282C65.8754 52.6183 65.7101 52.701 65.4546 52.7762C65.2041 52.8463 64.9135 52.9089 64.5828 52.964C64.2572 53.0141 63.939 53.0592 63.6284 53.0993C63.3228 53.1344 63.0748 53.1644 62.8844 53.1895C62.4235 53.2496 61.9926 53.3473 61.5918 53.4826C61.196 53.6128 60.8754 53.8107 60.6299 54.0763C60.3894 54.3368 60.2691 54.6925 60.2691 55.1434C60.2691 55.7597 60.4971 56.2256 60.953 56.5412C61.4139 56.8519 61.9976 57.0072 62.704 57.0072ZM76.6427 46.7866V48.2896H70.6607V46.7866H76.6427ZM72.4042 44.0211H74.1777V55.0232C74.1777 55.5242 74.2504 55.8999 74.3957 56.1505C74.546 56.3959 74.7364 56.5613 74.9668 56.6464C75.2023 56.7266 75.4503 56.7667 75.7108 56.7667C75.9062 56.7667 76.0665 56.7567 76.1918 56.7366C76.317 56.7116 76.4172 56.6915 76.4924 56.6765L76.8531 58.2697C76.7329 58.3148 76.565 58.3599 76.3496 58.405C76.1342 58.4551 75.8611 58.4801 75.5305 58.4801C75.0295 58.4801 74.5385 58.3724 74.0575 58.157C73.5815 57.9416 73.1857 57.6134 72.8701 57.1725C72.5595 56.7316 72.4042 56.1755 72.4042 55.5042V44.0211ZM87.2465 53.6103V46.7866H89.0201V58.3298H87.2465V56.3759H87.1263C86.8557 56.9621 86.4349 57.4606 85.8637 57.8714C85.2926 58.2772 84.5711 58.4801 83.6994 58.4801C82.9779 58.4801 82.3367 58.3223 81.7755 58.0067C81.2144 57.686 80.7735 57.2051 80.4529 56.5638C80.1322 55.9175 79.9719 55.1033 79.9719 54.1214V46.7866H81.7455V54.0011C81.7455 54.8428 81.9809 55.5142 82.4519 56.0152C82.9278 56.5162 83.5341 56.7667 84.2705 56.7667C84.7114 56.7667 85.1598 56.654 85.6157 56.4285C86.0767 56.2031 86.4625 55.8574 86.7731 55.3914C87.0887 54.9255 87.2465 54.3318 87.2465 53.6103ZM92.9298 58.3298V46.7866H94.6433V48.5301H94.7635C94.9739 47.959 95.3547 47.4955 95.9058 47.1398C96.4569 46.7841 97.0782 46.6063 97.7696 46.6063C97.8998 46.6063 98.0627 46.6088 98.258 46.6138C98.4534 46.6188 98.6012 46.6263 98.7014 46.6363V48.4399C98.6413 48.4249 98.5035 48.4024 98.2881 48.3723C98.0777 48.3372 97.8547 48.3197 97.6193 48.3197C97.0581 48.3197 96.5571 48.4374 96.1162 48.6729C95.6804 48.9034 95.3347 49.224 95.0792 49.6348C94.8287 50.0407 94.7034 50.5041 94.7034 51.0251V58.3298H92.9298ZM105.954 58.5703C104.841 58.5703 103.882 58.3248 103.075 57.8338C102.274 57.3378 101.655 56.6464 101.219 55.7597C100.788 54.8679 100.573 53.8308 100.573 52.6484C100.573 51.466 100.788 50.4239 101.219 49.5221C101.655 48.6153 102.261 47.9089 103.038 47.4029C103.819 46.8918 104.731 46.6363 105.773 46.6363C106.374 46.6363 106.968 46.7365 107.554 46.9369C108.14 47.1373 108.674 47.463 109.155 47.9139C109.636 48.3598 110.019 48.951 110.305 49.6875C110.59 50.4239 110.733 51.3308 110.733 52.4079V53.1594H101.835V51.6264H108.93C108.93 50.975 108.799 50.3939 108.539 49.8828C108.283 49.3718 107.917 48.9685 107.442 48.6729C106.971 48.3773 106.414 48.2295 105.773 48.2295C105.067 48.2295 104.456 48.4049 103.939 48.7556C103.428 49.1013 103.035 49.5522 102.76 50.1083C102.484 50.6644 102.346 51.2606 102.346 51.8969V52.919C102.346 53.7907 102.497 54.5297 102.797 55.1359C103.103 55.7371 103.526 56.1955 104.067 56.5112C104.608 56.8218 105.237 56.9771 105.954 56.9771C106.419 56.9771 106.84 56.912 107.216 56.7817C107.597 56.6464 107.925 56.446 108.201 56.1805C108.476 55.91 108.689 55.5743 108.839 55.1735L110.553 55.6545C110.372 56.2356 110.069 56.7466 109.643 57.1875C109.218 57.6234 108.692 57.9641 108.065 58.2096C107.439 58.4501 106.735 58.5703 105.954 58.5703ZM122.75 46.7866C122.66 46.0251 122.294 45.4339 121.653 45.0131C121.011 44.5922 120.225 44.3818 119.293 44.3818C118.611 44.3818 118.015 44.492 117.504 44.7124C116.998 44.9329 116.602 45.236 116.317 45.6218C116.036 46.0076 115.896 46.4459 115.896 46.9369C115.896 47.3477 115.994 47.701 116.189 47.9966C116.39 48.2871 116.645 48.5301 116.956 48.7255C117.266 48.9159 117.592 49.0737 117.933 49.199C118.273 49.3192 118.586 49.4169 118.872 49.4921L120.435 49.9129C120.836 50.0181 121.282 50.1634 121.773 50.3488C122.269 50.5342 122.742 50.7872 123.193 51.1078C123.649 51.4234 124.025 51.8293 124.32 52.3253C124.616 52.8213 124.764 53.43 124.764 54.1514C124.764 54.9831 124.546 55.7346 124.11 56.406C123.679 57.0773 123.048 57.6109 122.216 58.0067C121.39 58.4025 120.385 58.6004 119.203 58.6004C118.1 58.6004 117.146 58.4225 116.339 58.0668C115.538 57.7111 114.907 57.2151 114.446 56.5788C113.99 55.9425 113.732 55.2035 113.672 54.3619H115.595C115.646 54.943 115.841 55.424 116.182 55.8048C116.527 56.1805 116.963 56.4611 117.489 56.6464C118.02 56.8268 118.591 56.917 119.203 56.917C119.914 56.917 120.553 56.8018 121.119 56.5713C121.685 56.3358 122.134 56.0102 122.464 55.5943C122.795 55.1735 122.96 54.6825 122.96 54.1214C122.96 53.6103 122.817 53.1945 122.532 52.8739C122.246 52.5532 121.871 52.2927 121.405 52.0923C120.939 51.8919 120.435 51.7165 119.894 51.5662L118 51.0251C116.798 50.6794 115.846 50.186 115.145 49.5447C114.443 48.9034 114.092 48.0642 114.092 47.0271C114.092 46.1654 114.325 45.4139 114.791 44.7726C115.262 44.1263 115.894 43.6253 116.685 43.2695C117.482 42.9088 118.371 42.7285 119.353 42.7285C120.345 42.7285 121.227 42.9063 121.998 43.262C122.77 43.6127 123.381 44.0937 123.832 44.7049C124.288 45.3162 124.528 46.0101 124.553 46.7866H122.75ZM133.089 58.5703C131.976 58.5703 131.017 58.3248 130.21 57.8338C129.409 57.3378 128.79 56.6464 128.354 55.7597C127.923 54.8679 127.708 53.8308 127.708 52.6484C127.708 51.466 127.923 50.4239 128.354 49.5221C128.79 48.6153 129.396 47.9089 130.173 47.4029C130.954 46.8918 131.866 46.6363 132.908 46.6363C133.51 46.6363 134.103 46.7365 134.689 46.9369C135.276 47.1373 135.809 47.463 136.29 47.9139C136.771 48.3598 137.154 48.951 137.44 49.6875C137.726 50.4239 137.868 51.3308 137.868 52.4079V53.1594H128.97V51.6264H136.065C136.065 50.975 135.934 50.3939 135.674 49.8828C135.418 49.3718 135.053 48.9685 134.577 48.6729C134.106 48.3773 133.55 48.2295 132.908 48.2295C132.202 48.2295 131.591 48.4049 131.075 48.7556C130.564 49.1013 130.17 49.5522 129.895 50.1083C129.619 50.6644 129.481 51.2606 129.481 51.8969V52.919C129.481 53.7907 129.632 54.5297 129.932 55.1359C130.238 55.7371 130.661 56.1955 131.202 56.5112C131.744 56.8218 132.372 56.9771 133.089 56.9771C133.555 56.9771 133.976 56.912 134.351 56.7817C134.732 56.6464 135.06 56.446 135.336 56.1805C135.611 55.91 135.824 55.5743 135.975 55.1735L137.688 55.6545C137.508 56.2356 137.205 56.7466 136.779 57.1875C136.353 57.6234 135.827 57.9641 135.2 58.2096C134.574 58.4501 133.87 58.5703 133.089 58.5703ZM145.917 58.5703C144.835 58.5703 143.903 58.3148 143.121 57.8038C142.34 57.2927 141.739 56.5888 141.318 55.692C140.897 54.7952 140.687 53.7707 140.687 52.6183C140.687 51.446 140.902 50.4114 141.333 49.5146C141.769 48.6128 142.375 47.9089 143.151 47.4029C143.933 46.8918 144.845 46.6363 145.887 46.6363C146.699 46.6363 147.43 46.7866 148.081 47.0872C148.733 47.3878 149.266 47.8087 149.682 48.3498C150.098 48.8909 150.356 49.5221 150.456 50.2436H148.683C148.547 49.7175 148.247 49.2516 147.781 48.8458C147.32 48.4349 146.699 48.2295 145.917 48.2295C145.226 48.2295 144.619 48.4099 144.098 48.7706C143.582 49.1263 143.179 49.6298 142.888 50.2811C142.603 50.9274 142.46 51.6865 142.46 52.5582C142.46 53.45 142.6 54.2266 142.881 54.8879C143.166 55.5492 143.567 56.0628 144.083 56.4285C144.604 56.7942 145.216 56.9771 145.917 56.9771C146.378 56.9771 146.796 56.897 147.172 56.7366C147.548 56.5763 147.866 56.3458 148.126 56.0452C148.387 55.7446 148.572 55.3839 148.683 54.9631H150.456C150.356 55.6444 150.108 56.2582 149.712 56.8043C149.321 57.3454 148.803 57.7762 148.157 58.0969C147.515 58.4125 146.769 58.5703 145.917 58.5703ZM158.73 46.7866V48.2896H152.748V46.7866H158.73ZM154.492 44.0211H156.265V55.0232C156.265 55.5242 156.338 55.8999 156.483 56.1505C156.634 56.3959 156.824 56.5613 157.054 56.6464C157.29 56.7266 157.538 56.7667 157.798 56.7667C157.994 56.7667 158.154 56.7567 158.279 56.7366C158.405 56.7116 158.505 56.6915 158.58 56.6765L158.941 58.2697C158.82 58.3148 158.653 58.3599 158.437 58.405C158.222 58.4551 157.949 58.4801 157.618 58.4801C157.117 58.4801 156.626 58.3724 156.145 58.157C155.669 57.9416 155.273 57.6134 154.958 57.1725C154.647 56.7316 154.492 56.1755 154.492 55.5042V44.0211ZM162.059 58.3298V46.7866H163.833V58.3298H162.059ZM162.961 44.8627C162.616 44.8627 162.318 44.745 162.067 44.5095C161.822 44.2741 161.699 43.991 161.699 43.6603C161.699 43.3297 161.822 43.0466 162.067 42.8111C162.318 42.5756 162.616 42.4579 162.961 42.4579C163.307 42.4579 163.603 42.5756 163.848 42.8111C164.099 43.0466 164.224 43.3297 164.224 43.6603C164.224 43.991 164.099 44.2741 163.848 44.5095C163.603 44.745 163.307 44.8627 162.961 44.8627ZM172.432 58.5703C171.39 58.5703 170.476 58.3223 169.689 57.8263C168.908 57.3303 168.296 56.6364 167.856 55.7446C167.42 54.8528 167.202 53.8107 167.202 52.6183C167.202 51.4159 167.42 50.3663 167.856 49.4695C168.296 48.5727 168.908 47.8763 169.689 47.3803C170.476 46.8843 171.39 46.6363 172.432 46.6363C173.474 46.6363 174.386 46.8843 175.168 47.3803C175.954 47.8763 176.566 48.5727 177.001 49.4695C177.442 50.3663 177.663 51.4159 177.663 52.6183C177.663 53.8107 177.442 54.8528 177.001 55.7446C176.566 56.6364 175.954 57.3303 175.168 57.8263C174.386 58.3223 173.474 58.5703 172.432 58.5703ZM172.432 56.9771C173.224 56.9771 173.875 56.7742 174.386 56.3684C174.897 55.9626 175.275 55.429 175.521 54.7677C175.766 54.1063 175.889 53.3899 175.889 52.6183C175.889 51.8468 175.766 51.1278 175.521 50.4615C175.275 49.7952 174.897 49.2566 174.386 48.8458C173.875 48.4349 173.224 48.2295 172.432 48.2295C171.641 48.2295 170.989 48.4349 170.478 48.8458C169.967 49.2566 169.589 49.7952 169.344 50.4615C169.098 51.1278 168.975 51.8468 168.975 52.6183C168.975 53.3899 169.098 54.1063 169.344 54.7677C169.589 55.429 169.967 55.9626 170.478 56.3684C170.989 56.7742 171.641 56.9771 172.432 56.9771ZM182.805 51.3859V58.3298H181.031V46.7866H182.745V48.5902H182.895C183.166 48.0041 183.577 47.5331 184.128 47.1774C184.679 46.8167 185.39 46.6363 186.262 46.6363C187.043 46.6363 187.727 46.7966 188.314 47.1173C188.9 47.4329 189.356 47.9139 189.681 48.5602C190.007 49.2015 190.17 50.0131 190.17 50.9951V58.3298H188.396V51.1153C188.396 50.2085 188.161 49.5021 187.69 48.9961C187.219 48.485 186.573 48.2295 185.751 48.2295C185.185 48.2295 184.679 48.3523 184.233 48.5978C183.792 48.8433 183.444 49.2015 183.188 49.6724C182.933 50.1434 182.805 50.7145 182.805 51.3859ZM205.946 51.8067V52.7386C205.109 52.7386 204.523 52.9139 204.187 53.2646C203.857 53.6154 203.691 54.2015 203.691 55.0232V57.428C203.691 58.1194 203.624 58.7181 203.488 59.2241C203.358 59.7302 203.143 60.1485 202.842 60.4792C202.542 60.8098 202.141 61.0553 201.64 61.2156C201.139 61.376 200.52 61.4561 199.783 61.4561V59.9832C200.365 59.9832 200.821 59.8905 201.151 59.7051C201.487 59.5247 201.722 59.2467 201.858 58.8709C201.998 58.4952 202.068 58.0142 202.068 57.428V54.422C202.068 54.0312 202.118 53.6755 202.218 53.3548C202.324 53.0342 202.514 52.7586 202.79 52.5282C203.065 52.2977 203.456 52.1198 203.962 51.9946C204.473 51.8693 205.134 51.8067 205.946 51.8067ZM199.783 42.2174C200.52 42.2174 201.139 42.2976 201.64 42.4579C202.141 42.6182 202.542 42.8637 202.842 43.1944C203.143 43.5251 203.358 43.9434 203.488 44.4494C203.624 44.9554 203.691 45.5541 203.691 46.2455V48.6504C203.691 49.472 203.857 50.0582 204.187 50.4089C204.523 50.7596 205.109 50.935 205.946 50.935V51.8668C205.134 51.8668 204.473 51.8042 203.962 51.679C203.456 51.5537 203.065 51.3758 202.79 51.1454C202.514 50.9149 202.324 50.6394 202.218 50.3187C202.118 49.9981 202.068 49.6424 202.068 49.2516V46.2455C202.068 45.6594 201.998 45.1784 201.858 44.8026C201.722 44.4219 201.487 44.1413 201.151 43.9609C200.821 43.7806 200.365 43.6904 199.783 43.6904V42.2174ZM205.946 50.935V52.7386H204.172V50.935H205.946ZM220.768 46.7866V48.2896H214.545V46.7866H220.768ZM216.409 58.3298V45.1934C216.409 44.5321 216.564 43.981 216.875 43.5401C217.185 43.0992 217.589 42.7685 218.085 42.5481C218.581 42.3276 219.104 42.2174 219.655 42.2174C220.091 42.2174 220.447 42.2525 220.722 42.3226C220.998 42.3928 221.203 42.4579 221.339 42.518L220.828 44.0511C220.737 44.0211 220.612 43.9835 220.452 43.9384C220.297 43.8933 220.091 43.8708 219.836 43.8708C219.25 43.8708 218.826 44.0186 218.566 44.3141C218.31 44.6097 218.182 45.0431 218.182 45.6143V58.3298H216.409ZM223.915 58.3298V46.7866H225.628V48.5301H225.748C225.959 47.959 226.339 47.4955 226.89 47.1398C227.442 46.7841 228.063 46.6063 228.754 46.6063C228.885 46.6063 229.047 46.6088 229.243 46.6138C229.438 46.6188 229.586 46.6263 229.686 46.6363V48.4399C229.626 48.4249 229.488 48.4024 229.273 48.3723C229.062 48.3372 228.839 48.3197 228.604 48.3197C228.043 48.3197 227.542 48.4374 227.101 48.6729C226.665 48.9034 226.319 49.224 226.064 49.6348C225.813 50.0407 225.688 50.5041 225.688 51.0251V58.3298H223.915ZM236.788 58.5703C235.746 58.5703 234.831 58.3223 234.045 57.8263C233.263 57.3303 232.652 56.6364 232.211 55.7446C231.775 54.8528 231.557 53.8107 231.557 52.6183C231.557 51.4159 231.775 50.3663 232.211 49.4695C232.652 48.5727 233.263 47.8763 234.045 47.3803C234.831 46.8843 235.746 46.6363 236.788 46.6363C237.83 46.6363 238.742 46.8843 239.523 47.3803C240.31 47.8763 240.921 48.5727 241.357 49.4695C241.798 50.3663 242.018 51.4159 242.018 52.6183C242.018 53.8107 241.798 54.8528 241.357 55.7446C240.921 56.6364 240.31 57.3303 239.523 57.8263C238.742 58.3223 237.83 58.5703 236.788 58.5703ZM236.788 56.9771C237.579 56.9771 238.231 56.7742 238.742 56.3684C239.253 55.9626 239.631 55.429 239.877 54.7677C240.122 54.1063 240.245 53.3899 240.245 52.6183C240.245 51.8468 240.122 51.1278 239.877 50.4615C239.631 49.7952 239.253 49.2566 238.742 48.8458C238.231 48.4349 237.579 48.2295 236.788 48.2295C235.996 48.2295 235.345 48.4349 234.834 48.8458C234.323 49.2566 233.945 49.7952 233.699 50.4615C233.454 51.1278 233.331 51.8468 233.331 52.6183C233.331 53.3899 233.454 54.1063 233.699 54.7677C233.945 55.429 234.323 55.9626 234.834 56.3684C235.345 56.7742 235.996 56.9771 236.788 56.9771ZM245.387 58.3298V46.7866H247.101V48.5902H247.251C247.491 47.974 247.88 47.4955 248.416 47.1549C248.952 46.8092 249.596 46.6363 250.347 46.6363C251.109 46.6363 251.742 46.8092 252.248 47.1549C252.759 47.4955 253.158 47.974 253.443 48.5902H253.564C253.859 47.994 254.303 47.5206 254.894 47.1699C255.485 46.8142 256.194 46.6363 257.02 46.6363C258.053 46.6363 258.897 46.9595 259.553 47.6058C260.209 48.2471 260.538 49.2466 260.538 50.6043V58.3298H258.764V50.6043C258.764 49.7526 258.531 49.1439 258.065 48.7781C257.599 48.4124 257.051 48.2295 256.419 48.2295C255.608 48.2295 254.979 48.475 254.533 48.966C254.087 49.452 253.864 50.0682 253.864 50.8147V58.3298H252.06V50.4239C252.06 49.7676 251.848 49.2391 251.422 48.8382C250.996 48.4324 250.447 48.2295 249.776 48.2295C249.315 48.2295 248.884 48.3523 248.483 48.5978C248.088 48.8433 247.767 49.1839 247.521 49.6198C247.281 50.0507 247.161 50.5492 247.161 51.1153V58.3298H245.387ZM272.588 42.9389V48.2295H270.935V42.9389H272.588ZM276.408 58.3298V46.7866H278.181V58.3298H276.408ZM277.309 44.8627C276.964 44.8627 276.666 44.745 276.415 44.5095C276.17 44.2741 276.047 43.991 276.047 43.6603C276.047 43.3297 276.17 43.0466 276.415 42.8111C276.666 42.5756 276.964 42.4579 277.309 42.4579C277.655 42.4579 277.951 42.5756 278.196 42.8111C278.447 43.0466 278.572 43.3297 278.572 43.6603C278.572 43.991 278.447 44.2741 278.196 44.5095C277.951 44.745 277.655 44.8627 277.309 44.8627ZM283.864 51.3859V58.3298H282.091V46.7866H283.804V48.5902H283.955C284.225 48.0041 284.636 47.5331 285.187 47.1774C285.738 46.8167 286.45 46.6363 287.321 46.6363C288.103 46.6363 288.787 46.7966 289.373 47.1173C289.959 47.4329 290.415 47.9139 290.741 48.5602C291.066 49.2015 291.229 50.0131 291.229 50.9951V58.3298H289.456V51.1153C289.456 50.2085 289.22 49.5021 288.749 48.9961C288.278 48.485 287.632 48.2295 286.81 48.2295C286.244 48.2295 285.738 48.3523 285.292 48.5978C284.851 48.8433 284.503 49.2015 284.248 49.6724C283.992 50.1434 283.864 50.7145 283.864 51.3859ZM299.49 58.5703C298.528 58.5703 297.679 58.3273 296.943 57.8414C296.206 57.3504 295.63 56.659 295.214 55.7672C294.798 54.8704 294.59 53.8107 294.59 52.5883C294.59 51.3758 294.798 50.3237 295.214 49.4319C295.63 48.5401 296.209 47.8513 296.95 47.3653C297.692 46.8793 298.548 46.6363 299.52 46.6363C300.272 46.6363 300.866 46.7616 301.301 47.0121C301.742 47.2576 302.078 47.5381 302.308 47.8538C302.544 48.1644 302.727 48.4199 302.857 48.6203H303.007V42.9389H304.781V58.3298H303.067V56.5563H302.857C302.727 56.7667 302.541 57.0322 302.301 57.3529C302.06 57.6685 301.717 57.9516 301.271 58.2021C300.825 58.4476 300.232 58.5703 299.49 58.5703ZM299.731 56.9771C300.442 56.9771 301.043 56.7917 301.534 56.421C302.025 56.0452 302.399 55.5267 302.654 54.8654C302.91 54.199 303.037 53.43 303.037 52.5582C303.037 51.6965 302.912 50.9425 302.662 50.2962C302.411 49.6449 302.04 49.1388 301.549 48.7781C301.058 48.4124 300.452 48.2295 299.731 48.2295C298.979 48.2295 298.353 48.4224 297.852 48.8082C297.356 49.1889 296.983 49.7075 296.732 50.3638C296.487 51.0151 296.364 51.7466 296.364 52.5582C296.364 53.3799 296.489 54.1264 296.74 54.7977C296.995 55.4641 297.371 55.9951 297.867 56.3909C298.368 56.7817 298.989 56.9771 299.731 56.9771ZM308.937 58.3298V46.7866H310.71V58.3298H308.937ZM309.839 44.8627C309.493 44.8627 309.195 44.745 308.944 44.5095C308.699 44.2741 308.576 43.991 308.576 43.6603C308.576 43.3297 308.699 43.0466 308.944 42.8111C309.195 42.5756 309.493 42.4579 309.839 42.4579C310.184 42.4579 310.48 42.5756 310.725 42.8111C310.976 43.0466 311.101 43.3297 311.101 43.6603C311.101 43.991 310.976 44.2741 310.725 44.5095C310.48 44.745 310.184 44.8627 309.839 44.8627ZM319.46 58.5703C318.348 58.5703 317.388 58.3248 316.582 57.8338C315.78 57.3378 315.161 56.6464 314.725 55.7597C314.294 54.8679 314.079 53.8308 314.079 52.6484C314.079 51.466 314.294 50.4239 314.725 49.5221C315.161 48.6153 315.767 47.9089 316.544 47.4029C317.326 46.8918 318.237 46.6363 319.279 46.6363C319.881 46.6363 320.474 46.7365 321.061 46.9369C321.647 47.1373 322.18 47.463 322.661 47.9139C323.142 48.3598 323.525 48.951 323.811 49.6875C324.097 50.4239 324.239 51.3308 324.239 52.4079V53.1594H315.342V51.6264H322.436C322.436 50.975 322.306 50.3939 322.045 49.8828C321.789 49.3718 321.424 48.9685 320.948 48.6729C320.477 48.3773 319.921 48.2295 319.279 48.2295C318.573 48.2295 317.962 48.4049 317.446 48.7556C316.935 49.1013 316.541 49.5522 316.266 50.1083C315.99 50.6644 315.853 51.2606 315.853 51.8969V52.919C315.853 53.7907 316.003 54.5297 316.303 55.1359C316.609 55.7371 317.032 56.1955 317.574 56.5112C318.115 56.8218 318.743 56.9771 319.46 56.9771C319.926 56.9771 320.347 56.912 320.722 56.7817C321.103 56.6464 321.431 56.446 321.707 56.1805C321.982 55.91 322.195 55.5743 322.346 55.1735L324.059 55.6545C323.879 56.2356 323.576 56.7466 323.15 57.1875C322.724 57.6234 322.198 57.9641 321.572 58.2096C320.945 58.4501 320.241 58.5703 319.46 58.5703ZM329.252 54.1214L329.222 51.927H329.583L334.633 46.7866H336.827L331.446 52.2276H331.296L329.252 54.1214ZM327.599 58.3298V42.9389H329.372V58.3298H327.599ZM334.933 58.3298L330.424 52.6183L331.687 51.3859L337.188 58.3298H334.933ZM339.771 58.3298V46.7866H341.485V48.5301H341.605C341.815 47.959 342.196 47.4955 342.747 47.1398C343.298 46.7841 343.92 46.6063 344.611 46.6063C344.741 46.6063 344.904 46.6088 345.099 46.6138C345.295 46.6188 345.443 46.6263 345.543 46.6363V48.4399C345.483 48.4249 345.345 48.4024 345.13 48.3723C344.919 48.3372 344.696 48.3197 344.461 48.3197C343.9 48.3197 343.399 48.4374 342.958 48.6729C342.522 48.9034 342.176 49.224 341.921 49.6348C341.67 50.0407 341.545 50.5041 341.545 51.0251V58.3298H339.771ZM352.795 58.5703C351.683 58.5703 350.723 58.3248 349.917 57.8338C349.115 57.3378 348.496 56.6464 348.06 55.7597C347.63 54.8679 347.414 53.8308 347.414 52.6484C347.414 51.466 347.63 50.4239 348.06 49.5221C348.496 48.6153 349.103 47.9089 349.879 47.4029C350.661 46.8918 351.573 46.6363 352.615 46.6363C353.216 46.6363 353.81 46.7365 354.396 46.9369C354.982 47.1373 355.515 47.463 355.996 47.9139C356.477 48.3598 356.861 48.951 357.146 49.6875C357.432 50.4239 357.575 51.3308 357.575 52.4079V53.1594H348.677V51.6264H355.771C355.771 50.975 355.641 50.3939 355.38 49.8828C355.125 49.3718 354.759 48.9685 354.283 48.6729C353.812 48.3773 353.256 48.2295 352.615 48.2295C351.908 48.2295 351.297 48.4049 350.781 48.7556C350.27 49.1013 349.877 49.5522 349.601 50.1083C349.325 50.6644 349.188 51.2606 349.188 51.8969V52.919C349.188 53.7907 349.338 54.5297 349.639 55.1359C349.944 55.7371 350.368 56.1955 350.909 56.5112C351.45 56.8218 352.079 56.9771 352.795 56.9771C353.261 56.9771 353.682 56.912 354.058 56.7817C354.438 56.6464 354.766 56.446 355.042 56.1805C355.318 55.91 355.53 55.5743 355.681 55.1735L357.394 55.6545C357.214 56.2356 356.911 56.7466 356.485 57.1875C356.059 57.6234 355.533 57.9641 354.907 58.2096C354.28 58.4501 353.577 58.5703 352.795 58.5703ZM364.331 58.6004C363.599 58.6004 362.935 58.4626 362.339 58.187C361.743 57.9065 361.27 57.5032 360.919 56.9771C360.568 56.446 360.393 55.8048 360.393 55.0532C360.393 54.3919 360.523 53.8558 360.784 53.445C361.044 53.0292 361.392 52.7035 361.828 52.468C362.264 52.2326 362.745 52.0572 363.271 51.942C363.802 51.8217 364.336 51.7266 364.872 51.6564C365.573 51.5662 366.142 51.4986 366.578 51.4535C367.019 51.4034 367.339 51.3207 367.54 51.2055C367.745 51.0903 367.848 50.8899 367.848 50.6043V50.5442C367.848 49.8027 367.645 49.2265 367.239 48.8157C366.838 48.4049 366.229 48.1995 365.413 48.1995C364.566 48.1995 363.902 48.3848 363.421 48.7556C362.94 49.1263 362.602 49.5221 362.407 49.943L360.723 49.3418C361.024 48.6403 361.425 48.0942 361.926 47.7035C362.432 47.3077 362.983 47.0321 363.579 46.8768C364.18 46.7165 364.772 46.6363 365.353 46.6363C365.723 46.6363 366.149 46.6814 366.63 46.7716C367.116 46.8568 367.585 47.0346 368.036 47.3052C368.492 47.5757 368.87 47.984 369.17 48.5301C369.471 49.0762 369.621 49.8077 369.621 50.7245V58.3298H367.848V56.7667H367.758C367.637 57.0172 367.437 57.2852 367.156 57.5708C366.876 57.8564 366.503 58.0994 366.037 58.2998C365.571 58.5002 365.002 58.6004 364.331 58.6004ZM364.601 57.0072C365.303 57.0072 365.894 56.8694 366.375 56.5938C366.861 56.3183 367.226 55.9626 367.472 55.5267C367.722 55.0908 367.848 54.6324 367.848 54.1514V52.5282C367.773 52.6183 367.607 52.701 367.352 52.7762C367.101 52.8463 366.811 52.9089 366.48 52.964C366.154 53.0141 365.836 53.0592 365.526 53.0993C365.22 53.1344 364.972 53.1644 364.782 53.1895C364.321 53.2496 363.89 53.3473 363.489 53.4826C363.093 53.6128 362.773 53.8107 362.527 54.0763C362.287 54.3368 362.166 54.6925 362.166 55.1434C362.166 55.7597 362.394 56.2256 362.85 56.5412C363.311 56.8519 363.895 57.0072 364.601 57.0072ZM378.54 46.7866V48.2896H372.558V46.7866H378.54ZM374.301 44.0211H376.075V55.0232C376.075 55.5242 376.148 55.8999 376.293 56.1505C376.443 56.3959 376.634 56.5613 376.864 56.6464C377.099 56.7266 377.347 56.7667 377.608 56.7667C377.803 56.7667 377.964 56.7567 378.089 56.7366C378.214 56.7116 378.314 56.6915 378.39 56.6765L378.75 58.2697C378.63 58.3148 378.462 58.3599 378.247 58.405C378.031 58.4551 377.758 58.4801 377.428 58.4801C376.927 58.4801 376.436 58.3724 375.955 58.157C375.479 57.9416 375.083 57.6134 374.767 57.1725C374.457 56.7316 374.301 56.1755 374.301 55.5042V44.0211ZM33.8235 88.3298V76.7866H35.597V88.3298H33.8235ZM34.7253 74.8627C34.3796 74.8627 34.0815 74.745 33.831 74.5095C33.5855 74.2741 33.4627 73.991 33.4627 73.6603C33.4627 73.3297 33.5855 73.0466 33.831 72.8111C34.0815 72.5756 34.3796 72.4579 34.7253 72.4579C35.071 72.4579 35.3666 72.5756 35.6121 72.8111C35.8626 73.0466 35.9878 73.3297 35.9878 73.6603C35.9878 73.991 35.8626 74.2741 35.6121 74.5095C35.3666 74.745 35.071 74.8627 34.7253 74.8627ZM48.9457 76.7866L44.6772 88.3298H42.8735L38.605 76.7866H40.5288L43.7152 85.9851H43.8355L47.0219 76.7866H48.9457ZM53.4811 72.9389V78.2295H51.8278V72.9389H53.4811ZM59.946 86.2256L59.8258 87.0372C59.7406 87.6084 59.6103 88.2196 59.435 88.8709C59.2646 89.5222 59.0868 90.136 58.9014 90.7121C58.716 91.2883 58.5632 91.7467 58.443 92.0874H57.0903C57.1554 91.7667 57.2406 91.3434 57.3458 90.8173C57.451 90.2913 57.5562 89.7026 57.6614 89.0513C57.7716 88.405 57.8618 87.7437 57.9319 87.0673L58.0221 86.2256H59.946ZM58.8638 79.8828C58.4931 79.8828 58.1749 79.7501 57.9094 79.4845C57.6439 79.219 57.5111 78.9009 57.5111 78.5301C57.5111 78.1594 57.6439 77.8412 57.9094 77.5757C58.1749 77.3102 58.4931 77.1774 58.8638 77.1774C59.2346 77.1774 59.5527 77.3102 59.8182 77.5757C60.0838 77.8412 60.2165 78.1594 60.2165 78.5301C60.2165 78.7756 60.1539 79.0011 60.0287 79.2065C59.9084 79.4119 59.7456 79.5772 59.5402 79.7025C59.3398 79.8227 59.1143 79.8828 58.8638 79.8828ZM64.9661 117.57C63.8839 117.57 62.952 117.315 62.1705 116.804C61.3889 116.293 60.7877 115.589 60.3668 114.692C59.946 113.795 59.7356 112.771 59.7356 111.618C59.7356 110.446 59.951 109.411 60.3819 108.515C60.8178 107.613 61.424 106.909 62.2005 106.403C62.9821 105.892 63.8939 105.636 64.936 105.636C65.7477 105.636 66.4791 105.787 67.1304 106.087C67.7818 106.388 68.3153 106.809 68.7312 107.35C69.147 107.891 69.405 108.522 69.5052 109.244H67.7317C67.5964 108.718 67.2958 108.252 66.8298 107.846C66.3689 107.435 65.7477 107.23 64.9661 107.23C64.2747 107.23 63.6685 107.41 63.1474 107.771C62.6314 108.126 62.2281 108.63 61.9375 109.281C61.6519 109.927 61.5091 110.686 61.5091 111.558C61.5091 112.45 61.6494 113.227 61.93 113.888C62.2156 114.549 62.6164 115.063 63.1324 115.429C63.6535 115.794 64.2647 115.977 64.9661 115.977C65.427 115.977 65.8454 115.897 66.2211 115.737C66.5969 115.576 66.915 115.346 67.1755 115.045C67.4361 114.745 67.6214 114.384 67.7317 113.963H69.5052C69.405 114.644 69.157 115.258 68.7612 115.804C68.3704 116.345 67.8519 116.776 67.2056 117.097C66.5643 117.413 65.8178 117.57 64.9661 117.57ZM77.4487 117.57C76.4066 117.57 75.4923 117.322 74.7057 116.826C73.9241 116.33 73.3129 115.636 72.872 114.745C72.4361 113.853 72.2182 112.811 72.2182 111.618C72.2182 110.416 72.4361 109.366 72.872 108.47C73.3129 107.573 73.9241 106.876 74.7057 106.38C75.4923 105.884 76.4066 105.636 77.4487 105.636C78.4908 105.636 79.4026 105.884 80.1842 106.38C80.9708 106.876 81.582 107.573 82.0179 108.47C82.4588 109.366 82.6792 110.416 82.6792 111.618C82.6792 112.811 82.4588 113.853 82.0179 114.745C81.582 115.636 80.9708 116.33 80.1842 116.826C79.4026 117.322 78.4908 117.57 77.4487 117.57ZM77.4487 115.977C78.2403 115.977 78.8916 115.774 79.4026 115.368C79.9137 114.963 80.2919 114.429 80.5374 113.768C80.7829 113.106 80.9057 112.39 80.9057 111.618C80.9057 110.847 80.7829 110.128 80.5374 109.462C80.2919 108.795 79.9137 108.257 79.4026 107.846C78.8916 107.435 78.2403 107.23 77.4487 107.23C76.6571 107.23 76.0058 107.435 75.4948 107.846C74.9837 108.257 74.6055 108.795 74.36 109.462C74.1145 110.128 73.9917 110.847 73.9917 111.618C73.9917 112.39 74.1145 113.106 74.36 113.768C74.6055 114.429 74.9837 114.963 75.4948 115.368C76.0058 115.774 76.6571 115.977 77.4487 115.977ZM87.8214 110.386V117.33H86.0479V105.787H87.7613V107.59H87.9116C88.1822 107.004 88.593 106.533 89.1441 106.177C89.6952 105.817 90.4066 105.636 91.2784 105.636C92.06 105.636 92.7438 105.797 93.33 106.117C93.9162 106.433 94.3721 106.914 94.6978 107.56C95.0234 108.201 95.1862 109.013 95.1862 109.995V117.33H93.4127V110.115C93.4127 109.209 93.1772 108.502 92.7063 107.996C92.2353 107.485 91.589 107.23 90.7674 107.23C90.2012 107.23 89.6952 107.352 89.2493 107.598C88.8084 107.843 88.4602 108.201 88.2047 108.672C87.9492 109.143 87.8214 109.715 87.8214 110.386ZM107.265 108.372L105.672 108.823C105.572 108.557 105.424 108.299 105.228 108.049C105.038 107.793 104.777 107.583 104.447 107.417C104.116 107.252 103.693 107.169 103.177 107.169C102.47 107.169 101.882 107.332 101.411 107.658C100.945 107.979 100.712 108.387 100.712 108.883C100.712 109.324 100.872 109.672 101.193 109.927C101.513 110.183 102.014 110.396 102.696 110.566L104.409 110.987C105.441 111.238 106.21 111.621 106.716 112.137C107.222 112.648 107.475 113.307 107.475 114.113C107.475 114.775 107.285 115.366 106.904 115.887C106.528 116.408 106.002 116.819 105.326 117.119C104.65 117.42 103.863 117.57 102.966 117.57C101.789 117.57 100.814 117.315 100.043 116.804C99.2713 116.293 98.7829 115.546 98.5774 114.564L100.261 114.143C100.421 114.765 100.724 115.231 101.17 115.541C101.621 115.852 102.21 116.007 102.936 116.007C103.763 116.007 104.419 115.832 104.905 115.481C105.396 115.125 105.642 114.7 105.642 114.204C105.642 113.803 105.501 113.467 105.221 113.197C104.94 112.921 104.509 112.716 103.928 112.58L102.004 112.129C100.947 111.879 100.171 111.491 99.6746 110.965C99.1837 110.433 98.9382 109.77 98.9382 108.973C98.9382 108.322 99.121 107.746 99.4868 107.245C99.8575 106.744 100.361 106.35 100.997 106.065C101.639 105.779 102.365 105.636 103.177 105.636C104.319 105.636 105.216 105.887 105.867 106.388C106.523 106.889 106.989 107.55 107.265 108.372ZM115.827 105.787V107.29H109.844V105.787H115.827ZM111.588 103.021H113.362V114.023C113.362 114.524 113.434 114.9 113.579 115.15C113.73 115.396 113.92 115.561 114.151 115.646C114.386 115.727 114.634 115.767 114.895 115.767C115.09 115.767 115.25 115.757 115.376 115.737C115.501 115.712 115.601 115.692 115.676 115.677L116.037 117.27C115.917 117.315 115.749 117.36 115.533 117.405C115.318 117.455 115.045 117.48 114.714 117.48C114.213 117.48 113.722 117.372 113.241 117.157C112.765 116.942 112.37 116.613 112.054 116.173C111.743 115.732 111.588 115.176 111.588 114.504V103.021ZM126.641 117.33H124.687L130.338 101.939H132.262L137.913 117.33H135.959L131.36 104.374H131.24L126.641 117.33ZM127.362 111.318H135.238V112.971H127.362V111.318ZM140.732 121.659V105.787H142.445V107.62H142.655C142.786 107.42 142.966 107.164 143.197 106.854C143.432 106.538 143.768 106.258 144.204 106.012C144.644 105.762 145.241 105.636 145.992 105.636C146.964 105.636 147.821 105.879 148.562 106.365C149.304 106.851 149.882 107.54 150.298 108.432C150.714 109.324 150.922 110.376 150.922 111.588C150.922 112.811 150.714 113.87 150.298 114.767C149.882 115.659 149.306 116.35 148.57 116.841C147.833 117.327 146.984 117.57 146.022 117.57C145.281 117.57 144.687 117.448 144.241 117.202C143.795 116.952 143.452 116.669 143.212 116.353C142.971 116.032 142.786 115.767 142.655 115.556H142.505V121.659H140.732ZM142.475 111.558C142.475 112.43 142.603 113.199 142.858 113.865C143.114 114.527 143.487 115.045 143.978 115.421C144.469 115.792 145.07 115.977 145.782 115.977C146.523 115.977 147.142 115.782 147.638 115.391C148.139 114.995 148.515 114.464 148.765 113.798C149.021 113.126 149.149 112.38 149.149 111.558C149.149 110.747 149.023 110.015 148.773 109.364C148.527 108.707 148.154 108.189 147.653 107.808C147.157 107.422 146.533 107.23 145.782 107.23C145.06 107.23 144.454 107.412 143.963 107.778C143.472 108.139 143.101 108.645 142.851 109.296C142.6 109.942 142.475 110.696 142.475 111.558ZM154.289 121.659V105.787H156.002V107.62H156.213C156.343 107.42 156.523 107.164 156.754 106.854C156.989 106.538 157.325 106.258 157.761 106.012C158.202 105.762 158.798 105.636 159.549 105.636C160.521 105.636 161.378 105.879 162.12 106.365C162.861 106.851 163.44 107.54 163.856 108.432C164.271 109.324 164.479 110.376 164.479 111.588C164.479 112.811 164.271 113.87 163.856 114.767C163.44 115.659 162.864 116.35 162.127 116.841C161.391 117.327 160.541 117.57 159.58 117.57C158.838 117.57 158.244 117.448 157.798 117.202C157.353 116.952 157.009 116.669 156.769 116.353C156.528 116.032 156.343 115.767 156.213 115.556H156.062V121.659H154.289ZM156.032 111.558C156.032 112.43 156.16 113.199 156.416 113.865C156.671 114.527 157.044 115.045 157.535 115.421C158.026 115.792 158.628 115.977 159.339 115.977C160.081 115.977 160.699 115.782 161.195 115.391C161.696 114.995 162.072 114.464 162.323 113.798C162.578 113.126 162.706 112.38 162.706 111.558C162.706 110.747 162.581 110.015 162.33 109.364C162.085 108.707 161.711 108.189 161.21 107.808C160.714 107.422 160.091 107.23 159.339 107.23C158.618 107.23 158.011 107.412 157.52 107.778C157.029 108.139 156.659 108.645 156.408 109.296C156.158 109.942 156.032 110.696 156.032 111.558ZM175.181 109.905V108.282H184.44V109.905H175.181ZM175.181 114.354V112.731H184.44V114.354H175.181ZM196.315 110.837C196.315 108.943 196.561 107.202 197.052 105.614C197.548 104.021 198.254 102.555 199.171 101.217H200.734C200.373 101.713 200.035 102.325 199.72 103.051C199.409 103.773 199.136 104.567 198.9 105.433C198.665 106.295 198.48 107.187 198.344 108.109C198.214 109.031 198.149 109.94 198.149 110.837C198.149 112.029 198.264 113.239 198.495 114.467C198.725 115.694 199.036 116.834 199.427 117.886C199.817 118.938 200.253 119.795 200.734 120.456H199.171C198.254 119.118 197.548 117.655 197.052 116.067C196.561 114.474 196.315 112.731 196.315 110.837ZM207.8 110.837C207.8 112.731 207.552 114.474 207.056 116.067C206.565 117.655 205.861 119.118 204.944 120.456H203.381C203.742 119.96 204.078 119.349 204.388 118.622C204.704 117.901 204.98 117.109 205.215 116.248C205.45 115.381 205.633 114.487 205.764 113.565C205.899 112.638 205.967 111.729 205.967 110.837C205.967 109.644 205.851 108.434 205.621 107.207C205.39 105.98 205.08 104.84 204.689 103.788C204.298 102.735 203.862 101.879 203.381 101.217H204.944C205.861 102.555 206.565 104.021 207.056 105.614C207.552 107.202 207.8 108.943 207.8 110.837ZM228.709 117.33L227.552 116.188L233.143 110.596L227.552 105.02L228.709 103.863L235.443 110.596L228.709 117.33ZM219.977 113.212V111.558H233.369L231.715 113.212H219.977ZM219.977 109.634V107.981H231.715L233.369 109.634H219.977ZM245.579 110.867V109.935C246.415 109.935 246.999 109.76 247.33 109.409C247.665 109.058 247.833 108.472 247.833 107.65V105.246C247.833 104.554 247.898 103.955 248.029 103.449C248.164 102.943 248.382 102.525 248.682 102.194C248.983 101.864 249.384 101.618 249.885 101.458C250.386 101.298 251.005 101.217 251.741 101.217V102.69C251.16 102.69 250.702 102.781 250.366 102.961C250.035 103.141 249.8 103.422 249.659 103.803C249.524 104.178 249.457 104.659 249.457 105.246V108.252C249.457 108.642 249.404 108.998 249.299 109.319C249.198 109.639 249.011 109.915 248.735 110.145C248.46 110.376 248.066 110.554 247.555 110.679C247.049 110.804 246.39 110.867 245.579 110.867ZM251.741 120.456C251.005 120.456 250.386 120.376 249.885 120.216C249.384 120.055 248.983 119.81 248.682 119.479C248.382 119.148 248.164 118.73 248.029 118.224C247.898 117.718 247.833 117.119 247.833 116.428V114.023C247.833 113.202 247.665 112.615 247.33 112.265C246.999 111.914 246.415 111.739 245.579 111.739V110.807C246.39 110.807 247.049 110.869 247.555 110.995C248.066 111.12 248.46 111.298 248.735 111.528C249.011 111.759 249.198 112.034 249.299 112.355C249.404 112.675 249.457 113.031 249.457 113.422V116.428C249.457 117.014 249.524 117.495 249.659 117.871C249.8 118.247 250.035 118.525 250.366 118.705C250.702 118.89 251.16 118.983 251.741 118.983V120.456ZM245.579 111.739V109.935H247.352V111.739H245.579ZM86.7299 147.33V135.787H88.4433V137.53H88.5636C88.774 136.959 89.1547 136.496 89.7059 136.14C90.257 135.784 90.8782 135.606 91.5696 135.606C91.6999 135.606 91.8627 135.609 92.0581 135.614C92.2535 135.619 92.4013 135.626 92.5015 135.636V137.44C92.4414 137.425 92.3036 137.402 92.0881 137.372C91.8777 137.337 91.6548 137.32 91.4193 137.32C90.8582 137.32 90.3572 137.437 89.9163 137.673C89.4804 137.903 89.1347 138.224 88.8792 138.635C88.6287 139.041 88.5034 139.504 88.5034 140.025V147.33H86.7299ZM99.7536 147.57C98.6413 147.57 97.6819 147.325 96.8753 146.834C96.0737 146.338 95.4549 145.646 95.019 144.76C94.5882 143.868 94.3727 142.831 94.3727 141.648C94.3727 140.466 94.5882 139.424 95.019 138.522C95.4549 137.615 96.0611 136.909 96.8377 136.403C97.6193 135.892 98.5311 135.636 99.5732 135.636C100.174 135.636 100.768 135.737 101.354 135.937C101.94 136.137 102.474 136.463 102.955 136.914C103.436 137.36 103.819 137.951 104.105 138.687C104.39 139.424 104.533 140.331 104.533 141.408V142.159H95.6353V140.626H102.73C102.73 139.975 102.599 139.394 102.339 138.883C102.083 138.372 101.718 137.969 101.242 137.673C100.771 137.377 100.214 137.23 99.5732 137.23C98.8668 137.23 98.2555 137.405 97.7395 137.756C97.2285 138.101 96.8352 138.552 96.5596 139.108C96.2841 139.664 96.1463 140.261 96.1463 140.897V141.919C96.1463 142.791 96.2966 143.53 96.5972 144.136C96.9028 144.737 97.3262 145.196 97.8673 145.511C98.4084 145.822 99.0371 145.977 99.7536 145.977C100.219 145.977 100.64 145.912 101.016 145.782C101.397 145.646 101.725 145.446 102.001 145.181C102.276 144.91 102.489 144.574 102.639 144.173L104.353 144.654C104.172 145.236 103.869 145.747 103.443 146.188C103.018 146.623 102.492 146.964 101.865 147.21C101.239 147.45 100.535 147.57 99.7536 147.57ZM112.913 135.787V137.29H106.93V135.787H112.913ZM108.674 133.021H110.448V144.023C110.448 144.524 110.52 144.9 110.666 145.15C110.816 145.396 111.006 145.561 111.237 145.646C111.472 145.727 111.72 145.767 111.981 145.767C112.176 145.767 112.336 145.757 112.462 145.737C112.587 145.712 112.687 145.692 112.762 145.677L113.123 147.27C113.003 147.315 112.835 147.36 112.619 147.405C112.404 147.455 112.131 147.48 111.8 147.48C111.299 147.48 110.808 147.372 110.327 147.157C109.851 146.942 109.456 146.613 109.14 146.173C108.829 145.732 108.674 145.176 108.674 144.504V133.021ZM123.516 142.61V135.787H125.29V147.33H123.516V145.376H123.396C123.126 145.962 122.705 146.461 122.134 146.871C121.562 147.277 120.841 147.48 119.969 147.48C119.248 147.48 118.606 147.322 118.045 147.007C117.484 146.686 117.043 146.205 116.723 145.564C116.402 144.917 116.242 144.103 116.242 143.121V135.787H118.015V143.001C118.015 143.843 118.251 144.514 118.722 145.015C119.198 145.516 119.804 145.767 120.54 145.767C120.981 145.767 121.43 145.654 121.886 145.429C122.346 145.203 122.732 144.857 123.043 144.391C123.359 143.925 123.516 143.332 123.516 142.61ZM129.2 147.33V135.787H130.913V137.53H131.033C131.244 136.959 131.625 136.496 132.176 136.14C132.727 135.784 133.348 135.606 134.039 135.606C134.17 135.606 134.332 135.609 134.528 135.614C134.723 135.619 134.871 135.626 134.971 135.636V137.44C134.911 137.425 134.773 137.402 134.558 137.372C134.348 137.337 134.125 137.32 133.889 137.32C133.328 137.32 132.827 137.437 132.386 137.673C131.95 137.903 131.604 138.224 131.349 138.635C131.098 139.041 130.973 139.504 130.973 140.025V147.33H129.2ZM139.509 140.386V147.33H137.735V135.787H139.448V137.59H139.599C139.869 137.004 140.28 136.533 140.831 136.177C141.382 135.817 142.094 135.636 142.965 135.636C143.747 135.636 144.431 135.797 145.017 136.117C145.603 136.433 146.059 136.914 146.385 137.56C146.71 138.201 146.873 139.013 146.873 139.995V147.33H145.1V140.115C145.1 139.209 144.864 138.502 144.393 137.996C143.922 137.485 143.276 137.23 142.454 137.23C141.888 137.23 141.382 137.352 140.936 137.598C140.495 137.843 140.147 138.201 139.892 138.672C139.636 139.143 139.509 139.715 139.509 140.386ZM158.02 140.837C158.02 138.943 158.266 137.202 158.757 135.614C159.253 134.021 159.959 132.555 160.876 131.217H162.439C162.078 131.713 161.74 132.325 161.424 133.051C161.114 133.773 160.841 134.567 160.605 135.433C160.37 136.295 160.184 137.187 160.049 138.109C159.919 139.031 159.854 139.94 159.854 140.837C159.854 142.029 159.969 143.239 160.199 144.467C160.43 145.694 160.741 146.834 161.131 147.886C161.522 148.938 161.958 149.795 162.439 150.456H160.876C159.959 149.118 159.253 147.655 158.757 146.067C158.266 144.474 158.02 142.731 158.02 140.837ZM113.694 171.919V170.717L123.374 165.787V167.71L115.949 171.288L116.009 171.167V171.468L115.949 171.348L123.374 174.925V176.849L113.694 171.919ZM132.153 177.57C131.191 177.57 130.342 177.327 129.605 176.841C128.869 176.35 128.293 175.659 127.877 174.767C127.461 173.87 127.253 172.811 127.253 171.588C127.253 170.376 127.461 169.324 127.877 168.432C128.293 167.54 128.871 166.851 129.613 166.365C130.354 165.879 131.211 165.636 132.183 165.636C132.935 165.636 133.528 165.762 133.964 166.012C134.405 166.258 134.741 166.538 134.971 166.854C135.207 167.164 135.39 167.42 135.52 167.62H135.67V161.939H137.444V177.33H135.73V175.556H135.52C135.39 175.767 135.204 176.032 134.964 176.353C134.723 176.669 134.38 176.952 133.934 177.202C133.488 177.448 132.895 177.57 132.153 177.57ZM132.394 175.977C133.105 175.977 133.706 175.792 134.197 175.421C134.688 175.045 135.061 174.527 135.317 173.865C135.572 173.199 135.7 172.43 135.7 171.558C135.7 170.696 135.575 169.942 135.324 169.296C135.074 168.645 134.703 168.139 134.212 167.778C133.721 167.412 133.115 167.23 132.394 167.23C131.642 167.23 131.016 167.422 130.515 167.808C130.019 168.189 129.646 168.707 129.395 169.364C129.15 170.015 129.027 170.747 129.027 171.558C129.027 172.38 129.152 173.126 129.403 173.798C129.658 174.464 130.034 174.995 130.53 175.391C131.031 175.782 131.652 175.977 132.394 175.977ZM141.6 177.33V165.787H143.373V177.33H141.6ZM142.501 163.863C142.156 163.863 141.858 163.745 141.607 163.51C141.362 163.274 141.239 162.991 141.239 162.66C141.239 162.33 141.362 162.047 141.607 161.811C141.858 161.576 142.156 161.458 142.501 161.458C142.847 161.458 143.143 161.576 143.388 161.811C143.639 162.047 143.764 162.33 143.764 162.66C143.764 162.991 143.639 163.274 143.388 163.51C143.143 163.745 142.847 163.863 142.501 163.863ZM156.722 165.787L152.453 177.33H150.65L146.381 165.787H148.305L151.491 174.985H151.612L154.798 165.787H156.722ZM169.915 171.919L160.235 176.849V174.925L167.66 171.348L167.6 171.468V171.167L167.66 171.288L160.235 167.71V165.787L169.915 170.717V171.919ZM140.147 199.476V198.274L149.827 193.344V195.268L142.402 198.845L142.462 198.725V199.025L142.402 198.905L149.827 202.482V204.406L140.147 199.476ZM154.488 206.33V190.939H156.352V197.793H164.558V190.939H166.422V206.33H164.558V199.446H156.352V206.33H154.488ZM175.414 206.57C174.302 206.57 173.342 206.325 172.536 205.834C171.734 205.338 171.115 204.646 170.679 203.76C170.248 202.868 170.033 201.831 170.033 200.648C170.033 199.466 170.248 198.424 170.679 197.522C171.115 196.615 171.721 195.909 172.498 195.403C173.28 194.892 174.191 194.636 175.233 194.636C175.835 194.636 176.428 194.737 177.015 194.937C177.601 195.137 178.134 195.463 178.615 195.914C179.096 196.36 179.48 196.951 179.765 197.687C180.051 198.424 180.193 199.331 180.193 200.408V201.159H171.296V199.626H178.39C178.39 198.975 178.26 198.394 177.999 197.883C177.744 197.372 177.378 196.969 176.902 196.673C176.431 196.377 175.875 196.23 175.233 196.23C174.527 196.23 173.916 196.405 173.4 196.756C172.889 197.101 172.495 197.552 172.22 198.108C171.944 198.664 171.807 199.261 171.807 199.897V200.919C171.807 201.791 171.957 202.53 172.258 203.136C172.563 203.737 172.986 204.196 173.528 204.511C174.069 204.822 174.697 204.977 175.414 204.977C175.88 204.977 176.301 204.912 176.676 204.782C177.057 204.646 177.385 204.446 177.661 204.181C177.936 203.91 178.149 203.574 178.3 203.173L180.013 203.654C179.833 204.236 179.53 204.747 179.104 205.188C178.678 205.623 178.152 205.964 177.526 206.21C176.899 206.45 176.195 206.57 175.414 206.57ZM186.95 206.6C186.218 206.6 185.554 206.463 184.958 206.187C184.362 205.906 183.888 205.503 183.538 204.977C183.187 204.446 183.012 203.805 183.012 203.053C183.012 202.392 183.142 201.856 183.402 201.445C183.663 201.029 184.011 200.704 184.447 200.468C184.883 200.233 185.364 200.057 185.89 199.942C186.421 199.822 186.955 199.727 187.491 199.656C188.192 199.566 188.761 199.499 189.197 199.454C189.637 199.403 189.958 199.321 190.159 199.206C190.364 199.09 190.467 198.89 190.467 198.604V198.544C190.467 197.803 190.264 197.227 189.858 196.816C189.457 196.405 188.848 196.199 188.032 196.199C187.185 196.199 186.521 196.385 186.04 196.756C185.559 197.126 185.221 197.522 185.026 197.943L183.342 197.342C183.643 196.64 184.044 196.094 184.545 195.703C185.051 195.308 185.602 195.032 186.198 194.877C186.799 194.716 187.39 194.636 187.972 194.636C188.342 194.636 188.768 194.681 189.249 194.772C189.735 194.857 190.204 195.035 190.655 195.305C191.11 195.576 191.489 195.984 191.789 196.53C192.09 197.076 192.24 197.808 192.24 198.725V206.33H190.467V204.767H190.376C190.256 205.017 190.056 205.285 189.775 205.571C189.495 205.856 189.121 206.099 188.655 206.3C188.19 206.5 187.621 206.6 186.95 206.6ZM187.22 205.007C187.922 205.007 188.513 204.869 188.994 204.594C189.48 204.318 189.845 203.963 190.091 203.527C190.341 203.091 190.467 202.632 190.467 202.151V200.528C190.391 200.618 190.226 200.701 189.971 200.776C189.72 200.846 189.43 200.909 189.099 200.964C188.773 201.014 188.455 201.059 188.144 201.099C187.839 201.134 187.591 201.164 187.4 201.189C186.94 201.25 186.509 201.347 186.108 201.483C185.712 201.613 185.391 201.811 185.146 202.076C184.905 202.337 184.785 202.693 184.785 203.143C184.785 203.76 185.013 204.226 185.469 204.541C185.93 204.852 186.514 205.007 187.22 205.007ZM200.497 206.57C199.535 206.57 198.686 206.327 197.95 205.841C197.213 205.35 196.637 204.659 196.221 203.767C195.805 202.87 195.598 201.811 195.598 200.588C195.598 199.376 195.805 198.324 196.221 197.432C196.637 196.54 197.216 195.851 197.957 195.365C198.699 194.879 199.556 194.636 200.527 194.636C201.279 194.636 201.873 194.762 202.309 195.012C202.749 195.258 203.085 195.538 203.316 195.854C203.551 196.164 203.734 196.42 203.864 196.62H204.015V190.939H205.788V206.33H204.075V204.556H203.864C203.734 204.767 203.549 205.032 203.308 205.353C203.068 205.669 202.724 205.952 202.279 206.202C201.833 206.448 201.239 206.57 200.497 206.57ZM200.738 204.977C201.449 204.977 202.051 204.792 202.542 204.421C203.033 204.045 203.406 203.527 203.661 202.865C203.917 202.199 204.045 201.43 204.045 200.558C204.045 199.696 203.919 198.942 203.669 198.296C203.418 197.645 203.048 197.139 202.557 196.778C202.066 196.412 201.459 196.23 200.738 196.23C199.986 196.23 199.36 196.422 198.859 196.808C198.363 197.189 197.99 197.707 197.739 198.364C197.494 199.015 197.371 199.747 197.371 200.558C197.371 201.38 197.496 202.126 197.747 202.798C198.002 203.464 198.378 203.995 198.874 204.391C199.375 204.782 199.996 204.977 200.738 204.977ZM214.784 206.57C213.671 206.57 212.712 206.325 211.905 205.834C211.104 205.338 210.485 204.646 210.049 203.76C209.618 202.868 209.403 201.831 209.403 200.648C209.403 199.466 209.618 198.424 210.049 197.522C210.485 196.615 211.091 195.909 211.868 195.403C212.649 194.892 213.561 194.636 214.603 194.636C215.204 194.636 215.798 194.737 216.384 194.937C216.971 195.137 217.504 195.463 217.985 195.914C218.466 196.36 218.849 196.951 219.135 197.687C219.42 198.424 219.563 199.331 219.563 200.408V201.159H210.665V199.626H217.76C217.76 198.975 217.629 198.394 217.369 197.883C217.113 197.372 216.748 196.969 216.272 196.673C215.801 196.377 215.245 196.23 214.603 196.23C213.897 196.23 213.286 196.405 212.77 196.756C212.259 197.101 211.865 197.552 211.59 198.108C211.314 198.664 211.176 199.261 211.176 199.897V200.919C211.176 201.791 211.327 202.53 211.627 203.136C211.933 203.737 212.356 204.196 212.897 204.511C213.438 204.822 214.067 204.977 214.784 204.977C215.25 204.977 215.67 204.912 216.046 204.782C216.427 204.646 216.755 204.446 217.031 204.181C217.306 203.91 217.519 203.574 217.669 203.173L219.383 203.654C219.203 204.236 218.899 204.747 218.474 205.188C218.048 205.623 217.522 205.964 216.895 206.21C216.269 206.45 215.565 206.57 214.784 206.57ZM222.923 206.33V194.787H224.636V196.53H224.756C224.967 195.959 225.347 195.496 225.899 195.14C226.45 194.784 227.071 194.606 227.762 194.606C227.893 194.606 228.055 194.609 228.251 194.614C228.446 194.619 228.594 194.626 228.694 194.636V196.44C228.634 196.425 228.496 196.402 228.281 196.372C228.07 196.337 227.847 196.32 227.612 196.32C227.051 196.32 226.55 196.437 226.109 196.673C225.673 196.903 225.327 197.224 225.072 197.635C224.821 198.041 224.696 198.504 224.696 199.025V206.33H222.923ZM243.512 190.217L238.552 208.644H236.929L241.889 190.217H243.512ZM256.466 200.919L246.787 205.849V203.925L254.212 200.348L254.152 200.468V200.167L254.212 200.288L246.787 196.71V194.787L256.466 199.717V200.919ZM140.147 229.476V228.274L149.827 223.344V225.268L142.402 228.845L142.462 228.725V229.025L142.402 228.905L149.827 232.482V234.406L140.147 229.476ZM154.488 236.33V220.939H156.352V227.793H164.558V220.939H166.422V236.33H164.558V229.446H156.352V236.33H154.488ZM175.414 236.57C174.302 236.57 173.342 236.325 172.536 235.834C171.734 235.338 171.115 234.646 170.679 233.76C170.248 232.868 170.033 231.831 170.033 230.648C170.033 229.466 170.248 228.424 170.679 227.522C171.115 226.615 171.721 225.909 172.498 225.403C173.28 224.892 174.191 224.636 175.233 224.636C175.835 224.636 176.428 224.737 177.015 224.937C177.601 225.137 178.134 225.463 178.615 225.914C179.096 226.36 179.48 226.951 179.765 227.687C180.051 228.424 180.193 229.331 180.193 230.408V231.159H171.296V229.626H178.39C178.39 228.975 178.26 228.394 177.999 227.883C177.744 227.372 177.378 226.969 176.902 226.673C176.431 226.377 175.875 226.23 175.233 226.23C174.527 226.23 173.916 226.405 173.4 226.756C172.889 227.101 172.495 227.552 172.22 228.108C171.944 228.664 171.807 229.261 171.807 229.897V230.919C171.807 231.791 171.957 232.53 172.258 233.136C172.563 233.737 172.986 234.196 173.528 234.511C174.069 234.822 174.697 234.977 175.414 234.977C175.88 234.977 176.301 234.912 176.676 234.782C177.057 234.646 177.385 234.446 177.661 234.181C177.936 233.91 178.149 233.574 178.3 233.173L180.013 233.654C179.833 234.236 179.53 234.747 179.104 235.188C178.678 235.623 178.152 235.964 177.526 236.21C176.899 236.45 176.195 236.57 175.414 236.57ZM183.553 236.33V224.787H185.266V226.53H185.386C185.597 225.959 185.978 225.496 186.529 225.14C187.08 224.784 187.701 224.606 188.392 224.606C188.523 224.606 188.686 224.609 188.881 224.614C189.076 224.619 189.224 224.626 189.324 224.636V226.44C189.264 226.425 189.126 226.402 188.911 226.372C188.701 226.337 188.478 226.32 188.242 226.32C187.681 226.32 187.18 226.437 186.739 226.673C186.303 226.903 185.958 227.224 185.702 227.635C185.452 228.041 185.326 228.504 185.326 229.025V236.33H183.553ZM196.426 236.57C195.384 236.57 194.47 236.322 193.683 235.826C192.902 235.33 192.29 234.636 191.849 233.745C191.414 232.853 191.196 231.811 191.196 230.618C191.196 229.416 191.414 228.366 191.849 227.47C192.29 226.573 192.902 225.876 193.683 225.38C194.47 224.884 195.384 224.636 196.426 224.636C197.468 224.636 198.38 224.884 199.162 225.38C199.948 225.876 200.559 226.573 200.995 227.47C201.436 228.366 201.657 229.416 201.657 230.618C201.657 231.811 201.436 232.853 200.995 233.745C200.559 234.636 199.948 235.33 199.162 235.826C198.38 236.322 197.468 236.57 196.426 236.57ZM196.426 234.977C197.218 234.977 197.869 234.774 198.38 234.368C198.891 233.963 199.269 233.429 199.515 232.768C199.76 232.106 199.883 231.39 199.883 230.618C199.883 229.847 199.76 229.128 199.515 228.462C199.269 227.795 198.891 227.257 198.38 226.846C197.869 226.435 197.218 226.23 196.426 226.23C195.635 226.23 194.983 226.435 194.472 226.846C193.961 227.257 193.583 227.795 193.337 228.462C193.092 229.128 192.969 229.847 192.969 230.618C192.969 231.39 193.092 232.106 193.337 232.768C193.583 233.429 193.961 233.963 194.472 234.368C194.983 234.774 195.635 234.977 196.426 234.977ZM213.683 224.787C213.593 224.025 213.227 223.434 212.585 223.013C211.944 222.592 211.158 222.382 210.226 222.382C209.544 222.382 208.948 222.492 208.437 222.712C207.931 222.933 207.535 223.236 207.25 223.622C206.969 224.008 206.829 224.446 206.829 224.937C206.829 225.348 206.927 225.701 207.122 225.997C207.322 226.287 207.578 226.53 207.889 226.726C208.199 226.916 208.525 227.074 208.865 227.199C209.206 227.319 209.519 227.417 209.805 227.492L211.368 227.913C211.769 228.018 212.215 228.163 212.706 228.349C213.202 228.534 213.675 228.787 214.126 229.108C214.582 229.423 214.958 229.829 215.253 230.325C215.549 230.821 215.697 231.43 215.697 232.151C215.697 232.983 215.479 233.735 215.043 234.406C214.612 235.077 213.981 235.611 213.149 236.007C212.322 236.402 211.318 236.6 210.136 236.6C209.033 236.6 208.079 236.423 207.272 236.067C206.471 235.711 205.839 235.215 205.378 234.579C204.923 233.943 204.665 233.204 204.604 232.362H206.528C206.578 232.943 206.774 233.424 207.114 233.805C207.46 234.181 207.896 234.461 208.422 234.646C208.953 234.827 209.524 234.917 210.136 234.917C210.847 234.917 211.486 234.802 212.052 234.571C212.618 234.336 213.066 234.01 213.397 233.594C213.728 233.173 213.893 232.682 213.893 232.121C213.893 231.61 213.75 231.195 213.465 230.874C213.179 230.553 212.803 230.293 212.337 230.092C211.872 229.892 211.368 229.717 210.827 229.566L208.933 229.025C207.731 228.679 206.779 228.186 206.077 227.545C205.376 226.903 205.025 226.064 205.025 225.027C205.025 224.165 205.258 223.414 205.724 222.773C206.195 222.126 206.826 221.625 207.618 221.27C208.415 220.909 209.304 220.728 210.286 220.728C211.278 220.728 212.16 220.906 212.931 221.262C213.703 221.613 214.314 222.094 214.765 222.705C215.221 223.316 215.461 224.01 215.486 224.787H213.683ZM224.022 236.57C222.909 236.57 221.95 236.325 221.143 235.834C220.342 235.338 219.723 234.646 219.287 233.76C218.856 232.868 218.641 231.831 218.641 230.648C218.641 229.466 218.856 228.424 219.287 227.522C219.723 226.615 220.329 225.909 221.106 225.403C221.887 224.892 222.799 224.636 223.841 224.636C224.442 224.636 225.036 224.737 225.622 224.937C226.209 225.137 226.742 225.463 227.223 225.914C227.704 226.36 228.087 226.951 228.373 227.687C228.658 228.424 228.801 229.331 228.801 230.408V231.159H219.903V229.626H226.998C226.998 228.975 226.867 228.394 226.607 227.883C226.351 227.372 225.986 226.969 225.51 226.673C225.039 226.377 224.483 226.23 223.841 226.23C223.135 226.23 222.524 226.405 222.008 226.756C221.497 227.101 221.103 227.552 220.828 228.108C220.552 228.664 220.414 229.261 220.414 229.897V230.919C220.414 231.791 220.565 232.53 220.865 233.136C221.171 233.737 221.594 234.196 222.135 234.511C222.676 234.822 223.305 234.977 224.022 234.977C224.488 234.977 224.908 234.912 225.284 234.782C225.665 234.646 225.993 234.446 226.269 234.181C226.544 233.91 226.757 233.574 226.907 233.173L228.621 233.654C228.44 234.236 228.137 234.747 227.712 235.188C227.286 235.623 226.76 235.964 226.133 236.21C225.507 236.45 224.803 236.57 224.022 236.57ZM236.85 236.57C235.768 236.57 234.836 236.315 234.054 235.804C233.273 235.293 232.672 234.589 232.251 233.692C231.83 232.795 231.619 231.771 231.619 230.618C231.619 229.446 231.835 228.411 232.266 227.515C232.702 226.613 233.308 225.909 234.084 225.403C234.866 224.892 235.778 224.636 236.82 224.636C237.631 224.636 238.363 224.787 239.014 225.087C239.666 225.388 240.199 225.809 240.615 226.35C241.031 226.891 241.289 227.522 241.389 228.244H239.615C239.48 227.718 239.18 227.252 238.714 226.846C238.253 226.435 237.631 226.23 236.85 226.23C236.159 226.23 235.552 226.41 235.031 226.771C234.515 227.126 234.112 227.63 233.821 228.281C233.536 228.927 233.393 229.686 233.393 230.558C233.393 231.45 233.533 232.227 233.814 232.888C234.099 233.549 234.5 234.063 235.016 234.429C235.537 234.794 236.149 234.977 236.85 234.977C237.311 234.977 237.729 234.897 238.105 234.737C238.481 234.576 238.799 234.346 239.059 234.045C239.32 233.745 239.505 233.384 239.615 232.963H241.389C241.289 233.644 241.041 234.258 240.645 234.804C240.254 235.345 239.736 235.776 239.089 236.097C238.448 236.413 237.702 236.57 236.85 236.57ZM249.663 224.787V226.29H243.681V224.787H249.663ZM245.425 222.021H247.198V233.023C247.198 233.524 247.271 233.9 247.416 234.15C247.566 234.396 247.757 234.561 247.987 234.646C248.223 234.727 248.471 234.767 248.731 234.767C248.927 234.767 249.087 234.757 249.212 234.737C249.338 234.712 249.438 234.692 249.513 234.677L249.874 236.27C249.753 236.315 249.586 236.36 249.37 236.405C249.155 236.455 248.882 236.48 248.551 236.48C248.05 236.48 247.559 236.372 247.078 236.157C246.602 235.942 246.206 235.613 245.891 235.173C245.58 234.732 245.425 234.176 245.425 233.504V222.021ZM252.992 236.33V224.787H254.766V236.33H252.992ZM253.894 222.863C253.548 222.863 253.25 222.745 253 222.51C252.754 222.274 252.632 221.991 252.632 221.66C252.632 221.33 252.754 221.047 253 220.811C253.25 220.576 253.548 220.458 253.894 220.458C254.24 220.458 254.535 220.576 254.781 220.811C255.031 221.047 255.157 221.33 255.157 221.66C255.157 221.991 255.031 222.274 254.781 222.51C254.535 222.745 254.24 222.863 253.894 222.863ZM263.365 236.57C262.323 236.57 261.409 236.322 260.622 235.826C259.841 235.33 259.229 234.636 258.788 233.745C258.353 232.853 258.135 231.811 258.135 230.618C258.135 229.416 258.353 228.366 258.788 227.47C259.229 226.573 259.841 225.876 260.622 225.38C261.409 224.884 262.323 224.636 263.365 224.636C264.407 224.636 265.319 224.884 266.101 225.38C266.887 225.876 267.498 226.573 267.934 227.47C268.375 228.366 268.596 229.416 268.596 230.618C268.596 231.811 268.375 232.853 267.934 233.745C267.498 234.636 266.887 235.33 266.101 235.826C265.319 236.322 264.407 236.57 263.365 236.57ZM263.365 234.977C264.157 234.977 264.808 234.774 265.319 234.368C265.83 233.963 266.208 233.429 266.454 232.768C266.699 232.106 266.822 231.39 266.822 230.618C266.822 229.847 266.699 229.128 266.454 228.462C266.208 227.795 265.83 227.257 265.319 226.846C264.808 226.435 264.157 226.23 263.365 226.23C262.574 226.23 261.922 226.435 261.411 226.846C260.9 227.257 260.522 227.795 260.276 228.462C260.031 229.128 259.908 229.847 259.908 230.618C259.908 231.39 260.031 232.106 260.276 232.768C260.522 233.429 260.9 233.963 261.411 234.368C261.922 234.774 262.574 234.977 263.365 234.977ZM273.738 229.386V236.33H271.964V224.787H273.678V226.59H273.828C274.099 226.004 274.509 225.533 275.061 225.177C275.612 224.817 276.323 224.636 277.195 224.636C277.976 224.636 278.66 224.797 279.246 225.117C279.833 225.433 280.289 225.914 280.614 226.56C280.94 227.201 281.103 228.013 281.103 228.995V236.33H279.329V229.115C279.329 228.209 279.094 227.502 278.623 226.996C278.152 226.485 277.505 226.23 276.684 226.23C276.118 226.23 275.612 226.352 275.166 226.598C274.725 226.843 274.377 227.201 274.121 227.672C273.866 228.143 273.738 228.715 273.738 229.386ZM297.059 220.217L292.099 238.644H290.476L295.436 220.217H297.059ZM310.013 230.919L300.334 235.849V233.925L307.759 230.348L307.699 230.468V230.167L307.759 230.288L300.334 226.71V224.787L310.013 229.717V230.919ZM140.147 258.476V257.274L149.827 252.344V254.268L142.402 257.845L142.462 257.725V258.025L142.402 257.905L149.827 261.482V263.406L140.147 258.476ZM154.488 265.33V249.939H163.717V251.592H156.352V256.793H163.025V258.446H156.352V265.33H154.488ZM171.322 265.57C170.21 265.57 169.25 265.325 168.444 264.834C167.642 264.338 167.023 263.646 166.587 262.76C166.156 261.868 165.941 260.831 165.941 259.648C165.941 258.466 166.156 257.424 166.587 256.522C167.023 255.615 167.629 254.909 168.406 254.403C169.188 253.892 170.099 253.636 171.142 253.636C171.743 253.636 172.336 253.737 172.923 253.937C173.509 254.137 174.042 254.463 174.523 254.914C175.004 255.36 175.388 255.951 175.673 256.687C175.959 257.424 176.101 258.331 176.101 259.408V260.159H167.204V258.626H174.298C174.298 257.975 174.168 257.394 173.907 256.883C173.652 256.372 173.286 255.969 172.81 255.673C172.339 255.377 171.783 255.23 171.142 255.23C170.435 255.23 169.824 255.405 169.308 255.756C168.797 256.101 168.404 256.552 168.128 257.108C167.852 257.664 167.715 258.261 167.715 258.897V259.919C167.715 260.791 167.865 261.53 168.166 262.136C168.471 262.737 168.894 263.196 169.436 263.511C169.977 263.822 170.605 263.977 171.322 263.977C171.788 263.977 172.209 263.912 172.584 263.782C172.965 263.646 173.293 263.446 173.569 263.181C173.844 262.91 174.057 262.574 174.208 262.173L175.921 262.654C175.741 263.236 175.438 263.747 175.012 264.188C174.586 264.623 174.06 264.964 173.434 265.21C172.807 265.45 172.103 265.57 171.322 265.57ZM182.858 265.6C182.126 265.6 181.462 265.463 180.866 265.187C180.27 264.906 179.796 264.503 179.446 263.977C179.095 263.446 178.92 262.805 178.92 262.053C178.92 261.392 179.05 260.856 179.31 260.445C179.571 260.029 179.919 259.704 180.355 259.468C180.791 259.233 181.272 259.057 181.798 258.942C182.329 258.822 182.863 258.727 183.399 258.656C184.1 258.566 184.669 258.499 185.105 258.454C185.545 258.403 185.866 258.321 186.067 258.206C186.272 258.09 186.375 257.89 186.375 257.604V257.544C186.375 256.803 186.172 256.227 185.766 255.816C185.365 255.405 184.756 255.199 183.94 255.199C183.093 255.199 182.429 255.385 181.948 255.756C181.467 256.126 181.129 256.522 180.934 256.943L179.25 256.342C179.551 255.64 179.952 255.094 180.453 254.703C180.959 254.308 181.51 254.032 182.106 253.877C182.707 253.716 183.298 253.636 183.88 253.636C184.25 253.636 184.676 253.681 185.157 253.772C185.643 253.857 186.112 254.035 186.563 254.305C187.018 254.576 187.397 254.984 187.697 255.53C187.998 256.076 188.148 256.808 188.148 257.725V265.33H186.375V263.767H186.284C186.164 264.017 185.964 264.285 185.683 264.571C185.403 264.856 185.029 265.099 184.564 265.3C184.098 265.5 183.529 265.6 182.858 265.6ZM183.128 264.007C183.83 264.007 184.421 263.869 184.902 263.594C185.388 263.318 185.753 262.963 185.999 262.527C186.249 262.091 186.375 261.632 186.375 261.151V259.528C186.299 259.618 186.134 259.701 185.879 259.776C185.628 259.846 185.338 259.909 185.007 259.964C184.681 260.014 184.363 260.059 184.052 260.099C183.747 260.134 183.499 260.164 183.308 260.189C182.848 260.25 182.417 260.347 182.016 260.483C181.62 260.613 181.299 260.811 181.054 261.076C180.813 261.337 180.693 261.693 180.693 262.143C180.693 262.76 180.921 263.226 181.377 263.541C181.838 263.852 182.422 264.007 183.128 264.007ZM197.067 253.787V255.29H191.085V253.787H197.067ZM192.828 251.021H194.602V262.023C194.602 262.524 194.674 262.9 194.82 263.15C194.97 263.396 195.16 263.561 195.391 263.646C195.626 263.727 195.874 263.767 196.135 263.767C196.33 263.767 196.491 263.757 196.616 263.737C196.741 263.712 196.841 263.692 196.916 263.677L197.277 265.27C197.157 265.315 196.989 265.36 196.774 265.405C196.558 265.455 196.285 265.48 195.955 265.48C195.454 265.48 194.963 265.372 194.482 265.157C194.006 264.942 193.61 264.613 193.294 264.173C192.984 263.732 192.828 263.176 192.828 262.504V251.021ZM207.671 260.61V253.787H209.444V265.33H207.671V263.376H207.55C207.28 263.962 206.859 264.461 206.288 264.871C205.717 265.277 204.995 265.48 204.123 265.48C203.402 265.48 202.761 265.322 202.2 265.007C201.638 264.686 201.198 264.205 200.877 263.564C200.556 262.917 200.396 262.103 200.396 261.121V253.787H202.17V261.001C202.17 261.843 202.405 262.514 202.876 263.015C203.352 263.516 203.958 263.767 204.695 263.767C205.136 263.767 205.584 263.654 206.04 263.429C206.501 263.203 206.887 262.857 207.197 262.391C207.513 261.925 207.671 261.332 207.671 260.61ZM213.354 265.33V253.787H215.067V255.53H215.188C215.398 254.959 215.779 254.496 216.33 254.14C216.881 253.784 217.502 253.606 218.194 253.606C218.324 253.606 218.487 253.609 218.682 253.614C218.878 253.619 219.025 253.626 219.126 253.636V255.44C219.065 255.425 218.928 255.402 218.712 255.372C218.502 255.337 218.279 255.32 218.043 255.32C217.482 255.32 216.981 255.437 216.54 255.673C216.104 255.903 215.759 256.224 215.503 256.635C215.253 257.041 215.127 257.504 215.127 258.025V265.33H213.354ZM226.378 265.57C225.265 265.57 224.306 265.325 223.499 264.834C222.698 264.338 222.079 263.646 221.643 262.76C221.212 261.868 220.997 260.831 220.997 259.648C220.997 258.466 221.212 257.424 221.643 256.522C222.079 255.615 222.685 254.909 223.462 254.403C224.243 253.892 225.155 253.636 226.197 253.636C226.798 253.636 227.392 253.737 227.978 253.937C228.564 254.137 229.098 254.463 229.579 254.914C230.06 255.36 230.443 255.951 230.729 256.687C231.014 257.424 231.157 258.331 231.157 259.408V260.159H222.259V258.626H229.354C229.354 257.975 229.223 257.394 228.963 256.883C228.707 256.372 228.342 255.969 227.866 255.673C227.395 255.377 226.839 255.23 226.197 255.23C225.491 255.23 224.88 255.405 224.364 255.756C223.853 256.101 223.459 256.552 223.184 257.108C222.908 257.664 222.77 258.261 222.77 258.897V259.919C222.77 260.791 222.921 261.53 223.221 262.136C223.527 262.737 223.95 263.196 224.491 263.511C225.032 263.822 225.661 263.977 226.378 263.977C226.844 263.977 227.264 263.912 227.64 263.782C228.021 263.646 228.349 263.446 228.625 263.181C228.9 262.91 229.113 262.574 229.263 262.173L230.977 262.654C230.796 263.236 230.493 263.747 230.068 264.188C229.642 264.623 229.116 264.964 228.489 265.21C227.863 265.45 227.159 265.57 226.378 265.57ZM243.174 253.787C243.084 253.025 242.718 252.434 242.077 252.013C241.435 251.592 240.649 251.382 239.717 251.382C239.036 251.382 238.439 251.492 237.928 251.712C237.422 251.933 237.027 252.236 236.741 252.622C236.46 253.008 236.32 253.446 236.32 253.937C236.32 254.348 236.418 254.701 236.613 254.997C236.814 255.287 237.069 255.53 237.38 255.726C237.69 255.916 238.016 256.074 238.357 256.199C238.697 256.319 239.011 256.417 239.296 256.492L240.859 256.913C241.26 257.018 241.706 257.163 242.197 257.349C242.693 257.534 243.166 257.787 243.617 258.108C244.073 258.423 244.449 258.829 244.745 259.325C245.04 259.821 245.188 260.43 245.188 261.151C245.188 261.983 244.97 262.735 244.534 263.406C244.103 264.077 243.472 264.611 242.64 265.007C241.814 265.402 240.809 265.6 239.627 265.6C238.525 265.6 237.57 265.423 236.763 265.067C235.962 264.711 235.331 264.215 234.87 263.579C234.414 262.943 234.156 262.204 234.096 261.362H236.019C236.07 261.943 236.265 262.424 236.606 262.805C236.951 263.181 237.387 263.461 237.913 263.646C238.444 263.827 239.016 263.917 239.627 263.917C240.338 263.917 240.977 263.802 241.543 263.571C242.109 263.336 242.558 263.01 242.888 262.594C243.219 262.173 243.384 261.682 243.384 261.121C243.384 260.61 243.242 260.195 242.956 259.874C242.67 259.553 242.295 259.293 241.829 259.092C241.363 258.892 240.859 258.717 240.318 258.566L238.424 258.025C237.222 257.679 236.27 257.186 235.569 256.545C234.867 255.903 234.516 255.064 234.516 254.027C234.516 253.165 234.749 252.414 235.215 251.773C235.686 251.126 236.318 250.625 237.109 250.27C237.906 249.909 238.795 249.728 239.777 249.728C240.769 249.728 241.651 249.906 242.422 250.262C243.194 250.613 243.805 251.094 244.256 251.705C244.712 252.316 244.952 253.01 244.978 253.787H243.174ZM253.513 265.57C252.401 265.57 251.441 265.325 250.634 264.834C249.833 264.338 249.214 263.646 248.778 262.76C248.347 261.868 248.132 260.831 248.132 259.648C248.132 258.466 248.347 257.424 248.778 256.522C249.214 255.615 249.82 254.909 250.597 254.403C251.378 253.892 252.29 253.636 253.332 253.636C253.934 253.636 254.527 253.737 255.114 253.937C255.7 254.137 256.233 254.463 256.714 254.914C257.195 255.36 257.578 255.951 257.864 256.687C258.15 257.424 258.292 258.331 258.292 259.408V260.159H249.395V258.626H256.489C256.489 257.975 256.359 257.394 256.098 256.883C255.842 256.372 255.477 255.969 255.001 255.673C254.53 255.377 253.974 255.23 253.332 255.23C252.626 255.23 252.015 255.405 251.499 255.756C250.988 256.101 250.594 256.552 250.319 257.108C250.043 257.664 249.906 258.261 249.906 258.897V259.919C249.906 260.791 250.056 261.53 250.356 262.136C250.662 262.737 251.085 263.196 251.626 263.511C252.168 263.822 252.796 263.977 253.513 263.977C253.979 263.977 254.4 263.912 254.775 263.782C255.156 263.646 255.484 263.446 255.76 263.181C256.035 262.91 256.248 262.574 256.399 262.173L258.112 262.654C257.932 263.236 257.629 263.747 257.203 264.188C256.777 264.623 256.251 264.964 255.625 265.21C254.998 265.45 254.294 265.57 253.513 265.57ZM266.341 265.57C265.259 265.57 264.327 265.315 263.545 264.804C262.764 264.293 262.163 263.589 261.742 262.692C261.321 261.795 261.111 260.771 261.111 259.618C261.111 258.446 261.326 257.411 261.757 256.515C262.193 255.613 262.799 254.909 263.576 254.403C264.357 253.892 265.269 253.636 266.311 253.636C267.123 253.636 267.854 253.787 268.505 254.087C269.157 254.388 269.69 254.809 270.106 255.35C270.522 255.891 270.78 256.522 270.88 257.244H269.107C268.971 256.718 268.671 256.252 268.205 255.846C267.744 255.435 267.123 255.23 266.341 255.23C265.65 255.23 265.043 255.41 264.522 255.771C264.006 256.126 263.603 256.63 263.313 257.281C263.027 257.927 262.884 258.686 262.884 259.558C262.884 260.45 263.024 261.227 263.305 261.888C263.591 262.549 263.991 263.063 264.507 263.429C265.028 263.794 265.64 263.977 266.341 263.977C266.802 263.977 267.22 263.897 267.596 263.737C267.972 263.576 268.29 263.346 268.551 263.045C268.811 262.745 268.996 262.384 269.107 261.963H270.88C270.78 262.644 270.532 263.258 270.136 263.804C269.745 264.345 269.227 264.776 268.581 265.097C267.939 265.413 267.193 265.57 266.341 265.57ZM279.154 253.787V255.29H273.172V253.787H279.154ZM274.916 251.021H276.689V262.023C276.689 262.524 276.762 262.9 276.907 263.15C277.058 263.396 277.248 263.561 277.478 263.646C277.714 263.727 277.962 263.767 278.222 263.767C278.418 263.767 278.578 263.757 278.703 263.737C278.829 263.712 278.929 263.692 279.004 263.677L279.365 265.27C279.245 265.315 279.077 265.36 278.861 265.405C278.646 265.455 278.373 265.48 278.042 265.48C277.541 265.48 277.05 265.372 276.569 265.157C276.093 264.942 275.697 264.613 275.382 264.173C275.071 263.732 274.916 263.176 274.916 262.504V251.021ZM282.484 265.33V253.787H284.257V265.33H282.484ZM283.385 251.863C283.04 251.863 282.742 251.745 282.491 251.51C282.246 251.274 282.123 250.991 282.123 250.66C282.123 250.33 282.246 250.047 282.491 249.811C282.742 249.576 283.04 249.458 283.385 249.458C283.731 249.458 284.027 249.576 284.272 249.811C284.523 250.047 284.648 250.33 284.648 250.66C284.648 250.991 284.523 251.274 284.272 251.51C284.027 251.745 283.731 251.863 283.385 251.863ZM292.856 265.57C291.814 265.57 290.9 265.322 290.113 264.826C289.332 264.33 288.72 263.636 288.28 262.745C287.844 261.853 287.626 260.811 287.626 259.618C287.626 258.416 287.844 257.366 288.28 256.47C288.72 255.573 289.332 254.876 290.113 254.38C290.9 253.884 291.814 253.636 292.856 253.636C293.898 253.636 294.81 253.884 295.592 254.38C296.378 254.876 296.99 255.573 297.425 256.47C297.866 257.366 298.087 258.416 298.087 259.618C298.087 260.811 297.866 261.853 297.425 262.745C296.99 263.636 296.378 264.33 295.592 264.826C294.81 265.322 293.898 265.57 292.856 265.57ZM292.856 263.977C293.648 263.977 294.299 263.774 294.81 263.368C295.321 262.963 295.7 262.429 295.945 261.768C296.19 261.106 296.313 260.39 296.313 259.618C296.313 258.847 296.19 258.128 295.945 257.462C295.7 256.795 295.321 256.257 294.81 255.846C294.299 255.435 293.648 255.23 292.856 255.23C292.065 255.23 291.413 255.435 290.902 255.846C290.391 256.257 290.013 256.795 289.768 257.462C289.522 258.128 289.399 258.847 289.399 259.618C289.399 260.39 289.522 261.106 289.768 261.768C290.013 262.429 290.391 262.963 290.902 263.368C291.413 263.774 292.065 263.977 292.856 263.977ZM303.229 258.386V265.33H301.455V253.787H303.169V255.59H303.319C303.59 255.004 304.001 254.533 304.552 254.177C305.103 253.817 305.814 253.636 306.686 253.636C307.468 253.636 308.151 253.797 308.738 254.117C309.324 254.433 309.78 254.914 310.105 255.56C310.431 256.201 310.594 257.013 310.594 257.995V265.33H308.82V258.115C308.82 257.209 308.585 256.502 308.114 255.996C307.643 255.485 306.997 255.23 306.175 255.23C305.609 255.23 305.103 255.352 304.657 255.598C304.216 255.843 303.868 256.201 303.612 256.672C303.357 257.143 303.229 257.715 303.229 258.386ZM326.55 249.217L321.59 267.644H319.967L324.927 249.217H326.55ZM339.504 259.919L329.825 264.849V262.925L337.25 259.348L337.19 259.468V259.167L337.25 259.288L329.825 255.71V253.787L339.504 258.717V259.919ZM140.147 288.476V287.274L149.827 282.344V284.268L142.402 287.845L142.462 287.725V288.025L142.402 287.905L149.827 291.482V293.406L140.147 288.476ZM154.488 295.33V279.939H163.717V281.592H156.352V286.793H163.025V288.446H156.352V295.33H154.488ZM171.172 295.57C170.129 295.57 169.215 295.322 168.429 294.826C167.647 294.33 167.036 293.636 166.595 292.745C166.159 291.853 165.941 290.811 165.941 289.618C165.941 288.416 166.159 287.366 166.595 286.47C167.036 285.573 167.647 284.876 168.429 284.38C169.215 283.884 170.129 283.636 171.172 283.636C172.214 283.636 173.125 283.884 173.907 284.38C174.694 284.876 175.305 285.573 175.741 286.47C176.182 287.366 176.402 288.416 176.402 289.618C176.402 290.811 176.182 291.853 175.741 292.745C175.305 293.636 174.694 294.33 173.907 294.826C173.125 295.322 172.214 295.57 171.172 295.57ZM171.172 293.977C171.963 293.977 172.614 293.774 173.125 293.368C173.637 292.963 174.015 292.429 174.26 291.768C174.506 291.106 174.629 290.39 174.629 289.618C174.629 288.847 174.506 288.128 174.26 287.462C174.015 286.795 173.637 286.257 173.125 285.846C172.614 285.435 171.963 285.23 171.172 285.23C170.38 285.23 169.729 285.435 169.218 285.846C168.707 286.257 168.328 286.795 168.083 287.462C167.837 288.128 167.715 288.847 167.715 289.618C167.715 290.39 167.837 291.106 168.083 291.768C168.328 292.429 168.707 292.963 169.218 293.368C169.729 293.774 170.38 293.977 171.172 293.977ZM184.46 295.57C183.418 295.57 182.504 295.322 181.717 294.826C180.936 294.33 180.324 293.636 179.883 292.745C179.448 291.853 179.23 290.811 179.23 289.618C179.23 288.416 179.448 287.366 179.883 286.47C180.324 285.573 180.936 284.876 181.717 284.38C182.504 283.884 183.418 283.636 184.46 283.636C185.502 283.636 186.414 283.884 187.196 284.38C187.982 284.876 188.593 285.573 189.029 286.47C189.47 287.366 189.691 288.416 189.691 289.618C189.691 290.811 189.47 291.853 189.029 292.745C188.593 293.636 187.982 294.33 187.196 294.826C186.414 295.322 185.502 295.57 184.46 295.57ZM184.46 293.977C185.252 293.977 185.903 293.774 186.414 293.368C186.925 292.963 187.303 292.429 187.549 291.768C187.794 291.106 187.917 290.39 187.917 289.618C187.917 288.847 187.794 288.128 187.549 287.462C187.303 286.795 186.925 286.257 186.414 285.846C185.903 285.435 185.252 285.23 184.46 285.23C183.669 285.23 183.017 285.435 182.506 285.846C181.995 286.257 181.617 286.795 181.371 287.462C181.126 288.128 181.003 288.847 181.003 289.618C181.003 290.39 181.126 291.106 181.371 291.768C181.617 292.429 181.995 292.963 182.506 293.368C183.017 293.774 183.669 293.977 184.46 293.977ZM198.079 283.787V285.29H192.097V283.787H198.079ZM193.841 281.021H195.614V292.023C195.614 292.524 195.687 292.9 195.832 293.15C195.983 293.396 196.173 293.561 196.404 293.646C196.639 293.727 196.887 293.767 197.148 293.767C197.343 293.767 197.503 293.757 197.629 293.737C197.754 293.712 197.854 293.692 197.929 293.677L198.29 295.27C198.17 295.315 198.002 295.36 197.786 295.405C197.571 295.455 197.298 295.48 196.967 295.48C196.466 295.48 195.975 295.372 195.494 295.157C195.018 294.942 194.622 294.613 194.307 294.173C193.996 293.732 193.841 293.176 193.841 292.504V281.021ZM206.124 295.57C205.012 295.57 204.053 295.325 203.246 294.834C202.444 294.338 201.826 293.646 201.39 292.76C200.959 291.868 200.744 290.831 200.744 289.648C200.744 288.466 200.959 287.424 201.39 286.522C201.826 285.615 202.432 284.909 203.208 284.403C203.99 283.892 204.902 283.636 205.944 283.636C206.545 283.636 207.139 283.737 207.725 283.937C208.311 284.137 208.845 284.463 209.326 284.914C209.807 285.36 210.19 285.951 210.476 286.687C210.761 287.424 210.904 288.331 210.904 289.408V290.159H202.006V288.626H209.1C209.1 287.975 208.97 287.394 208.71 286.883C208.454 286.372 208.088 285.969 207.612 285.673C207.141 285.377 206.585 285.23 205.944 285.23C205.238 285.23 204.626 285.405 204.11 285.756C203.599 286.101 203.206 286.552 202.93 287.108C202.655 287.664 202.517 288.261 202.517 288.897V289.919C202.517 290.791 202.667 291.53 202.968 292.136C203.274 292.737 203.697 293.196 204.238 293.511C204.779 293.822 205.408 293.977 206.124 293.977C206.59 293.977 207.011 293.912 207.387 293.782C207.768 293.646 208.096 293.446 208.371 293.181C208.647 292.91 208.86 292.574 209.01 292.173L210.724 292.654C210.543 293.236 210.24 293.747 209.814 294.188C209.388 294.623 208.862 294.964 208.236 295.21C207.61 295.45 206.906 295.57 206.124 295.57ZM214.263 295.33V283.787H215.977V285.53H216.097C216.307 284.959 216.688 284.496 217.239 284.14C217.79 283.784 218.412 283.606 219.103 283.606C219.233 283.606 219.396 283.609 219.591 283.614C219.787 283.619 219.935 283.626 220.035 283.636V285.44C219.975 285.425 219.837 285.402 219.622 285.372C219.411 285.337 219.188 285.32 218.953 285.32C218.392 285.32 217.891 285.437 217.45 285.673C217.014 285.903 216.668 286.224 216.413 286.635C216.162 287.041 216.037 287.504 216.037 288.025V295.33H214.263ZM234.853 279.217L229.893 297.644H228.27L233.23 279.217H234.853ZM247.807 289.919L238.127 294.849V292.925L245.552 289.348L245.492 289.468V289.167L245.552 289.288L238.127 285.71V283.787L247.807 288.717V289.919ZM113.694 319.919V318.717L123.374 313.787V315.71L115.949 319.288L116.009 319.167V319.468L115.949 319.348L123.374 322.925V324.849L113.694 319.919ZM133.235 309.217L128.275 327.644H126.652L131.612 309.217H133.235ZM140.358 325.57C139.396 325.57 138.547 325.327 137.81 324.841C137.074 324.35 136.497 323.659 136.082 322.767C135.666 321.87 135.458 320.811 135.458 319.588C135.458 318.376 135.666 317.324 136.082 316.432C136.497 315.54 137.076 314.851 137.818 314.365C138.559 313.879 139.416 313.636 140.388 313.636C141.139 313.636 141.733 313.762 142.169 314.012C142.61 314.258 142.945 314.538 143.176 314.854C143.411 315.164 143.594 315.42 143.724 315.62H143.875V309.939H145.648V325.33H143.935V323.556H143.724C143.594 323.767 143.409 324.032 143.168 324.353C142.928 324.669 142.585 324.952 142.139 325.202C141.693 325.448 141.099 325.57 140.358 325.57ZM140.598 323.977C141.31 323.977 141.911 323.792 142.402 323.421C142.893 323.045 143.266 322.527 143.522 321.865C143.777 321.199 143.905 320.43 143.905 319.558C143.905 318.696 143.78 317.942 143.529 317.296C143.279 316.645 142.908 316.139 142.417 315.778C141.926 315.412 141.32 315.23 140.598 315.23C139.847 315.23 139.22 315.422 138.719 315.808C138.223 316.189 137.85 316.707 137.6 317.364C137.354 318.015 137.231 318.747 137.231 319.558C137.231 320.38 137.357 321.126 137.607 321.798C137.863 322.464 138.238 322.995 138.734 323.391C139.235 323.782 139.857 323.977 140.598 323.977ZM149.804 325.33V313.787H151.578V325.33H149.804ZM150.706 311.863C150.36 311.863 150.062 311.745 149.812 311.51C149.566 311.274 149.443 310.991 149.443 310.66C149.443 310.33 149.566 310.047 149.812 309.811C150.062 309.576 150.36 309.458 150.706 309.458C151.052 309.458 151.347 309.576 151.593 309.811C151.843 310.047 151.969 310.33 151.969 310.66C151.969 310.991 151.843 311.274 151.593 311.51C151.347 311.745 151.052 311.863 150.706 311.863ZM164.927 313.787L160.658 325.33H158.854L154.586 313.787H156.51L159.696 322.985H159.816L163.003 313.787H164.927ZM178.119 319.919L168.44 324.849V322.925L175.865 319.348L175.805 319.468V319.167L175.865 319.288L168.44 315.71V313.787L178.119 318.717V319.919Z" fill="#858585"/>
<rect x="75.9766" y="356.542" width="115.071" height="44.9704" rx="13.2266" fill="#DBFF00"/>
<rect x="76.6379" y="357.203" width="113.749" height="43.6478" rx="12.5653" stroke="#D3FFCA" stroke-opacity="0.25" stroke-width="1.32266"/>
<path d="M127.674 378H125.042C124.994 377.659 124.895 377.357 124.747 377.092C124.599 376.824 124.409 376.595 124.176 376.407C123.944 376.219 123.675 376.074 123.371 375.974C123.07 375.874 122.744 375.824 122.391 375.824C121.754 375.824 121.199 375.982 120.726 376.299C120.253 376.611 119.887 377.068 119.626 377.669C119.366 378.266 119.235 378.992 119.235 379.845C119.235 380.723 119.366 381.46 119.626 382.057C119.891 382.654 120.259 383.105 120.732 383.409C121.205 383.714 121.752 383.866 122.373 383.866C122.722 383.866 123.044 383.82 123.341 383.728C123.641 383.636 123.908 383.502 124.14 383.325C124.373 383.145 124.565 382.927 124.717 382.67C124.873 382.414 124.982 382.121 125.042 381.793L127.674 381.805C127.606 382.37 127.436 382.915 127.164 383.439C126.895 383.96 126.532 384.427 126.076 384.84C125.623 385.249 125.082 385.573 124.453 385.814C123.828 386.05 123.12 386.168 122.331 386.168C121.233 386.168 120.251 385.92 119.386 385.423C118.524 384.926 117.843 384.207 117.342 383.265C116.845 382.324 116.597 381.183 116.597 379.845C116.597 378.503 116.849 377.361 117.354 376.419C117.859 375.477 118.544 374.76 119.41 374.267C120.275 373.77 121.249 373.522 122.331 373.522C123.044 373.522 123.705 373.622 124.314 373.822C124.928 374.023 125.471 374.315 125.943 374.7C126.416 375.081 126.801 375.548 127.097 376.101C127.398 376.653 127.59 377.287 127.674 378ZM129.733 375.836V373.69H139.843V375.836H136.074V386H133.502V375.836H129.733ZM142.787 386H139.998L144.248 373.69H147.601L151.845 386H149.056L145.973 376.503H145.876L142.787 386ZM142.613 381.161H149.2V383.193H142.613V381.161Z" fill="black"/>
</svg>
